<?xml version="1.0" standalone="no"?><!DOCTYPE svg PUBLIC "-//W3C//DTD SVG 1.1//EN" "http://www.w3.org/Graphics/SVG/1.1/DTD/svg11.dtd"><svg class="icon" width="64px" height="63.57px" viewBox="0 0 1031 1024" version="1.1" xmlns="http://www.w3.org/2000/svg"><path d="M487.93985 985.02255594c-2.88721781-1.2030075-15.87969937-2.88721781-28.87218094-3.84962344-13.2330825-0.96240563-28.87218-3.36842063-34.8872175-5.05263188-6.0150375-1.92481219-14.19548906-3.36842063-18.52631625-3.36842062-4.09022531 0-8.18045156-0.96240563-8.90225531-2.16541406-0.96240563-1.2030075-6.0150375-2.88721781-11.78947406-3.84962344-10.8270675-1.44360937-16.842105-3.6090225-44.75187938-15.39849656-9.62406-4.09022531-19.24812-7.45864688-20.93233125-7.45864688-1.92481219 0-3.36842063-0.96240563-3.36842062-2.16541312s-3.12781969-2.88721781-7.218045-3.84962438-7.218045-2.406015-7.21804594-3.6090225c0-0.96240563-2.88721781-2.64661687-6.49624031-3.6090225-3.6090225-0.72180469-9.62406-3.84962437-13.71428532-6.73684219s-9.14285719-6.25563938-11.30827125-7.69924781c-25.02255656-14.91729281-30.79699219-18.52631625-35.60902218-23.81954906-3.36842063-3.36842063-6.97744406-6.25563938-8.18045157-6.25563938-3.36842063 0-5.29323281-1.68421031-44.03007468-39.93984937-18.52631625-18.28571437-34.40601469-35.12781938-35.36842125-37.05263156s-5.53383469-8.4210525-10.10526282-14.43609-10.58646656-14.91729281-13.2330825-19.72932375c-2.64661687-5.05263187-5.77443563-9.14285719-6.97744406-9.14285719s-5.05263187-6.0150375-8.66165437-13.2330825c-3.36842063-7.218045-7.45864688-13.2330825-8.90225532-13.2330825-1.2030075 0-1.92481219-1.44360937-1.2030075-3.36842156s-0.72180469-5.53383469-3.36842156-8.18045063c-2.406015-2.88721781-4.57142813-6.73684219-4.57142812-8.90225625 0-1.92481219-0.96240563-3.6090225-2.16541313-3.6090225s-3.6090225-5.29323281-5.29323375-12.030075c-1.68421031-6.49624031-3.84962437-12.030075-5.05263094-12.030075-0.96240563 0-1.92481219-1.68421031-1.92481218-3.6090225 0-2.16541313-1.44360937-6.25563938-3.36842157-9.14285719s-4.33082719-10.34586469-5.05263093-16.60150406c-0.96240563-6.49624031-2.64661687-11.54887219-3.84962438-11.54887219s-2.16541313-2.16541313-2.16541406-4.57142812c0-2.64661687-0.96240563-5.29323281-2.16541313-6.0150375s-2.88721781-7.93984969-3.84962437-15.87969938-2.88721781-14.43609-4.09022531-14.43609c-1.44360937 0-1.92481219-4.09022531-0.96240563-10.82706843 1.2030075-7.69924781 0.96240563-10.8270675-1.2030075-10.8270675-1.68421031 0-2.406015-2.406015-1.44360937-6.97744313 0.72180469-3.6090225 0.48120281-7.69924781-0.72180469-8.90225625-3.36842063-3.36842063-3.36842063-114.76691719-0.24060094-120.78195469 1.44360937-2.64661687 1.92481219-6.73684219 1.2030075-8.66165437-0.96240563-2.16541313-0.48120281-5.29323281 0.96240563-6.97744313 1.2030075-1.44360937 2.88721781-9.38345906 3.6090225-17.32330875 0.96240563-7.93984969 3.6090225-20.69172938 6.25563937-28.15037531 2.64661687-7.69924781 4.09022531-13.95488719 3.36842063-13.95488719s-0.24060187-1.44360937 0.96240656-2.88721875c1.44360937-1.68421031 3.12781969-7.218045 4.09022531-12.27067593s3.84962437-12.75187969 6.25563938-17.32330875c2.406015-4.33082719 3.84962437-8.4210525 3.12781968-9.14285719-0.48120281-0.72180469 0.72180469-4.09022531 3.12781875-7.69924781s4.33082719-9.38345906 4.57142907-12.75187969c0-3.36842063 1.44360937-6.49624031 3.12781968-7.218045 3.84962437-1.2030075 12.75187969-18.76691719 10.58646563-20.93233125-0.96240563-0.72180469 0.24060187-2.64661687 2.406015-3.84962344s7.45864688-8.4210525 11.78947406-16.12030125c4.33082719-7.45864688 11.30827031-18.52631625 15.39849656-24.54135375 4.33082719-6.0150375 7.218045-12.27067688 6.73684125-13.71428531-0.72180469-1.68421031 0.24060187-3.12781969 2.16541407-3.12781969 1.68421031 0 9.14285719-7.218045 16.36090218-16.12030031 14.91729281-18.0451125 41.38345875-44.99248125 58.70676657-59.66917313 6.25563938-5.29323281 13.95488719-12.030075 17.08270687-14.91729375 2.88721781-3.12781969 6.0150375-5.53383469 6.73684219-5.53383375 2.64661687 0 26.94736875-16.36090219 30.31578937-20.21052656 1.68421031-2.16541313 4.57142813-3.84962437 6.25563938-3.84962437s5.53383469-2.16541313 8.90225531-4.57142813c3.36842063-2.64661687 10.8270675-6.73684219 16.60150406-8.90225625 5.77443563-2.406015 11.06766938-4.81203 11.78947407-5.77443562 0.96240563-1.2030075 18.76691719-10.10526281 21.654135-10.8270675 0.72180469-0.24060187 6.0150375-2.64661687 12.030075-5.05263188 6.0150375-2.64661687 15.15789469-6.0150375 20.45112843-7.45864687 5.29323281-1.68421031 15.6390975-4.81203 22.8571425-6.97744313 15.6390975-4.81203 30.31578937-7.69924781 57.02255625-10.58646656 10.8270675-1.2030075 28.15037625-3.6090225 38.49624094-5.53383469 21.654135-4.09022531 55.09774406-3.6090225 77.71428563 0.72180469 8.66165437 1.44360937 23.33834625 3.84962437 32.4812025 5.05263187 37.53383437 4.57142813 65.68421063 10.8270675 76.27067718 16.60150313 2.406015 1.44360937 5.77443563 2.406015 7.69924782 2.40601594s10.58646656 3.12781969 19.48872187 7.218045c8.90225531 3.84962437 17.56390969 7.218045 19.48872188 7.218045s3.36842063 1.2030075 3.36842062 2.406015c0 1.44360937 2.16541313 2.406015 5.05263188 2.406015 2.64661687 0 4.33082719 0.96240563 3.6090225 1.92481218-0.72180469 1.2030075 4.81203 4.57142813 12.030075 7.69924782s12.99248156 6.49624031 12.99248156 7.45864687 1.92481219 2.16541313 4.33082719 3.12781969c2.16541313 0.72180469 7.45864688 3.6090225 11.30827031 6.25563844 4.09022531 2.64661687 8.90225531 5.53383469 10.8270675 6.49624125 1.92481219 0.72180469 12.27067688 8.18045156 22.85714344 16.12030031 28.39097719 21.41353406 71.21804531 64.24060125 91.66917281 91.66917281 9.86466187 13.2330825 18.76691719 25.2631575 19.72932281 26.46616594 4.33082719 5.77443563 17.80451156 29.59398469 29.11278281 51.00751875 7.45864688 14.67669188 17.08270687 37.29323344 17.08270594 40.42105219 0 1.92481219 1.2030075 3.6090225 2.406015 3.6090225 1.44360937 0 2.16541313 0.72180469 1.92481219 1.92481218-0.48120281 2.88721781 2.88721781 15.39849656 6.73684219 24.06015 1.92481219 4.33082719 3.36842063 10.58646656 3.36842156 13.71428625 0 3.36842063 0.96240563 6.0150375 2.16541312 6.0150375 1.44360937 0 2.406015 1.92481219 2.406015 4.33082719 0.24060187 8.90225531 4.57142813 33.92481188 6.49624032 36.81202969 3.6090225 5.77443563 4.09022531 17.56390969 4.33082718 83.00751937 0.24060187 46.91729344-0.48120281 66.88721813-2.64661593 70.97744344-1.68421031 3.12781969-4.57142813 14.43609-6.49624125 25.02255656-5.29323281 29.35338375-8.4210525 42.58646625-10.8270675 45.47368407-0.96240563 1.44360937-2.64661687 6.0150375-3.36842063 10.10526281-3.12781969 16.842105-32.24060156 75.06766875-53.41353375 106.8270675-17.56390969 26.22556406-18.52631625 27.42857156-44.75188031 57.50376-39.93984938 45.95488687-102.97744406 90.70676719-164.57142844 116.69172937-3.84962437 1.68421031-11.30827031 5.05263187-16.36090219 7.218045s-10.10526281 3.84962437-11.54887218 3.84962344-6.0150375 1.44360937-10.10526282 3.36842156c-10.10526281 4.09022531-26.466165 8.4210525-41.86466156 11.06766938-6.73684219 0.96240563-13.71428531 2.88721781-15.39849656 3.84962344-8.4210525 5.05263187-109.71428531 12.27067688-118.8571425 8.4210525z" fill="#FD757D" /><path d="M487.93985 985.02255594c-2.88721781-1.2030075-15.87969937-2.88721781-28.87218094-3.84962344-13.2330825-0.96240563-28.87218-3.36842063-34.8872175-5.05263188-6.0150375-1.92481219-14.19548906-3.36842063-18.52631625-3.36842062-4.09022531 0-8.18045156-0.96240563-8.90225531-2.16541406-0.96240563-1.2030075-6.0150375-2.88721781-11.78947406-3.84962344-10.8270675-1.44360937-16.842105-3.6090225-44.75187938-15.39849656-9.62406-4.09022531-19.24812-7.45864688-20.93233125-7.45864688-1.92481219 0-3.36842063-0.96240563-3.36842062-2.16541312s-3.12781969-2.88721781-7.218045-3.84962438-7.218045-2.406015-7.21804594-3.6090225c0-0.96240563-2.88721781-2.64661687-6.49624031-3.6090225-3.6090225-0.72180469-9.62406-3.84962437-13.71428532-6.73684219s-9.14285719-6.25563938-11.30827125-7.69924781c-25.02255656-14.91729281-30.79699219-18.52631625-35.60902218-23.81954906-3.36842063-3.36842063-6.97744406-6.25563938-8.18045157-6.25563938-2.88721781 0-4.09022531-0.96240563-31.03759312-26.94736781-11.78947406-10.8270675-21.17293219-21.17293219-21.17293313-22.85714344 0-1.44360937-1.2030075-3.6090225-2.88721781-4.57142812-1.68421031-1.2030075-2.16541313-0.48120281-0.96240562 1.68421031 1.92481219 3.6090225-2.64661687-1.68421031-9.62406-11.30827031-4.81203-6.73684219-16.12030031-21.41353406-20.93233125-27.42857156-1.68421031-1.92481219-4.33082719-6.73684219-6.25563938-10.34586469-2.64661687-4.81203-4.09022531-5.77443563-5.53383469-3.6090225s-1.92481219 1.68421031-1.68421031-1.68421125c0.72180469-8.66165437-3.12781969-20.69172938-7.69924781-23.57894719-2.64661687-1.68421031-4.57142813-4.09022531-4.57142906-5.77443562 0-2.406015 25.98496219-3.12781969 123.42857156-3.36842157 67.60902281-0.24060187 123.6691725-0.24060187 124.39097719-0.24060093 4.81203 0.72180469 26.94736875 9.86466187 32.00000062 13.2330825 3.36842063 2.16541313 7.93984969 4.09022531 10.10526281 4.09022531s6.49624031 1.68421031 9.62406 3.84962437 6.73684219 3.12781969 8.18045157 2.406015c1.2030075-0.96240563 6.0150375 0.72180469 10.8270675 3.36842063 4.57142813 2.88721781 9.86466187 4.81203 11.54887218 4.57142906 3.6090225-0.72180469 15.87969937 2.16541313 21.17293219 4.81203 1.92481219 0.96240563 24.54135375 1.92481219 50.04511313 2.16541313 38.97744375 0.24060187 46.19548875-0.24060187 46.19548875-3.12781969 0-1.92481219 1.68421031-3.6090225 3.84962343-3.6090225 3.36842063 0 3.6090225 0.48120281 0.72180469 4.09022625-3.12781969 3.84962437-3.12781969 3.84962437 2.64661688 0 3.12781969-2.16541313 9.38345906-4.09022531 13.47368437-4.09022625s10.58646656-1.44360937 14.19548813-3.36842063c5.77443563-2.88721781 6.0150375-3.6090225 2.16541406-4.57142906-2.64661687-0.48120281-0.48120281-0.72180469 4.57142812 0 7.45864688 0.72180469 14.19548906-1.68421031 34.16541375-11.30827031l24.78195469-12.030075h122.46616594c116.21052656 0.24060187 122.70676687 0.48120281 126.31578937 4.81203 3.6090225 4.09022531 3.6090225 4.57142813-0.72180468 5.53383469-6.0150375 1.68421031-8.66165437 8.66165437-4.33082719 11.54887218 2.64661687 1.68421031 2.16541313 2.16541313-1.44360844 2.16541313-3.84962437 0-4.09022531 0.48120281-1.2030075 2.406015 3.12781969 1.92481219 2.406015 4.09022531-3.36842156 15.63909844-3.84962437 7.218045-7.69924781 13.2330825-8.66165438 13.2330825s-7.69924781 7.45864688-14.91729281 16.60150406c-7.45864688 9.38345906-13.95488719 16.36090219-14.43609 15.87969844-0.48120281-0.72180469-4.81203 3.36842063-9.38345906 8.90225625-30.07518844 36.81202969-91.42857188 79.157895-150.13533844 103.93984968-3.84962437 1.68421031-11.30827031 5.05263187-16.36090219 7.218045s-10.10526281 3.84962437-11.54887218 3.84962344-6.0150375 1.44360937-10.10526282 3.36842156c-10.10526281 4.09022531-26.466165 8.4210525-41.86466156 11.06766938-6.73684219 0.96240563-13.71428531 2.88721781-15.39849656 3.84962344-8.4210525 5.05263187-109.71428531 12.27067688-118.8571425 8.4210525z" fill="#FDA7A2" /><path d="M486.01503781 774.7368425c0.48120281-0.96240563-3.84962437-1.2030075-9.86466187-0.72180469-8.18045156 0.72180469-11.06766938 0.24060187-12.030075-2.64661687-1.2030075-2.64661687-3.36842063-3.36842063-8.66165438-2.16541313-4.57142813 0.72180469-7.218045 0.24060187-7.218045-1.2030075 0-1.68421031-2.406015-2.16541313-6.25563937-1.2030075-4.09022531 1.2030075-5.53383469 0.72180469-4.57142813-0.96240656 0.96240563-1.44360937-1.44360937-2.406015-5.77443656-2.406015s-8.18045156-1.68421031-9.62406-4.09022531-2.64661687-3.12781969-2.64661687-1.44360938-1.68421031 2.406015-3.6090225 1.68421125c-1.92481219-0.96240563-2.88721781-2.406015-2.16541313-3.60902343s0.48120281-2.16541313-0.72180469-2.406015c-0.96240563 0-4.33082719-0.48120281-7.45864687-0.72180375-2.88721781-0.48120281-7.69924781-2.88721781-10.34586469-5.77443657s-5.53383469-5.29323281-6.49624031-5.53383469c-4.33082719-0.48120281-10.58646656-1.92481219-11.30827032-2.64661593-0.48120281-0.48120281-6.0150375-5.05263187-12.27067687-10.34586469-59.66917313-49.80451125-89.9849625-95.03759437-104.4210525-155.18797031-6.97744406-29.11278187-7.69924781-36.09022594-7.45864688-61.59398531 0-25.50375938 10.10526281-83.24812031 14.67669188-84.69172876 1.44360937-0.48120281 2.406015-3.36842063 2.406015-6.25563937s4.81203-14.91729281 10.8270675-26.466165c61.11278156-120.06015 197.05263188-175.157895 323.36842125-130.88721844 39.69924844 13.71428531 71.21804531 34.40601469 102.73684219 67.36842094 35.84962406 37.29323344 57.50375906 79.39849594 68.33082656 131.84962406 6.97744406 33.92481188 5.77443563 82.04511281-3.12781875 113.08270688-18.76691719 64.72180406-52.69172906 114.52631625-102.73684219 150.37594031-7.218045 5.29323281-14.19548906 10.8270675-15.15789468 12.51127781s-4.09022531 3.12781969-6.73684219 3.12781969-5.29323281 1.68421031-6.0150375 3.6090225c-0.96240563 1.92481219-2.406015 3.12781969-3.36842156 2.406015s-3.12781969 0.48120281-4.81203 2.406015c-1.44360937 1.68421031-4.57142813 2.64661687-6.49624032 1.92481219-2.406015-0.96240563-3.36842063-0.48120281-2.16541406 1.2030075 1.92481219 3.12781969-6.97744406 6.25563938-10.8270675 3.84962344-1.68421031-0.96240563-2.16541313-0.72180469-1.44360937 0.72180468 0.96240563 1.44360937 0 3.36842063-2.16541313 4.09022625-2.406015 0.96240563-3.12781969 0.48120281-1.92481219-1.68421125 0.96240563-1.44360937-0.48120281-0.96240563-3.12781968 1.44360938-5.05263187 4.33082719-9.14285719 5.53383469-6.73684219 1.68421031 0.72180469-1.2030075-1.68421031-1.2030075-6.0150375 0.24060188-3.84962437 1.44360937-6.49624031 3.6090225-5.77443563 5.05263093 0.96240563 1.44360937-1.68421031 1.68421031-6.73684219 0.72180469-6.0150375-1.2030075-9.14285719-0.48120281-11.30827031 2.16541406-1.92481219 2.16541313-5.05263187 3.84962437-7.21804594 3.84962344-3.36842063 0-3.36842063-0.48120281-0.24060093-2.406015 3.6090225-2.406015-2.88721781-1.68421031-15.39849657 1.68421125-7.45864688 2.16541313-61.35338344 2.16541313-59.90977406 0z m173.95488657-243.4887225c2.64661687-2.406015 4.81203-5.77443563 4.81203093-7.69924781s1.2030075-2.64661687 2.64661594-1.92481219c1.68421031 1.2030075 1.92481219-1.2030075 0.72180469-7.69924781-0.96240563-5.05263187-1.92481219-11.06766938-2.16541313-13.47368438s-2.16541313-6.0150375-4.33082719-8.18045156c-3.36842063-3.36842063-10.58646656-3.84962437-57.98496281-3.36842062-36.57142875 0.48120281-55.81954875-0.24060187-59.18796937-2.16541313-4.81203-2.64661687-5.05263187-3.84962437-4.81203094-79.39849687 0.24060187-53.89473656-0.48120281-78.19548844-2.406015-81.80451094-3.6090225-6.49624031-18.0451125-12.75187969-24.78195469-10.58646656-2.88721781 0.96240563-8.18045156 3.6090225-11.78947312 6.25563937l-6.73684219 4.57142813v191.51879718l8.4210525 8.66165438 8.66165437 8.90225531 69.05263125 0.48120375c38.01503719 0.48120281 70.25563875 0.72180469 71.93985 0.48120281 1.68421031 0 5.05263187-1.92481219 7.93984875-4.57142906z" fill="#FDA7A2" /><path d="M465.56390938 770.40601531c-48.84210563-9.86466187-92.87218031-32.72180437-128.96240532-67.12782-23.33834625-22.13533875-40.90225594-45.47368406-54.37594031-72.18045093-19.96992469-39.93984938-26.466165-64.48120312-27.90977438-109.47368438-1.2030075-29.83458656-0.72180469-37.05263156 4.81203-63.75939844 3.36842063-16.60150406 7.45864688-30.31578937 8.66165438-30.79699218 1.44360937-0.48120281 2.406015-3.36842063 2.406015-6.25563938s4.81203-14.91729281 10.8270675-26.466165c61.11278156-120.06015 197.05263188-175.157895 323.36842125-130.88721844 39.69924844 13.71428531 71.21804531 34.40601469 102.73684219 67.36842094 35.84962406 37.29323344 57.50375906 79.39849594 68.33082656 131.84962406 6.97744406 33.92481188 5.77443563 82.04511281-3.12781875 113.08270688-19.96992469 69.29323313-56.54135344 120.30075187-112.36090312 156.63157875-57.74436094 37.53383437-128.72180438 51.48872156-194.406015 38.01503812z m196.57142906-241.56391031c11.30827031-11.78947406 9.62406-30.07518844-3.36842157-38.73684187-5.53383469-3.6090225-11.78947406-3.84962437-58.46616468-2.64661688-33.44360906 0.72180469-53.89473656 0.48120281-56.54135344-1.2030075-4.09022531-2.16541313-4.33082719-7.218045-3.84962438-78.91729312 0.48120281-85.65413531 0.48120281-86.13533813-15.6390975-91.42857094-6.97744406-2.16541313-9.86466187-1.92481219-16.842105 1.2030075-10.58646656 5.05263187-12.99248156 7.93984969-13.47368437 16.842105-0.24060187 4.09022531-0.48120281 46.91729344-0.24060188 95.27819531l0.24060188 88.06015031 8.4210525 8.66165438 8.66165437 8.90225531 67.84962375 0.48120375c37.29323344 0.48120281 69.77443594 0.72180469 72.18045094 0.72180375 2.16541313 0.24060187 7.218045-3.12781969 11.06766938-7.218045z" fill="#FED8D9" /><path d="M465.56390938 770.40601531c-48.84210563-9.86466187-92.87218031-32.72180437-128.96240532-67.12782-43.06766906-40.90225594-69.77443594-90.46616531-80.3609025-149.17293187-0.48120281-3.36842063-1.44360937-19.48872188-2.16541312-36.09022594-0.72180469-25.50375938 0-34.64661656 5.05263093-60.15037594 3.6090225-16.60150406 7.45864688-30.31578937 8.66165438-30.79699218 1.44360937-0.48120281 2.406015-3.36842063 2.406015-6.25563938s4.81203-14.91729281 10.8270675-26.466165c61.11278156-120.06015 197.05263188-175.157895 323.36842125-130.88721844 39.69924844 13.71428531 71.21804531 34.40601469 102.73684219 67.36842094 35.84962406 37.29323344 57.74436094 79.63909781 68.33082656 131.60902313 4.09022531 20.21052656 4.57142813 25.50375938 1.92481219 26.94736781-2.406015 1.68421031-2.406015 2.16541313 0.48120281 2.16541406 3.12781969 0 3.12781969 0.24060187 0 2.406015-1.92481219 1.2030075-2.406015 2.406015-0.96240562 2.406015 1.92481219 0 2.64661687 8.4210525 2.16541312 28.39097719-1.68421031 80.60150344-47.87969906 161.20300781-119.09774438 207.6390975-57.74436094 37.53383437-128.72180438 51.48872156-194.406015 38.01503812z m196.81203093-241.56391031c10.10526281-10.34586469 11.30827031-19.48872188 4.33082625-30.0751875-3.12781969-4.57142813-8.90225531-9.38345906-12.99248062-10.8270675-4.81203-1.44360937-25.2631575-1.68421031-56.3007525-0.72180469-32.48120344 1.2030075-50.28571406 0.96240563-53.41353375-0.72180468-4.57142813-2.406015-4.57142813-5.29323281-4.09022532-79.157895 0.48120281-67.12782 0-77.47368375-3.36842062-82.7669175-5.29323281-7.93984969-18.0451125-12.030075-27.18797063-8.66165344-3.84962437 1.44360937-6.97744406 2.406015-7.218045 1.92481219 0-0.48120281-1.92481219 1.2030075-4.33082718 3.36842062-3.84962437 3.84962437-4.09022531 12.27067688-4.09022532 99.6090225 0 62.79699281 0.72180469 96.24060188 2.406015 98.16541406 1.44360937 1.68421031 1.68421031 4.09022531 0.72180469 5.29323282s-0.72180469 1.44360937 0.24060188 0.72180468c1.2030075-0.96240563 4.81203 0.96240563 8.18045062 4.09022532 6.25563938 5.77443563 6.25563938 5.77443563 73.86466219 6.25563937 37.05263156 0.48120281 69.533835 0.72180469 71.93984906 0.72180375 2.16541313 0.24060187 7.45864688-3.12781969 11.30827125-7.218045z" fill="#FFFFFF" /></svg>