<?xml version="1.0" standalone="no"?><!DOCTYPE svg PUBLIC "-//W3C//DTD SVG 1.1//EN" "http://www.w3.org/Graphics/SVG/1.1/DTD/svg11.dtd"><svg class="icon" width="64px" height="64.00px" viewBox="0 0 1024 1024" version="1.1" xmlns="http://www.w3.org/2000/svg"><path d="M675.968 589.3376a168.576 168.576 0 0 1-5.8112-9.4464c-1.2544 2.2016-2.56 4.4544-4.0448 6.7072a248.7296 248.7296 0 0 1-71.68 71.68c-2.2528 1.4336-4.352 2.7136-6.3744 3.84 2.0736 1.1776 4.0192 2.3296 5.888 3.5328a231.0144 231.0144 0 0 1 40.1664 32.5632 228.2496 228.2496 0 0 1 34.1248 42.752l1.9456 3.328a141.568 141.568 0 0 1 3.2-5.376 231.04 231.04 0 0 1 32.8704-40.704 225.9712 225.9712 0 0 1 46.08-36.096 222.848 222.848 0 0 1-46.08-36.096 240.0512 240.0512 0 0 1-30.2848-36.6848z" fill="#429EFD" /><path d="M512 0a512 512 0 1 0 512 512A512 512 0 0 0 512 0z m-56.32 212.9152c127.0784 0 230.4 41.9328 230.4 93.5168 0 33.4848-44.288 64.5376-115.584 81.1264a539.9552 539.9552 0 0 1-229.76 0c-71.3216-16.5888-115.6096-47.6416-115.6096-81.1264 0.128-51.584 103.5264-93.5168 230.6816-93.5168z m32.4352 527.36a1.2288 1.2288 0 0 1-1.1008 0.64h-31.616c-127.232 0-230.7584-41.9072-230.7584-93.44v-79.36a1.28 1.28 0 0 1 2.56 0c0 50.944 100.224 90.88 228.1984 90.88h14.464a1.28 1.28 0 0 1 1.3056 1.2544 153.6 153.6 0 0 0 16.9728 78.848 1.28 1.28 0 0 1 0.0512 1.0496z m21.9648-196.1984a151.2448 151.2448 0 0 0-36.4544 80.6912 1.28 1.28 0 0 1-1.28 1.1776h-16.7168c-127.0784 0-230.4-41.9584-230.4-93.5424v-79.5136a1.28 1.28 0 0 1 2.56 0c0 24.7552 23.5776 48 66.3808 65.408a442.0352 442.0352 0 0 0 161.4336 27.136 450.8928 450.8928 0 0 0 53.2992-3.4304 1.3824 1.3824 0 0 1 1.2544 0.6912 1.2288 1.2288 0 0 1 0 1.2032z m-49.6896-29.056H455.68c-127.0784 0-230.4-42.1376-230.4-93.9264v-79.5392a1.28 1.28 0 0 1 2.56 0c0 49.3056 104.96 90.9824 229.12 90.9824 122.5472 0 224.7936-39.7824 227.84-88.6528a1.3056 1.3056 0 0 1 1.28-1.2032 1.28 1.28 0 0 1 1.2288 1.28v83.6864a40.4992 40.4992 0 0 1-15.36 32.768 1.1008 1.1008 0 0 1-0.7936 0.2816 206.1824 206.1824 0 0 0-130.304 47.6928 1.28 1.28 0 0 1-0.5376 0.2304 393.4464 393.4464 0 0 1-79.8464 6.272z m323.5584 257.3056a159.4368 159.4368 0 1 1 0-225.6128 159.6928 159.6928 0 0 1 0.0768 225.4848z" fill="#429EFD" /></svg>