<?xml version="1.0" standalone="no"?><!DOCTYPE svg PUBLIC "-//W3C//DTD SVG 1.1//EN" "http://www.w3.org/Graphics/SVG/1.1/DTD/svg11.dtd"><svg class="icon" width="64px" height="64.00px" viewBox="0 0 1024 1024" version="1.1" xmlns="http://www.w3.org/2000/svg"><path d="M646.528 516.7616H385.9712a20.5824 20.5824 0 0 0 0 41.1648h260.5568a20.5824 20.5824 0 0 0 0-41.1648z" fill="#F46B6B" /><path d="M509.44 626.5344h-123.4176a20.5824 20.5824 0 1 0 0 41.1392H509.44a20.5824 20.5824 0 1 0 0-41.1392z" fill="#F46B6B" /><path d="M385.9712 448h260.5568a20.48 20.48 0 1 0 0-40.96H385.9712a20.48 20.48 0 1 0 0 40.96z" fill="#F46B6B" /><path d="M512 0a512 512 0 1 0 512 512A512 512 0 0 0 512 0z m-105.3184 263.1168a20.48 20.48 0 0 1 20.48-20.48h178.3296a20.48 20.48 0 0 1 20.48 20.48v13.7728a20.48 20.48 0 0 1-20.48 20.48h-178.3296a20.48 20.48 0 0 1-20.48-20.48z m356.5824 459.392a41.1392 41.1392 0 0 1-40.96 41.1392H310.7328a41.1648 41.1648 0 0 1-41.1392-41.1392V310.9376a41.1392 41.1392 0 0 1 41.1392-41.1136h68.6336v13.696a41.1648 41.1648 0 0 0 41.1392 41.1392h192a41.216 41.216 0 0 0 41.1648-41.1392v-13.696h68.6336a41.088 41.088 0 0 1 40.96 41.1136z" fill="#F46B6B" /></svg>