<?xml version="1.0" standalone="no"?><!DOCTYPE svg PUBLIC "-//W3C//DTD SVG 1.1//EN" "http://www.w3.org/Graphics/SVG/1.1/DTD/svg11.dtd"><svg class="icon" width="64px" height="64.00px" viewBox="0 0 1024 1024" version="1.1" xmlns="http://www.w3.org/2000/svg"><path d="M614.60053333 560.96213333L429.56266667 560.96213333c-171.96053333 0-311.81546667 139.9872-311.81546667 312.1088l0 18.5184c0 89.9776 137.61813333 89.9776 311.81546667 89.9776l185.03893333 0c167.34293333 0 311.8464 0 311.8464-89.9776l0-18.5184C926.448 700.9824 786.5568 560.96213333 614.60053333 560.96213333L614.60053333 560.96213333zM512.83733333 537.14026667c136.16853333 0 246.95893333-110.94933333 246.95893334-247.3536 0-136.39786667-110.7904-247.35466667-246.95893334-247.35466667-136.16426667 0-246.96533333 110.98026667-246.96533333 247.36C265.872 426.16106667 376.67306667 537.14026667 512.83733333 537.14026667L512.83733333 537.14026667zM512.83733333 537.14026667" fill="#bfbfbf" /></svg>