<?xml version="1.0" standalone="no"?><!DOCTYPE svg PUBLIC "-//W3C//DTD SVG 1.1//EN" "http://www.w3.org/Graphics/SVG/1.1/DTD/svg11.dtd"><svg class="icon" width="64px" height="64.00px" viewBox="0 0 1024 1024" version="1.1" xmlns="http://www.w3.org/2000/svg"><path d="M513.03298267 603.09108767m-388.042105 0a388.042105 388.042105 0 1 0 776.08421 0 388.042105 388.042105 0 1 0-776.08421 0Z" fill="#FFFFFF" /><path d="M954.05361367 316.37108767a481.118316 481.118316 0 0 0-103.477894-153.222737A480.525474 480.525474 0 0 0 509.58371967 21.72856167 480.525474 480.525474 0 0 0 168.64561367 163.09445567 483.705263 483.705263 0 0 0 65.16771967 316.31719267a497.556211 497.556211 0 0 0-36.486737 187.715369 480.525474 480.525474 0 0 0 141.419789 340.992 480.525474 480.525474 0 0 0 340.992 141.365894 480.525474 480.525474 0 0 0 340.992-141.365894 480.525474 480.525474 0 0 0 141.41979-340.992 482.034526 482.034526 0 0 0-39.450948-187.715369z m-538.839579-59.28421c81.003789-32.175158 172.678737-16.815158 239.831579 25.923368l32.175158-51.900632 62.625684 181.786948h-174.187789l38.211368-62.625684c-45.810526-33.576421-109.945263-44.301474-171.115789-21.396211a180.547368 180.547368 0 0 0-113.071158 197.039158H251.75129867c-12.180211-113.017263 52.008421-226.088421 163.462736-268.826947z m195.637895 493.406315c-81.003789 32.121263-163.462737 19.887158-230.723368-22.851368l-33.576421 53.355789-79.440842-186.314105 187.877052 10.725053s-25.977263 42.738526-35.139368 56.481684a182.703158 182.703158 0 0 0 161.899789 15.306105 180.547368 180.547368 0 0 0 113.071158-197.093052h77.877895c13.797053 114.634105-50.337684 227.651368-161.845895 270.443789v-0.053895z" fill="#FFAA00" /></svg>