<?xml version="1.0" standalone="no"?><!DOCTYPE svg PUBLIC "-//W3C//DTD SVG 1.1//EN" "http://www.w3.org/Graphics/SVG/1.1/DTD/svg11.dtd"><svg class="icon" width="64px" height="64.00px" viewBox="0 0 1024 1024" version="1.1" xmlns="http://www.w3.org/2000/svg"><path d="M193.536 58.368c-4.096 1.024-9.216 2.048-13.312 3.072 5.12-1.024 9.216-2.048 13.312-3.072zM910.336 470.016s0-1.024 0 0c-1.024-2.048-1.024-2.048-1.024-3.072 0 1.024 0 1.024 1.024 3.072 0-1.024 0 0 0 0z" fill="#FDF9FB" /><path d="M903.168 509.952c-6.144 7.168-14.336 12.288-24.576 14.336L563.2 581.632l-52.224 9.216c22.528-4.096 32.768-30.72 18.432-49.152l-1.024-1.024-129.024-153.6-33.792-40.96-187.392-221.184c-21.504-24.576-62.464-15.36-70.656 15.36 4.096-23.552 17.408-44.032 33.792-58.368l3.072-3.072 3.072-3.072 15.36-9.216c3.072-1.024 5.12-2.048 8.192-3.072s5.12-2.048 8.192-3.072c4.096-1.024 8.192-2.048 13.312-3.072 11.264-1.024 21.504-1.024 32.768 1.024 6.144 2.048 10.24 3.072 14.336 4.096 6.144 3.072 13.312 5.12 19.456 9.216l169.984 98.304 439.296 253.952c4.096 2.048 8.192 5.12 12.288 8.192 2.048 1.024 3.072 3.072 5.12 4.096h1.024l3.072 3.072 3.072 3.072 2.048 2.048c1.024 1.024 2.048 2.048 3.072 4.096 1.024 1.024 2.048 3.072 3.072 5.12 1.024 1.024 2.048 2.048 2.048 4.096 2.048 3.072 4.096 7.168 6.144 11.264 0 1.024 1.024 1.024 1.024 2.048v2.048c0 1.024 1.024 2.048 1.024 3.072v1.024c3.072 11.264 0 23.552-8.192 32.768z" fill="#EF8934" /><path d="M910.336 470.016s0-1.024 0 0c0-1.024 0 0 0 0z" fill="#EA342B" /><path d="M918.528 517.12c0 2.048 0 4.096-1.024 6.144 0 2.048 0 3.072-1.024 5.12 0 2.048-1.024 5.12-1.024 7.168 0 2.048-1.024 3.072-1.024 4.096-1.024 3.072-2.048 5.12-2.048 8.192-1.024 2.048-1.024 3.072-2.048 5.12v1.024c-1.024 2.048-1.024 3.072-2.048 5.12-1.024 1.024-1.024 2.048-2.048 4.096s-2.048 4.096-3.072 5.12c-1.024 2.048-2.048 3.072-3.072 5.12-1.024 1.024-2.048 2.048-2.048 3.072-1.024 1.024-2.048 3.072-3.072 4.096-2.048 3.072-5.12 6.144-8.192 8.192-2.048 2.048-3.072 3.072-5.12 4.096-4.096 3.072-8.192 5.12-12.288 8.192L673.792 712.704 259.072 952.32c-16.384 9.216-33.792 14.336-51.2 14.336h-7.168c-2.048 0-5.12-1.024-7.168-1.024-24.576-4.096-39.936-30.72-30.72-54.272l99.328-275.456 18.432-50.176c-8.192 22.528 11.264 45.056 34.816 40.96l197.632-35.84 52.224-9.216L880.64 524.288c10.24-2.048 18.432-7.168 24.576-14.336 8.192-9.216 11.264-22.528 8.192-34.816v-1.024c0-1.024-1.024-2.048-1.024-3.072 4.096 15.36 7.168 30.72 6.144 46.08z" fill="#BD34F6" /><path d="M510.976 590.848l-197.632 35.84c-23.552 4.096-41.984-18.432-34.816-40.96l68.608-189.44c8.192-22.528 36.864-27.648 52.224-9.216l130.048 153.6 1.024 1.024c13.312 18.432 4.096 45.056-19.456 49.152z" fill="#FFFFFF" /><path d="M399.36 387.072c-15.36-18.432-44.032-12.288-52.224 9.216l-68.608 189.44-18.432 50.176L161.792 911.36c-8.192 23.552 6.144 50.176 30.72 54.272-16.384-2.048-30.72-8.192-44.032-17.408-2.048-1.024-3.072-2.048-5.12-4.096s-5.12-4.096-7.168-6.144c-1.024-1.024-2.048-2.048-4.096-3.072-1.024-1.024-2.048-2.048-3.072-4.096-1.024-1.024-2.048-2.048-2.048-3.072l-3.072-3.072c-2.048-3.072-4.096-6.144-6.144-10.24-1.024-1.024-1.024-2.048-2.048-4.096-4.096-8.192-7.168-17.408-9.216-27.648 0-2.048-1.024-3.072-1.024-5.12s-1.024-5.12-1.024-8.192V159.744v-7.168c0-3.072 1.024-6.144 1.024-9.216 0-1.024 0-2.048 1.024-4.096 8.192-30.72 49.152-39.936 70.656-15.36l187.392 221.184 34.816 41.984z" fill="#EA3228" /></svg>