<?xml version="1.0" standalone="no"?><!DOCTYPE svg PUBLIC "-//W3C//DTD SVG 1.1//EN" "http://www.w3.org/Graphics/SVG/1.1/DTD/svg11.dtd"><svg class="icon" width="64px" height="64.00px" viewBox="0 0 1024 1024" version="1.1" xmlns="http://www.w3.org/2000/svg"><path d="M471.86804937 497.53703188c0 32.42554969 0.29332313 64.90443094-0.05333156 97.32998062-0.66664406 61.83787031-55.73141344 97.86329625-112.609455 73.86412219-24.63915094-10.39964156-42.39853969-27.01240313-43.99848469-55.27809563-1.65327656-28.61234813 15.19947656-45.97174969 38.42534344-59.11796437 12.18624656-6.93309469 26.45242219-12.9328875 34.6654725-23.17253438 8.69303437-10.7729625 6.47977688-28.10569875 1.70660813-36.18542062-4.90649812-8.373045-12.29290969-15.41280281-22.61255438-17.83938563a31.78557187 31.78557187 0 0 0-10.55963625-0.53331468c-63.19782281 6.58644-119.382555 74.05078313-115.75601343 137.08861125 4.58650875 80.15723906 71.41087406 136.98194813 158.82119625 135.03534843 80.37056531-1.75993969 143.99504063-63.94446375 144.55502156-141.86178 0.42665156-60.74457469 2.47991437-121.59581156-0.58664719-182.18039156-2.98656375-58.58464875 43.99848469-92.39681719 100.68986531-80.82388312 28.79900813 5.86646437 52.66485281 28.692345 55.94473969 53.51815687 3.59987625 27.14573156-9.01302281 48.37166719-37.33204688 64.42444781-12.95955375 7.33308094-28.23902719 13.43953687-36.71873531 24.53248782-7.33308094 9.51967219-9.06635437 27.38572313-3.8132025 36.34541531 1.19995875 1.99993125 2.66657437 3.86653313 4.3731825 5.49314437 9.70633219 9.70633219 24.10583625 13.38620531 37.51870781 10.34631 75.22407562-16.98608156 124.04906062-88.61028094 107.64962532-158.66120156-17.83938562-76.18404281-95.35671563-124.07572594-176.47392094-110.42286375-60.21125906 10.13298469-128.42224312 62.557845-124.02239531 145.72831406 1.46661656 27.38572313 0.23999156 54.90477562 0.18666094 82.37049656M513.65327656 32.13972875c250.23138094-3.65320781 490.00978875 210.12609563 473.95700813 506.59588406a477.47688656 477.47688656 0 0 1-509.82243938 448.1178975C242.40928625 973.52063656 15.67042906 770.48763031 32.94983375 476.65775094 47.48266625 229.57292844 258.94205 26.53992125 513.65327656 32.13972875" fill="#6A7BE9" /></svg>