<?xml version="1.0" standalone="no"?><!DOCTYPE svg PUBLIC "-//W3C//DTD SVG 1.1//EN" "http://www.w3.org/Graphics/SVG/1.1/DTD/svg11.dtd"><svg class="icon" width="64px" height="64.00px" viewBox="0 0 1024 1024" version="1.1" xmlns="http://www.w3.org/2000/svg"><path d="M782.336 633.856c-10.752 39.972571-24.027429 59.392-60.928 66.56 0 0-95.707429 7.204571-195.584 7.204571-110.08 0-225.792-7.204571-225.792-7.204571-37.376-4.608-54.784-29.184-62.939429-66.56 0 0-10.752-64.512-10.752-128.512 0-61.952 10.752-123.867429 10.752-123.867429 10.752-38.4 20.955429-61.988571 62.902858-66.596571 0 0 103.972571-5.632 208.932571-5.632 106.020571 0 212.48 5.632 212.48 5.632 39.972571 4.608 49.188571 26.660571 60.928 66.596571 0 0 10.752 67.072 10.752 132.059429 0 60.928-10.752 120.32-10.752 120.32M512 0C228.864 0 0 228.900571 0 512c0 282.624 229.412571 512 512 512 282.624 0 512-229.376 512-512 0-283.099429-229.376-512-512-512" fill="#ffffff" /><path d="M449.462857 610.230857l163.84-105.947428-163.84-106.057143z" fill="#ffffff" /></svg>