<?xml version="1.0" standalone="no"?><!DOCTYPE svg PUBLIC "-//W3C//DTD SVG 1.1//EN" "http://www.w3.org/Graphics/SVG/1.1/DTD/svg11.dtd"><svg t="1640671272582" class="icon" viewBox="0 0 1024 1024" version="1.1" xmlns="http://www.w3.org/2000/svg" p-id="3746" xmlns:xlink="http://www.w3.org/1999/xlink" width="200" height="200"><defs><style type="text/css"></style></defs><path d="M516.8 314.2v170.4l83.5-85.2zM516.8 576.5v170.3l83.5-85.2z" fill="#1296db" p-id="3747"></path><path d="M512 64C213.3 64 64 213.3 64 512s149.3 448 448 448 448-149.3 448-448S810.7 64 512 64z m143 357.6L548.3 530.5 655 639.4c6 6.1 8.6 14.3 7.8 22.2 0.8 7.9-1.8 16.2-7.8 22.2L511.6 830.3c-10.6 10.8-27.7 10.8-38.2 0-2-2-3.6-4.3-4.8-6.7-3.6-4.7-5.8-10.6-5.8-17V617.9l-72.9 74.4c-10.6 10.8-27.7 10.8-38.2 0-10.6-10.8-10.6-28.3 0-39.1l111.1-113.4V535L351.7 421.6c-10.6-10.8-10.6-28.3 0-39 10.6-10.8 27.7-10.8 38.2 0l72.9 74.4V254.5c0-6.4 2.1-12.3 5.7-17 1.2-2.4 2.9-4.7 4.8-6.7 10.6-10.7 27.7-10.7 38.2 0L655 377.1c6 6.1 8.6 14.3 7.8 22.2 0.7 8-1.9 16.2-7.8 22.3z" fill="#1296db" p-id="3748"></path></svg>