<svg t="1669605246656" class="icon" viewBox="0 0 1024 1024" version="1.1" xmlns="http://www.w3.org/2000/svg" p-id="29773" width="200" height="200"><path d="M657.4 900.5V638c0-20.4-40-37.1-88.8-37.1H311.1c-48.8 0-88.8 16.7-88.8 37.1v262.6h435.1z" fill="#96D34F" p-id="29774"></path><path d="M544.4 245H340.2c-14.7 0-26.6 11.9-26.6 26.6 0 14.7 11.9 26.6 26.6 26.6h204.2c14.7 0 26.6-11.9 26.6-26.6 0-14.6-11.9-26.6-26.6-26.6z" fill="#4D5DA8" p-id="29775"></path><path d="M899.3 245.7l-88.2-84.1c-10.6-10.2-27.5-9.8-37.6 0.9-10.1 10.6-9.8 27.5 0.9 37.7l62.8 59.9-39.2 24c-12.5 7.7-16.5 24.1-8.8 36.6 5 8.2 13.8 12.7 22.7 12.7 4.7 0 9.5-1.3 13.9-3.9l28.6-17.5v484.3c0 11.8-9.6 21.4-21.4 21.4s-21.4-9.6-21.4-21.4V405.5c0-14.7-11.9-26.6-26.5-26.6l-80.4-0.3V219.7c0-67.7-55.1-122.8-122.8-122.8h-279c-67.7 0-122.8 55.1-122.8 122.8v654.2h-36.7c-14.7 0-26.6 11.9-26.6 26.6 0 14.7 11.9 26.6 26.6 26.6H741.1c14.7 0 26.6-11.9 26.6-26.6 0-14.7-11.9-26.6-26.6-26.6h-36.7V431.8l53.6 0.2v364.3c0 41.2 33.5 74.7 74.7 74.7s74.7-33.5 74.7-74.7V265c0.1-7.3-2.9-14.2-8.1-19.3zM233.4 873.9V219.7c0-38.3 31.2-69.5 69.5-69.5h278.8c38.3 0 69.5 31.2 69.5 69.5v654.2H233.4z" fill="#4D5DA8" p-id="29776"></path></svg>