<svg t="1670551955000" class="icon" viewBox="0 0 1109 1024" version="1.1" xmlns="http://www.w3.org/2000/svg" p-id="6549" width="200" height="200"><path d="M1066.666667 341.333333h-42.666667v405.333334a149.333333 149.333333 0 0 1-298.666667 0V298.666667a42.666667 42.666667 0 0 0-42.666666-42.666667v682.666667h85.333333v85.333333H0v-85.333333h85.333333V85.333333a85.333333 85.333333 0 0 1 85.333334-85.333333h426.666666a85.333333 85.333333 0 0 1 85.333334 85.333333v85.333334a128 128 0 0 1 128 128v448a64 64 0 0 0 128 0V341.333333h-42.666667a42.666667 42.666667 0 0 1-42.666667-42.666666V213.333333a42.666667 42.666667 0 0 1 42.666667-42.666666v-21.333334a21.333333 21.333333 0 0 1 42.666667 0V170.666667h85.333333v-21.333334a21.333333 21.333333 0 0 1 42.666667 0V170.666667a42.666667 42.666667 0 0 1 42.666666 42.666666v85.333334a42.666667 42.666667 0 0 1-42.666666 42.666666zM341.333333 810.666667l170.666667-170.666667H384v-128l-128 170.666667h128z m256-682.666667H170.666667v256h426.666666V128z m426.666667 85.333333h-85.333333a42.666667 42.666667 0 0 0 0 85.333334h85.333333a42.666667 42.666667 0 0 0 0-85.333334z" p-id="6550" fill="#36ab60"></path></svg>