<?xml version="1.0" standalone="no"?><!DOCTYPE svg PUBLIC "-//W3C//DTD SVG 1.1//EN" "http://www.w3.org/Graphics/SVG/1.1/DTD/svg11.dtd"><svg t="1655260034724" class="icon" viewBox="0 0 1024 1024" version="1.1" xmlns="http://www.w3.org/2000/svg" p-id="3255" xmlns:xlink="http://www.w3.org/1999/xlink" width="200" height="200"><defs><style type="text/css">@font-face { font-family: feedback-iconfont; src: url("//at.alicdn.com/t/font_1031158_u69w8yhxdu.woff2?t=1630033759944") format("woff2"), url("//at.alicdn.com/t/font_1031158_u69w8yhxdu.woff?t=1630033759944") format("woff"), url("//at.alicdn.com/t/font_1031158_u69w8yhxdu.ttf?t=1630033759944") format("truetype"); }
</style></defs><path d="M571.5 782.3H247.4c-11.6 0-21-9.4-21-21V188.2c0-11.6 9.4-21 21-21h324.1c11.6 0 21 9.4 21 21v573.1c0.1 11.6-9.4 21-21 21z" fill="#54FEBD" p-id="3256"></path><path d="M651.1 856.8H270.4c-8.2 0-14.8-6.6-14.8-14.8V211.1c0-8.2 6.6-14.8 14.8-14.8h380.8c8.2 0 14.8 6.6 14.8 14.8V842c0 8.2-6.7 14.8-14.9 14.8z m-365.9-29.7h351.1V226H285.2v601.1z" fill="#1D1B4C" p-id="3257"></path><path d="M442.4 742.3c-2.6 0-5.2-0.7-7.6-2.1-7-4.2-9.3-13.3-5.1-20.4l41.5-69.2h-47.1c-5.4 0-10.3-2.9-12.9-7.5-2.6-4.7-2.6-10.4 0.2-15l55-91.6c4.2-7 13.3-9.3 20.4-5.1 7 4.2 9.3 13.3 5.1 20.4L450.3 621h47.1c5.4 0 10.3 2.9 12.9 7.5 2.6 4.7 2.6 10.4-0.2 15l-55 91.6c-2.7 4.7-7.7 7.2-12.7 7.2zM812.2 782.5H739c-8.2 0-14.8-6.6-14.8-14.8V463h-73c-8.2 0-14.8-6.6-14.8-14.8 0-8.2 6.6-14.8 14.8-14.8H739c8.2 0 14.8 6.6 14.8 14.8v304.7h43.5V366L739 302.4c-5.5-6-5.1-15.4 0.9-21 6-5.5 15.4-5.1 21 0.9l62.2 67.9c2.5 2.7 3.9 6.3 3.9 10v407.4c0.1 8.3-6.6 14.9-14.8 14.9z" fill="#1D1B4C" p-id="3258"></path><path d="M812.2 387.1h-58.6c-8.2 0-14.8-6.6-14.8-14.8s6.6-14.8 14.8-14.8h58.6c8.2 0 14.8 6.6 14.8 14.8s-6.6 14.8-14.8 14.8zM577.9 416.4H343.6c-8.2 0-14.8-6.6-14.8-14.8v-87.9c0-8.2 6.6-14.8 14.8-14.8h234.3c8.2 0 14.8 6.6 14.8 14.8v87.9c0.1 8.1-6.6 14.8-14.8 14.8z m-219.5-29.7H563v-58.2H358.4v58.2zM709.7 856.8h-498c-8.2 0-14.8-6.6-14.8-14.8 0-8.2 6.6-14.8 14.8-14.8h498c8.2 0 14.8 6.6 14.8 14.8 0.1 8.2-6.6 14.8-14.8 14.8zM592.6 667.7c-4 0-7.7-1.6-10.5-4.4-1.4-1.4-2.4-3-3.2-4.7-0.7-1.8-1.1-3.8-1.1-5.7 0-0.9 0.1-2 0.3-3 0.1-0.9 0.5-1.9 0.8-2.7 0.4-0.9 0.8-1.8 1.4-2.6 0.5-0.8 1.2-1.6 1.9-2.3 3.5-3.5 8.5-5 13.4-4 0.9 0.1 1.9 0.4 2.8 0.8 0.9 0.4 1.8 0.8 2.6 1.4 0.8 0.5 1.6 1.2 2.3 1.9 0.7 0.7 1.2 1.5 1.8 2.3 0.5 0.8 1.1 1.6 1.4 2.6 0.4 0.8 0.7 1.8 0.9 2.7 0.1 0.9 0.3 2 0.3 3 0 1.9-0.4 3.9-1.1 5.7-0.8 1.8-1.9 3.4-3.2 4.7-1.5 1.5-3.1 2.6-4.9 3.4-2 0.5-4 0.9-5.9 0.9zM592.6 724.3c-2 0-3.9-0.4-5.7-1.1-1.8-0.8-3.4-1.9-4.9-3.2-1.4-1.5-2.4-3.1-3.2-4.9-0.7-1.8-1.1-3.6-1.1-5.7 0-3.9 1.6-7.7 4.3-10.5 0.7-0.7 1.5-1.4 2.3-1.9 0.8-0.4 1.6-0.9 2.6-1.4 0.8-0.3 1.8-0.5 2.7-0.8 4.9-0.9 10 0.7 13.5 4.1 2.7 2.8 4.3 6.6 4.3 10.5 0 2-0.4 3.9-1.1 5.7-0.8 1.8-1.9 3.4-3.2 4.9-2.8 2.9-6.6 4.3-10.5 4.3zM592.6 781c-4 0-7.7-1.5-10.5-4.3s-4.3-6.5-4.3-10.5c0-3.9 1.6-7.7 4.3-10.5 0.7-0.7 1.5-1.3 2.3-1.9 0.8-0.4 1.6-0.9 2.6-1.4 0.8-0.3 1.8-0.5 2.7-0.8 4.9-0.9 10 0.7 13.5 4 2.7 2.8 4.3 6.6 4.3 10.5 0 2-0.4 3.9-1.1 5.7-0.8 1.8-1.9 3.4-3.2 4.9-2.9 2.8-6.7 4.3-10.6 4.3z" fill="#1D1B4C" p-id="3259"></path></svg>