<svg t="1671517612081" class="icon" viewBox="0 0 1024 1024" version="1.1" xmlns="http://www.w3.org/2000/svg" p-id="22536" width="200" height="200"><path d="M586.3 770.4c-23.6 40.8-75.9 54.7-116.6 31s-54.7-75.9-31-116.6c23.6-40.8 373.5-474 373.5-474S610 729.6 586.3 770.4zM841.3 370.6c-11.9 30.4-24.5 62.3-37.4 94.8 31.5 51.7 49.9 112.1 49.9 176.9 0 24.7-3 49.4-9.1 75.7-5.3 23 9 45.9 31.9 51.2 3.3 0.8 6.5 1.1 9.7 1.1 19.4 0 36.9-13.3 41.5-33 7.5-32.2 11.3-64.2 11.3-95 0.1-103.2-36.7-197.9-97.8-271.7zM512.5 215.5C277.2 215.5 85.8 407 85.8 642.2c0 30.8 3.8 62.8 11.3 95 5.3 23 28.3 37.2 51.2 31.9 23-5.3 37.3-28.3 31.9-51.2-6.1-26.3-9.1-51-9.1-75.7 0-188.2 153.1-341.4 341.4-341.4 36.4 0 71.5 5.9 104.4 16.5 19.4-24.2 38.4-47.9 56.3-70.2-49.7-20.2-103.8-31.6-160.7-31.6z" p-id="22537" fill="#13227a"></path></svg>