<?xml version="1.0" standalone="no"?><!DOCTYPE svg PUBLIC "-//W3C//DTD SVG 1.1//EN" "http://www.w3.org/Graphics/SVG/1.1/DTD/svg11.dtd"><svg t="1640672784830" class="icon" viewBox="0 0 1024 1024" version="1.1" xmlns="http://www.w3.org/2000/svg" p-id="34814" xmlns:xlink="http://www.w3.org/1999/xlink" width="200" height="200"><defs><style type="text/css"></style></defs><path d="M560 16a64 64 0 0 1 64 64v128h320a64 64 0 0 1 64 64v160a64 64 0 0 1-64 64h-32v448a64 64 0 0 1-59.2 63.84l-4.8 0.16h-672a64 64 0 0 1-64-64v-448h-32a64 64 0 0 1-63.84-59.2L16 432v-160a64 64 0 0 1 64-64h288v-128a64 64 0 0 1 64-64z m288 480h-672v448H288V736a32 32 0 0 1 64 0v208h128V736a32 32 0 0 1 64 0v208h128V736a32 32 0 0 1 64 0v208h112v-448z m96-224h-864v160h864v-160z m-384-192h-128v128h128v-128z" p-id="34815" fill="#8a8a8a"></path></svg>