<svg t="1642837539272" class="icon" viewBox="0 0 1024 1024" version="1.1" xmlns="http://www.w3.org/2000/svg" p-id="54596" width="200" height="200"><path d="M512 1016.64708141c271.8527031 0 492.22451265-207.40024638 492.22451265-463.27012868s25.85626454-261.31330676-492.22451265-261.3133081S19.77548735 297.50706911 19.77548735 553.37695273s220.37180954 463.27012867 492.22451265 463.27012868z" fill="#FF5C00" p-id="54597"></path><path d="M19.77548735 466.51380353a492.22451265 463.27012867 0 1 0 984.4490253 0 492.22451265 463.27012867 0 1 0-984.4490253 0Z" fill="#FFCC00" p-id="54598"></path><path d="M919.87460344 223.80937335a439.71863393 439.71863393 0 0 1 41.21656474 78.53731593L369.91577481 893.5220813a493.75185589 493.75185589 0 0 1-85.82079097-33.93308835z m-250.461204-188.66458894c76.2506435 24.89932172 143.74982518 67.38626002 197.0490531 122.29462776L210.49800908 813.43208705c-61.62723322-46.91913004-110.66365254-107.8688307-141.60430583-177.73937638z" fill="#FFE3B6" p-id="54599"></path><path d="M77.68425395 452.03661154a434.31574605 390.88417144 0 1 0 868.6314921 0 434.31574605 390.88417144 0 1 0-868.6314921 0Z" fill="#FF7325" p-id="54600"></path><path d="M116.77267066 447.84680736a395.22732934 352.88154412 0 1 0 790.45465868 0 395.22732934 352.88154412 0 1 0-790.45465868 0Z" fill="#FFB329" p-id="54601"></path><path d="M904.40427611 490.1925926c-23.43133494 174.91632313-190.18903721 310.53575887-392.40427611 310.53575886s-368.9729425-135.61943442-392.40427611-310.53575886z" fill="#FF9B1A" p-id="54602"></path><path d="M512 94.96526326c143.01583246 0 268.2746652 67.80971789 337.66529151 169.38314095H174.36293858c69.3906263-101.57342308 194.64945905-169.38314095 337.6652915-169.38314095z" fill="#FFCC00" p-id="54603"></path><path d="M612.10543631 487.59538399l125.34352432-18.43453095 0.39522776 54.1743737c-8.46915705 33.14263415-21.73750352 60.83677769-39.9179611 83.05420055a171.92388807 171.92388807 0 0 1-67.61210334 50.33502296c-26.93191941 11.29220895-61.20377538 16.96654418-102.78733646 16.96654549-50.476176 0-91.69274075-6.88824729-123.70615308-20.6929746-31.98518356-13.80472599-59.59463554-38.05474522-82.82835593-72.80651919-23.23372039-34.7235439-34.83646555-79.1866184-34.83646687-133.38922351 0-72.2701397 20.43889858-127.77134977 61.28846694-166.58831917 40.87779846-38.81696936 98.66567961-58.211339 173.42010626-58.21134031 58.49364512 0 104.48116789 11.12282581 137.96256832 33.34024869 13.18365491 8.75146185 37.71597896 24.27825065 73.56874333 46.58036377-0.45168793 21.7939637-0.11292166 40.4261092 1.01629887 55.83997503l-126.69858946 26.53669297c-4.43219174-13.32480666-9.09022811-23.03610717-13.94587771-29.19036173a81.36036915 81.36036915 0 0 0-29.44443646-23.8265614 89.09553214 89.09553214 0 0 0-38.95812242-8.35623539c-32.52156307 0-57.44911487 12.3085078-74.75442664 36.92552473-13.09896334 18.26514914-19.64844436 46.94736013-19.64844436 86.04663561 0 48.44357831 7.81985457 81.64267394 23.43133495 99.59728688 15.63971046 17.98284302 37.60305729 26.96014951 65.89004183 26.96014949 27.44006884 0 48.1895036-7.25524497 62.24830429-21.73750221 14.03057062-14.48225855 24.22178916-35.54222951 30.57365696-63.12345141z" fill="#FF5C00" p-id="54604"></path><path d="M612.10543631 431.13433787L737.84418839 466.87418064c-8.46915705 33.14263415-21.73750352 60.83677769-39.9179611 83.05419923a171.92388807 171.92388807 0 0 1-67.61210334 50.33502428c-26.93191941 11.29220895-61.20377538 16.96654418-102.78733646 16.96654418-50.476176 0-91.69274075-6.88824729-123.70615308-20.6929733-31.98518356-13.80472599-59.59463554-38.05474522-82.82835593-72.80652053-23.23372039-34.7235439-34.83646555-79.1866184-34.83646687-133.38922349 0-72.2701397 20.43889858-127.77134977 61.28846694-166.58831915 40.87779846-38.81696936 98.66567961-58.211339 173.42010626-58.21133899 58.49364512 0 104.48116789 11.12282581 137.96256832 33.34024736 33.45317033 22.24565295 58.32426197 56.37635586 74.5850422 102.42034011l-126.69858946 26.53669165c-4.43219174-13.32480666-9.09022811-23.03610717-13.94587771-29.19036174a81.36036915 81.36036915 0 0 0-29.44443646-23.82656138 89.09553214 89.09553214 0 0 0-38.95812242-8.3562354c-32.52156307 0-57.44911487 12.3085078-74.75442664 36.92552473-13.09896334 18.26514914-19.64844436 46.94736013-19.64844436 86.0466356 0 48.44357831 7.81985457 81.64267394 23.43133495 99.59728689 15.63971046 17.98284302 37.60305729 26.96014951 65.89004183 26.96015082 27.44006884 0 48.1895036-7.25524497 62.24830429-21.73750353 14.03057062-14.48225855 24.22178916-35.54222951 30.57365696-63.12345011z" fill="#FFDC96" p-id="54605"></path><path d="M658.79872172 198.88182023c24.95578322 16.57131773 45.14060705 39.77680805 60.52624282 69.58824085l-45.30999021 45.25352873-67.30156846 14.11526218c-4.43219174-13.32480666-9.09022811-23.03610717-13.94587771-29.19036174a81.36036915 81.36036915 0 0 0-29.44443646-23.82656138 89.09553214 89.09553214 0 0 0-38.95812242-8.3562354c-32.52156307 0-57.44911487 12.3085078-74.75442664 36.92552473-13.09896334 18.26514914-19.64844436 46.94736013-19.64844436 86.0466356 0 48.44357831 7.81985457 81.64267394 23.43133495 99.59728689 7.31170515 8.41269556 15.97847674 14.84925492 26.05677362 19.30967806l-84.21165246 84.18342107c-28.3716761-14.28464532-53.12984478-37.20782953-74.24627591-68.79778532-13.12719342-19.64844436-22.55618782-42.37401533-28.23052437-68.2614058l285.69289863-285.69289731c31.98518356 5.08149424 58.77594991 14.79279475 80.37230039 29.10566884z" fill="#FFECBD" p-id="54606"></path></svg>