<svg t="1678170834772" class="icon" viewBox="0 0 1024 1024" version="1.1" xmlns="http://www.w3.org/2000/svg" p-id="17878" width="200" height="200"><path d="M117.028571 588.8C117.028571 866.742857 292.571429 1016.685714 512 1016.685714c219.428571 0 394.971429-149.942857 394.971429-427.885714S731.428571 10.971429 512 10.971429C292.571429 10.971429 117.028571 310.857143 117.028571 588.8z" fill="#FD8F09" p-id="17879"></path><path d="M870.4 585.142857c10.971429-234.057143-106.057143-490.057143-277.942857-559.542857-18.285714-3.657143-32.914286-7.314286-51.2-7.314286C321.828571 7.314286 131.657143 296.228571 117.028571 574.171429c-3.657143 54.857143 3.657143 109.714286 14.628572 160.914285 25.6 69.485714 69.485714 131.657143 128 175.542857 58.514286 43.885714 131.657143 65.828571 204.8 65.828572 215.771429 10.971429 391.314286-124.342857 405.942857-391.314286z" fill="#FD8307" p-id="17880"></path><path d="M800.914286 577.828571c25.6-204.8-58.514286-435.2-204.8-508.342857l-43.885715-10.971428C365.714286 36.571429 179.2 277.942857 146.285714 519.314286c-7.314286 47.542857-7.314286 95.085714 3.657143 142.628571 14.628571 62.171429 51.2 120.685714 102.4 160.914286 51.2 40.228571 109.714286 65.828571 175.542857 73.142857 179.2 21.942857 343.771429-84.114286 373.028572-318.171429z" fill="#FD9509" p-id="17881"></path><path d="M764.342857 522.971429c21.942857-182.857143-54.857143-391.314286-182.857143-457.142858-14.628571-3.657143-25.6-7.314286-40.228571-10.971428C369.371429 36.571429 204.8 256 175.542857 471.771429c-7.314286 43.885714-3.657143 84.114286 3.657143 128 14.628571 54.857143 47.542857 106.057143 91.428571 142.628571s98.742857 62.171429 157.257143 65.828571c160.914286 21.942857 310.857143-73.142857 336.457143-285.257142z" fill="#FDA40B" p-id="17882"></path><path d="M676.571429 420.571429c18.285714-138.971429-40.228571-296.228571-138.971429-343.771429-10.971429-3.657143-21.942857-3.657143-29.257143-7.314286-128-14.628571-256 146.285714-277.942857 310.857143-3.657143 32.914286-3.657143 65.828571 0 95.085714 10.971429 43.885714 36.571429 80.457143 69.485714 109.714286 32.914286 29.257143 76.8 47.542857 120.685715 51.2 124.342857 18.285714 234.057143-54.857143 256-215.771428z" fill="#FDB10D" p-id="17883"></path><path d="M614.4 51.2c146.285714 87.771429 248.685714 310.857143 248.685714 519.314286 0 266.971429-171.885714 413.257143-380.342857 413.257143-58.514286 0-117.028571-10.971429-168.228571-36.571429 62.171429 36.571429 131.657143 54.857143 201.142857 51.2 208.457143 0 380.342857-146.285714 380.342857-413.257143-3.657143-223.085714-120.685714-460.8-281.6-533.942857z" fill="#FD950A" p-id="17884"></path><path d="M157.257143 614.4C157.257143 343.771429 329.142857 51.2 541.257143 51.2c73.142857 3.657143 142.628571 32.914286 193.828571 84.114286-25.6-32.914286-58.514286-58.514286-95.085714-76.8S563.2 29.257143 522.971429 29.257143C310.857143 29.257143 138.971429 321.828571 138.971429 592.457143c0 142.628571 47.542857 252.342857 124.342857 321.828571-73.142857-80.457143-109.714286-190.171429-106.057143-299.885714z" fill="#FFD613" p-id="17885"></path><path d="M354.742857 270.628571c-3.657143 7.314286-7.314286 18.285714-7.314286 25.6 0 10.971429 3.657143 18.285714 7.314286 25.6 3.657143 7.314286 10.971429 14.628571 18.285714 21.942858 7.314286 7.314286 14.628571 10.971429 25.6 10.971428 7.314286 3.657143 18.285714 3.657143 29.257143 3.657143 10.971429 0 18.285714-3.657143 25.6-10.971429 7.314286-3.657143 14.628571-10.971429 21.942857-18.285714 3.657143-7.314286 7.314286-18.285714 10.971429-25.6 14.628571-47.542857-3.657143-106.057143-40.228571-113.371428-36.571429-7.314286-80.457143 32.914286-91.428572 80.457142z" fill="#FFFFFF" p-id="17886"></path></svg>