<svg t="1677740703434" class="icon" viewBox="0 0 1024 1024" version="1.1" xmlns="http://www.w3.org/2000/svg" p-id="16108" width="200" height="200"><path d="M321.024 466.944c-104.448 0-191.488 151.552-191.488 281.6 0 129.536 84.48 188.928 191.488 188.928s191.488-58.88 191.488-188.928c0-129.536-91.136-281.6-191.488-281.6zM943.616 535.04l-343.552-223.744 11.776-16.384c9.728-13.312 13.312-29.184 11.776-44.032 0.512-0.512 1.024-0.512 1.536-1.024l50.688-44.032c6.144-10.24 3.072-24.064-6.144-31.232l-113.664-81.92c-9.728-7.168-24.064-5.12-31.744 3.584l-26.112 61.952c0 0.512-0.512 1.024-0.512 1.536-14.848 3.584-28.672 11.776-37.888 25.088l-44.544 61.952c-9.728 13.312-13.312 29.184-11.776 44.032-0.512 0.512-1.024 0.512-1.536 1.024l-50.688 44.032c-6.144 10.24-3.072 24.064 6.144 31.232l113.664 81.92c9.728 7.168 24.064 5.12 31.744-3.584l26.112-61.952c0-0.512 0.512-1.024 0.512-1.536 14.848-3.584 28.672-11.776 37.888-25.088l12.8-17.92 320.512 256c9.216 7.68 21.504 6.656 27.648-1.024l23.04-32.256c5.632-8.192 2.56-19.968-7.68-26.624z" p-id="16109"></path></svg>