<svg t="1677740533723" class="icon" viewBox="0 0 1024 1024" version="1.1" xmlns="http://www.w3.org/2000/svg" p-id="15055" width="200" height="200"><path d="M1002.88 453.674667a21.333333 21.333333 0 0 1-6.570667-20.309334c32.256-150.357333-25.813333-290.133333-141.482666-328.149333-123.733333-40.533333-274.901333 58.794667-326.570667 228.778667a10.666667 10.666667 0 0 1-9.344 7.552 10.752 10.752 0 0 1-10.453333-5.930667c-64-130.218667-189.525333-204.245333-300.245334-168.917333-94.634667 30.250667-153.6 131.541333-151.978666 253.952a21.333333 21.333333 0 0 1-14.037334 20.352A64 64 0 0 0 0 501.162667a431.274667 431.274667 0 0 0 31.786667 158.464 10.666667 10.666667 0 0 0 17.322666 3.754666c4.565333-4.266667 9.216-9.344 14.165334-14.677333a141.482667 141.482667 0 0 1 110.933333-56.746667 141.568 141.568 0 0 1 110.933333 56.746667c22.4 23.936 35.456 36.48 64 36.48s41.514667-12.544 64-36.48a136.32 136.32 0 0 1 221.354667 0c22.528 23.936 35.541333 36.48 64 36.48s41.685333-12.544 64-36.522667a141.866667 141.866667 0 0 1 110.933333-56.704 137.941333 137.941333 0 0 1 108.074667 53.973334 10.666667 10.666667 0 0 0 17.749333-3.84 426.368 426.368 0 0 0 25.173334-140.8 64 64 0 0 0-21.546667-47.616z m-558.933333-25.6a21.333333 21.333333 0 0 1-17.450667 9.088H162.944a21.333333 21.333333 0 0 1-21.333333-21.333334c0-82.048 36.224-149.802667 92.586666-167.808 88.96-28.501333 177.408 64 212.309334 160.597334a21.333333 21.333333 0 0 1-2.773334 19.456z m467.797333-7.466667a21.333333 21.333333 0 0 1-20.778667 16.554667h-271.232a21.333333 21.333333 0 0 1-21.333333-23.509334 283.52 283.52 0 0 1 13.056-59.733333c38.4-116.693333 137.429333-193.450667 216.661333-167.466667 73.557333 23.936 108.458667 125.952 83.584 234.154667z" fill="" p-id="15056"></path><path d="M937.130667 692.437333c-22.485333-23.936-35.584-36.48-64-36.48s-41.685333 12.544-64 36.522667a136.533333 136.533333 0 0 1-221.482667 0c-22.528-23.978667-35.541333-36.48-64-36.48s-41.514667 12.501333-64 36.48a141.525333 141.525333 0 0 1-110.677333 56.746667 141.354667 141.354667 0 0 1-110.634667-56.746667c-22.485333-23.978667-35.541333-36.48-64-36.48s-41.557333 12.501333-64 36.48a280.874667 280.874667 0 0 1-27.776 27.008 21.333333 21.333333 0 0 0-4.266667 28.288A374.485333 374.485333 0 0 0 384 927.829333h256a378.709333 378.709333 0 0 0 314.88-193.962666 21.333333 21.333333 0 0 0-3.2-26.410667c-5.205333-5.034667-9.984-10.154667-14.549333-15.018667z" fill="" p-id="15057"></path></svg>