<svg t="1669605929020" class="icon" viewBox="0 0 1024 1024" version="1.1" xmlns="http://www.w3.org/2000/svg" p-id="36950" width="200" height="200"><path d="M640 128v256c0 30.72-22.08 56.64-51.2 62.72-4.16 0.96-8.32 1.28-12.8 1.28H192c-10.88 0-21.44-2.88-30.4-7.68C141.76 429.44 128 408.32 128 384V128c0-35.2 28.8-64 64-64h384c35.2 0 64 28.8 64 64z" fill="#E0EBFE" p-id="36951"></path><path d="M96 960a32 32 0 0 0 32 32h512a32 32 0 1 0 0-64h-59.744l44.064-352H672c17.664 0 32 14.368 32 32v96c0 25.952 10.112 50.112 27.968 67.456 17.92 18.4 42.08 28.544 68.032 28.544 52.928 0 96-43.072 95.872-93.344l32-384c0.064-0.8-0.256-1.472-0.256-2.24a30.944 30.944 0 0 0-0.768-6.56 31.04 31.04 0 0 0-1.6-5.952c-0.32-0.736-0.288-1.568-0.64-2.304l-63.936-127.872a32 32 0 0 0-57.344 28.544l29.184 58.336A63.776 63.776 0 0 0 800 320c0 33.472 25.92 60.672 58.624 63.456L832 704c0 17.632-14.336 32-32 32a31.296 31.296 0 0 1-22.816-9.792A30.752 30.752 0 0 1 768 704v-96c0-52.928-43.072-96-96-96h-39.648l7.04-56.128A96.16 96.16 0 0 0 672 384V128c0-52.928-43.072-96-96-96H192C139.072 32 96 75.072 96 128v256c0 27.648 12.288 53.312 32.672 71.424L187.744 928H128a32 32 0 0 0-32 32z m736-640c0-11.264 6.176-20.704 15.008-26.4l16.384 32.736-2.112 25.12A31.776 31.776 0 0 1 832 320z m-316.256 608H252.256l-56-448H571.84l-56.128 448zM176.96 412.256A32.32 32.32 0 0 1 160 384V128c0-17.632 14.336-32 32-32h384c17.664 0 32 14.368 32 32v256c0 15.072-10.816 28.288-26.4 31.552A25.6 25.6 0 0 1 576 416H192a32.64 32.64 0 0 1-15.04-3.744z" fill="#5465CF" p-id="36952"></path></svg>