<svg t="1670551905385" class="icon" viewBox="0 0 1024 1024" version="1.1" xmlns="http://www.w3.org/2000/svg" p-id="4711" width="200" height="200"><path d="M240 176h352v288h-352z" fill="#E0EBFE" p-id="4712"></path><path d="M64 992h704a32 32 0 1 0 0-64h-32v-292.672c23.392-2.016 49.088 0.192 65.472 10.304 24 15.136 29.92 31.744 1.76 90.144-31.52 64.768-20.416 121.504 28.928 148.064 15.36 8.288 32.16 12.256 48.672 12.256 30.624 0 60.32-13.6 78.08-38.56 15.264-21.536 20.704-46.816 23.712-66.208 10.784-66.656 12.128-145.12 4.128-239.808-5.056-60.064-17.024-115.2-35.52-163.712-10.144-27.072-24.256-51.456-37.92-75.008a1283.2 1283.2 0 0 1-13.504-23.776c5.056-5.28 10.976-11.296 15.712-16.096 16.352-16.544 26.624-27.072 32.896-35.936 3.52-5.248 9.44-14.08 10.656-24.32 3.296-16.48-2.816-30.944-5.536-37.44a1534.048 1534.048 0 0 0-14.56-34.336l-5.76-13.408 3.264-3.264c12.128-12.064 24.192-24.064 36.128-36.224a32 32 0 1 0-45.696-44.8 4028.8 4028.8 0 0 1-35.552 35.648l-18.528 18.432-0.064 0.064-3.84 3.84c-3.744 3.744-7.68 7.392-11.648 11.072-14.72 13.76-31.488 29.312-42.272 50.88-19.104 37.568-5.76 76.16 3.136 102.016 3.936 10.976 8.544 21.312 13.504 31.68 7.904 16.32 17.056 32.192 26.304 48.064 12.896 22.272 25.088 43.296 33.408 65.536 16.416 43.072 27.04 92.352 31.648 146.496 7.52 89.408 6.368 162.72-3.616 224.416-2.08 13.44-5.216 28.64-12.64 39.136-9.312 13.184-30.816 14.272-44.224 7.04-21.44-11.552-12.8-41.056-1.728-63.84 17.312-35.84 57.856-119.776-25.472-172.352-28.928-17.824-65.92-22.368-99.328-20.16V160c0-70.592-57.408-128-128-128H224C153.408 32 96 89.408 96 160v768H64a32 32 0 1 0 0 64zM872.704 225.184c-3.616-13.28-4.96-24.544-0.544-33.28a73.6 73.6 0 0 1 12-16.48c3.648 8.448 7.168 16.736 10.176 24.224l0.832 1.824c-3.232 4.16-13.984 15.136-22.464 23.712zM160 160c0-35.296 28.704-64 64-64h384c35.296 0 64 28.704 64 64v768H160V160z" fill="#5465CF" p-id="4713"></path><path d="M592 160h-352a16 16 0 0 0-16 16v288a16 16 0 0 0 16 16h352a16 16 0 0 0 16-16v-288a16 16 0 0 0-16-16z m-16 288H256V192h320v256z" fill="#5465CF" p-id="4714"></path></svg>