<svg t="1669605161876" class="icon" viewBox="0 0 1024 1024" version="1.1" xmlns="http://www.w3.org/2000/svg" p-id="27298" width="200" height="200"><path d="M918.016 343.8592l-145.2032-207.4624a30.70976 30.70976 0 0 0-42.8032-7.5264 30.7712 30.7712 0 0 0-7.5776 42.8032l77.5168 110.7456v99.7888c0 24.1664 19.1488 43.776 42.752 43.776h26.0608v368.64c0 24.1664-18.8416 43.776-42.0352 43.776s-42.0352-19.6608-42.0352-43.776v-203.0592c0-58.0096-46.4384-105.216-103.4752-105.216h-52.3264c-16.9472 0-30.72 13.7728-30.72 30.72s13.7728 30.72 30.72 30.72h52.3264c23.1936 0 42.0352 19.6608 42.0352 43.776v203.0592c0 58.0096 46.4384 105.216 103.4752 105.216s103.4752-47.2064 103.4752-105.216V382.8224c0.1024-14.0288-4.1472-27.5456-12.1856-38.9632z" fill="#4F95FC" p-id="27299"></path><path d="M567.9616 910.6944H176.2304c-41.216 0-74.752-33.536-74.752-74.752V246.8352c0-68.096 55.3984-123.5456 123.5456-123.5456h294.144c68.096 0 123.5456 55.3984 123.5456 123.5456v275.3024c0 16.9472-13.7728 30.72-30.72 30.72s-30.72-13.7728-30.72-30.72V246.8352c0-34.2528-27.8528-62.1056-62.1056-62.1056H225.024c-34.2528 0-62.1056 27.8528-62.1056 62.1056v589.1072c0 7.3216 5.9392 13.312 13.312 13.312h391.7312c7.3216 0 13.312-5.9392 13.312-13.312v-100.864c0-16.9472 13.7728-30.72 30.72-30.72s30.72 13.7728 30.72 30.72v100.864c-0.0512 41.216-33.536 74.752-74.752 74.752z" fill="#474747" p-id="27300"></path><path d="M464.384 773.4272H279.808c-16.9472 0-30.72-13.7728-30.72-30.72s13.7728-30.72 30.72-30.72H464.384c16.9472 0 30.72 13.7728 30.72 30.72s-13.7728 30.72-30.72 30.72zM439.9104 440.9344H304.2816c-30.4128 0-55.1936-24.7296-55.1936-55.1936V319.0272c0-30.4128 24.7296-55.1936 55.1936-55.1936h135.6288c30.4128 0 55.1936 24.7296 55.1936 55.1936v66.7648c0 30.4128-24.7808 55.1424-55.1936 55.1424z m-129.3824-61.44H433.664V325.2736H310.528v54.2208z m129.3824-54.2208h0.0512-0.0512z" fill="#474747" p-id="27301"></path></svg>