<svg t="1677309147340" class="icon" viewBox="0 0 1024 1024" version="1.1" xmlns="http://www.w3.org/2000/svg" p-id="29512" width="200" height="200"><path d="M846.08 592H465.92c0.96-10.88 2.4-21.6 4.16-32s4-21.28 6.56-32a31.04 31.04 0 0 1 0.8-3.2A347.68 347.68 0 0 1 512 439.68c1.92-3.52 4.16-7.04 6.24-10.56a241.44 241.44 0 0 1 37.92-48A144 144 0 0 1 656 336a124.48 124.48 0 0 1 48 9.76A152.8 152.8 0 0 1 742.24 368c4.8 3.84 9.44 8 14.08 12.48a241.44 241.44 0 0 1 37.92 48 341.76 341.76 0 0 1 40.16 96 31.04 31.04 0 0 1 0.8 3.2 404.8 404.8 0 0 1 10.88 64.32z" fill="#FFBE9F" p-id="29513"></path><path d="M814.08 560h-344c1.76-10.72 4-21.28 6.56-32a31.04 31.04 0 0 1 0.8-3.2A347.68 347.68 0 0 1 512 439.68c1.92-3.52 4.16-7.04 6.24-10.56a241.44 241.44 0 0 1 37.92-48A144 144 0 0 1 656 336a124.48 124.48 0 0 1 48 9.76A152.8 152.8 0 0 1 742.24 368a237.92 237.92 0 0 1 20.16 28.48 341.76 341.76 0 0 1 40.16 96 31.04 31.04 0 0 1 0.8 3.2 404.8 404.8 0 0 1 10.72 64.32z" fill="#FFE7AD" p-id="29514"></path><path d="M512 439.68a347.68 347.68 0 0 0-33.92 85.44 31.04 31.04 0 0 0-0.8 3.2 404.8 404.8 0 0 0-10.72 64H192c-1.76-5.76-3.36-11.52-4.64-17.28-1.12-4.96-2.24-9.76-3.2-14.56a232.8 232.8 0 0 1-4-46.24 144 144 0 0 1 39.2-102.72 140.16 140.16 0 0 1 94.08-38.72 78.24 78.24 0 0 1 8.64 0 241.28 241.28 0 0 1 60.8 7.2A342.24 342.24 0 0 1 474.72 416l4.16 2.24 2.88 1.76c10.08 6.24 20 12.8 30.24 19.68z" fill="#FFBE9F" p-id="29515"></path><path d="M474.72 416a347.36 347.36 0 0 0-29.28 76.96 31.04 31.04 0 0 0-0.8 3.2 404.8 404.8 0 0 0-10.72 64H183.68a232.8 232.8 0 0 1-4-46.24 144 144 0 0 1 39.2-102.72 140.16 140.16 0 0 1 94.08-38.72 78.24 78.24 0 0 1 8.64 0 241.28 241.28 0 0 1 60.8 7.2A342.24 342.24 0 0 1 474.72 416z" fill="#FFE7AD" p-id="29516"></path><path d="M704 345.76a124.48 124.48 0 0 0-48-9.76 144 144 0 0 0-100.32 44.96 241.44 241.44 0 0 0-37.92 48c-2.08 3.52-4.32 7.04-6.24 10.56-9.6-6.88-19.52-13.44-29.44-19.36l-2.88-1.76a347.36 347.36 0 0 0-96-39.52 241.28 241.28 0 0 0-60.8-7.2 78.24 78.24 0 0 0-8.64 0c1.44-5.12 3.04-10.24 4.8-15.2 4-11.36 8.48-22.56 13.28-33.28a417.28 417.28 0 0 1 32.8-59.52l1.92-2.72a336.8 336.8 0 0 1 69.92-77.12 246.08 246.08 0 0 1 51.84-32 144 144 0 0 1 109.44-8.96 144 144 0 0 1 80 75.84 240 240 0 0 1 19.68 57.76c1.44 6.56 2.72 13.12 3.68 20a352 352 0 0 1 2.88 49.28z" fill="#FFBE9F" p-id="29517"></path><path d="M700.48 296.48A120.8 120.8 0 0 0 656 288a144 144 0 0 0-100.32 44.96 241.44 241.44 0 0 0-37.92 48c-2.08 3.52-4.32 7.04-6.24 10.56-9.6-6.88-19.52-13.44-29.44-19.36l-2.88-1.76a347.36 347.36 0 0 0-96-39.52 235.68 235.68 0 0 0-51.36-7.04 417.28 417.28 0 0 1 32.8-59.52l1.92-2.72a336.8 336.8 0 0 1 69.92-77.12 246.08 246.08 0 0 1 51.84-32 144 144 0 0 1 109.44-8.96 144 144 0 0 1 80 75.84 240 240 0 0 1 19.68 57.76c0.8 5.92 2.08 12.48 3.04 19.36z" fill="#FFE7AD" p-id="29518"></path><path d="M896 656a240 240 0 0 1-240 240H368A240 240 0 0 1 139.68 729.92 236 236 0 0 1 128 656a64 64 0 0 1 64-64h640a64 64 0 0 1 64 64z" fill="#AF3526" p-id="29519"></path><path d="M864 600.48A240 240 0 0 1 624 832H336a240 240 0 0 1-196.32-102.08A236 236 0 0 1 128 656a64 64 0 0 1 64-64h640a64 64 0 0 1 32 8.48z" fill="#D7442D" p-id="29520"></path><path d="M496 608h-48l1.44-17.44a433.12 433.12 0 0 1 11.2-65.92 10.24 10.24 0 0 1 0-2.4v-1.12a361.28 361.28 0 0 1 36.8-89.12l4.16-7.04 2.4-4a257.44 257.44 0 0 1 40-51.52l4.8-4.48A158.4 158.4 0 0 1 656 320a138.72 138.72 0 0 1 54.24 11.04 178.08 178.08 0 0 1 52.48 33.92l4.8 4.48a257.44 257.44 0 0 1 40.48 51.2l2.4 4a312.8 312.8 0 0 1 18.24 35.04 16 16 0 1 1-29.12 13.12 279.04 279.04 0 0 0-18.72-35.2l-2.4-4a228.16 228.16 0 0 0-29.92-38.08l-3.36-3.04a148.48 148.48 0 0 0-47.04-32c-43.36-18.08-91.36-6.88-131.2 32l-4.8 4.48a228 228 0 0 0-29.6 38.4l-3.36 5.6-3.68 6.4a331.84 331.84 0 0 0-32 80l-1.12 4a422.72 422.72 0 0 0-8.48 44.8H496a16 16 0 0 1 0 32z" fill="#3F0A1A" p-id="29521"></path><path d="M864 608H560a16 16 0 0 1 0-32h268.16a368 368 0 0 0-8.32-43.68l-1.12-4.8-2.72-11.84a16 16 0 0 1 9.76-19.68 16 16 0 0 1 20.16 10.4c1.44 4.96 2.72 9.92 4.16 14.88v2.24a21.76 21.76 0 0 1 0 2.72 428.96 428.96 0 0 1 10.88 64z" fill="#3F0A1A" p-id="29522"></path><path d="M789.76 560a16 16 0 0 1-16-12.16l-3.68-14.24a274.72 274.72 0 0 0-30.4-70.56A16 16 0 1 1 768 446.08 305.12 305.12 0 0 1 802.08 528l3.2 12.96a16 16 0 0 1-16 19.84zM720 428.64a16 16 0 0 1-10.88-4.16 109.44 109.44 0 0 0-13.92-11.2 16 16 0 0 1-4.32-22.24 16 16 0 0 1 22.08-4.32 131.84 131.84 0 0 1 17.92 14.24 16 16 0 0 1 0.96 22.56 16 16 0 0 1-11.84 5.12z" fill="#F9EFD9" p-id="29523"></path><path d="M465.92 608H192a16 16 0 0 1-16-11.36c-1.76-6.08-3.52-12.32-4.96-18.4a266.72 266.72 0 0 1-7.36-64 14.08 14.08 0 0 1 0-2.56 12.32 12.32 0 0 1 0-2.4 16 16 0 0 1 32 6.08v1.12a227.04 227.04 0 0 0 6.72 55.2v1.12l0.96 4h248.16a397.76 397.76 0 0 1 9.6-51.36v-2.72a365.28 365.28 0 0 1 28.64-76.48c-5.76-3.68-11.36-7.36-16.8-10.56l-1.92-1.28h-1.12a326.24 326.24 0 0 0-90.88-37.44h-1.12a228.64 228.64 0 0 0-53.6-6.72H314.08a126.24 126.24 0 0 0-84.48 34.08 112 112 0 0 0-27.52 46.72 16 16 0 0 1-30.72-9.28A144.8 144.8 0 0 1 208 400a157.12 157.12 0 0 1 104.48-43.36h7.2a34.24 34.24 0 0 1 5.76 0 259.36 259.36 0 0 1 60.32 7.52h0.96a362.56 362.56 0 0 1 100.64 41.28 17.12 17.12 0 0 1 3.36 2.08c9.76 5.92 19.84 12.48 29.76 19.68a16 16 0 0 1 4.8 20.8 330.4 330.4 0 0 0-32 80 4.96 4.96 0 0 1 0 1.28v1.6a410.88 410.88 0 0 0-10.4 62.24 16 16 0 0 1-16.96 14.88z" fill="#3F0A1A" p-id="29524"></path><path d="M449.44 472.96a16 16 0 0 1-9.12-2.88 277.28 277.28 0 0 0-67.52-27.68l-4.8-1.28a16 16 0 1 1 7.52-31.2l5.6 1.44a312.8 312.8 0 0 1 76.64 32l3.36 2.56a16 16 0 0 1 0 22.72 16 16 0 0 1-11.68 4.32zM315.84 436.16a16 16 0 0 1-16-14.56 16 16 0 0 1 14.72-17.28H321.76a16 16 0 0 1 0 32h-5.92z" fill="#F9EFD9" p-id="29525"></path><path d="M516.8 464l-14.72-10.56c-9.6-6.72-19.04-12.96-28.32-18.56l-4.48-2.88a328.96 328.96 0 0 0-88.48-36.48h-2.08a231.2 231.2 0 0 0-48-6.72h-16.32l-23.52 2.72 6.4-22.88c1.44-5.44 3.2-10.88 5.12-16a428.16 428.16 0 0 1 48-96l1.12-1.76 0.8-1.28a320 320 0 0 1 19.68-26.56 16 16 0 0 1 24.64 20.16c-4.8 5.92-9.76 12.64-15.04 20.32l-4.64 6.08A414.4 414.4 0 0 0 336 355.84a285.6 285.6 0 0 1 49.28 7.04h1.76a362.56 362.56 0 0 1 100.64 41.28h0.96a12.48 12.48 0 0 1 2.88 1.76c5.12 3.04 10.24 6.24 16 9.76a251.84 251.84 0 0 1 38.08-48l4.8-4.48a152.96 152.96 0 0 1 137.6-39.68 306.4 306.4 0 0 0-6.24-43.52v-1.92a234.72 234.72 0 0 0-16-48l-2.4-4.64A129.6 129.6 0 0 0 592 157.76a128 128 0 0 0-97.44 8.48l-8.96 4A248.48 248.48 0 0 0 451.84 192l-6.24 5.12-7.68 6.4a16 16 0 1 1-21.12-24l3.04-2.72 5.92-5.12a259.04 259.04 0 0 1 55.36-34.56l10.08-4.64a156.32 156.32 0 0 1 112-4.96 156.48 156.48 0 0 1 83.84 74.88l4.48 8.8a253.92 253.92 0 0 1 21.12 61.6v1.76A356.8 356.8 0 0 1 720 345.6v24.16l-22.24-9.28c-43.2-17.92-91.36-6.72-131.2 32l-4.8 4.48a228 228 0 0 0-29.6 38.4l-3.36 5.6-3.68 6.4z" fill="#3F0A1A" p-id="29526"></path><path d="M650.24 304a16 16 0 0 1-16-12.64l-1.28-6.24a176 176 0 0 0-10.88-32l-2.72-5.28a117.44 117.44 0 0 0-8.96-16 16 16 0 0 1 26.56-18.08 197.92 197.92 0 0 1 11.04 19.04l3.04 6.08a227.2 227.2 0 0 1 13.12 39.36l1.28 6.4a16 16 0 0 1-11.84 19.36 12.16 12.16 0 0 1-3.36 0zM592 208.8a15.04 15.04 0 0 1-7.68-2.08 50.24 50.24 0 0 0-8.48-3.68 16 16 0 0 1 10.56-30.24 82.08 82.08 0 0 1 13.28 5.92 16 16 0 0 1-7.68 30.08z" fill="#F9EFD9" p-id="29527"></path><path d="M184.48 826.4a16 16 0 0 1-12.16-5.6A256 256 0 0 1 112 656a80 80 0 0 1 80-80h304a16 16 0 0 1 0 32H192a48 48 0 0 0-48 48 222.88 222.88 0 0 0 52.64 144 16 16 0 0 1-12.16 26.4zM656 912H368a253.44 253.44 0 0 1-145.44-45.44 16 16 0 1 1 18.24-26.24A222.56 222.56 0 0 0 368 880h288a224 224 0 0 0 224-224 48 48 0 0 0-48-48H560a16 16 0 0 1 0-32h272a80 80 0 0 1 80 80 256 256 0 0 1-256 256z" fill="#3F0A1A" p-id="29528"></path><path d="M352 704H128a16 16 0 0 1 0-32h224a16 16 0 0 1 0 32zM464 800H256a16 16 0 0 1 0-32h208a16 16 0 0 1 0 32zM896 800H608a16 16 0 0 1 0-32h288a16 16 0 0 1 0 32zM688 912a20 20 0 0 1-5.12 0l-144-48a16 16 0 0 1 10.24-30.4l144 48a16 16 0 0 1 10.88 19.52 16 16 0 0 1-16 10.88zM512 688a16 16 0 0 1-11.36-4.64 16 16 0 0 1 0-22.72l128-128a16 16 0 0 1 22.72 22.72l-128 128A16 16 0 0 1 512 688zM896 688H688a16 16 0 0 1 0-32h208a16 16 0 0 1 0 32zM624 736H432a16 16 0 0 1 0-32h192a16 16 0 0 1 0 32zM320 640a16 16 0 0 1-11.36-4.64l-88-88a16 16 0 0 1 22.72-22.72l88 88a16 16 0 0 1 0 22.72A16 16 0 0 1 320 640zM128 784a16 16 0 0 1-5.92-30.88l80-32a16 16 0 1 1 11.84 29.76l-80 32A16 16 0 0 1 128 784z" fill="#942B21" p-id="29529"></path><path d="M288 848a16 16 0 0 1-12.8-6.4 16 16 0 0 1 3.2-22.4l64-48a16 16 0 0 1 19.2 25.6l-64 48a16 16 0 0 1-9.6 3.2zM272 592a16 16 0 0 1-16-16v-48a16 16 0 0 1 32 0v48a16 16 0 0 1-16 16zM464 656a16 16 0 0 1-11.36-4.64l-48-48a16 16 0 0 1 22.72-22.72l48 48a16 16 0 0 1 0 22.72A16 16 0 0 1 464 656zM368 912a16 16 0 0 1-11.36-4.64 16 16 0 0 1 0-22.72l48-48a16 16 0 0 1 22.72 22.72l-48 48A16 16 0 0 1 368 912zM768 736a16 16 0 0 1-11.36-4.64 16 16 0 0 1 0-22.72l48-48a16 16 0 0 1 22.72 22.72l-48 48A16 16 0 0 1 768 736z" fill="#942B21" p-id="29530"></path></svg>