<svg t="1671589792802" class="icon" viewBox="0 0 1024 1024" version="1.1" xmlns="http://www.w3.org/2000/svg" p-id="32171" width="200" height="200"><path d="M695 798.7h-76.5l-7.8-25.5 2-242.9-179.5-66.5 0.5-84.4 57.4-43.7 7.3-31.4 8.9-2.3 0.7-5.4 34.5-9.3 2.3 4.7 11-2.9 25.4 21.1h98.1l55.9 47.6v124.8L703 512.7v260.5zM478.5 221.2c-2.9-7.3-8.5-13.1-15.7-16.4L321 140.9l12.3-27.4 141.8 63.9c14.3 6.4 25.4 18 31.2 32.6l-27.8 11.2z" fill="#EAEAEA" p-id="32172"></path><path d="M509.2 298.1l-1.9-4.6 27.9-11.1 1.9 4.6-27.9 11.1z m-3.7-9.3l-1.9-4.6 27.9-11.1 1.9 4.6-27.9 11.1z m-3.7-9.3l-1.9-4.6 27.9-11.1 1.9 4.6-27.9 11.1z m-3.7-9.3l-1.9-4.6 27.9-11.1 1.9 4.6-27.9 11.1z m-3.8-9.3l-1.9-4.6 27.9-11.1 1.9 4.6-27.9 11.1z m-3.7-9.3l-1.9-4.6 27.9-11.1 1.9 4.6-27.9 11.1z m-3.7-9.2l-1.9-4.6 27.9-11.1 1.9 4.6-27.9 11.1z m-3.7-9.3l-1.9-4.6 27.9-11.1 1.9 4.6-27.9 11.1z m-3.7-9.3l-1-2.6 27.9-11.1 1 2.6-27.9 11.1zM610.4 773.3h-90.1c-26.6 0-48.2-21.6-48.2-48.2V466.5c0-26.6 21.6-48.2 48.2-48.2h90.1c26.6 0 48.2 21.6 48.2 48.2v258.6c0 26.5-21.6 48.2-48.2 48.2z m-90.1-325c-10 0-18.2 8.2-18.2 18.2v258.6c0 10 8.2 18.2 18.2 18.2h90.1c10 0 18.2-8.2 18.2-18.2V466.5c0-10-8.2-18.2-18.2-18.2h-90.1z" fill="#EAEAEA" p-id="32173"></path><path d="M519 753.1l-28.6-8.9 47-150.7c5.4-17.3-1.1-35.3-8.1-39.1l-44.5-23.8 14.2-26.4 44.5 23.8c21.6 11.6 31.8 45 22.6 74.4L519 753.1zM687.9 910.4c-1.7-1-40.6-25.3-40.6-111.7h20c0 73.9 30.7 94.4 31 94.6l-0.1-0.1-10.3 17.2z" fill="#EAEAEA" p-id="32174"></path><path d="M434.4 221.2c-2.9-7.3-8.5-13.1-15.7-16.4l-141.8-63.9 12.3-27.4 141.8 64c14.3 6.4 25.4 18 31.2 32.6l-27.8 11.1zM465.1 298.1l-1.9-4.6 27.9-11.1 1.9 4.6-27.9 11.1z m-3.7-9.3l-1.9-4.6 27.9-11.1 1.9 4.6-27.9 11.1z m-3.7-9.3l-1.9-4.6 27.9-11.1 1.9 4.6-27.9 11.1z m-3.7-9.3l-1.9-4.6 27.9-11.1 1.9 4.6-27.9 11.1z m-3.7-9.3l-1.9-4.6 27.9-11.1 1.9 4.6-27.9 11.1z m-3.7-9.3l-1.9-4.6 27.9-11.1 1.9 4.6-27.9 11.1z m-3.7-9.2l-1.9-4.6 27.9-11.1 1.9 4.6-27.9 11.1z m-3.7-9.3l-1.9-4.6 27.9-11.1 1.9 4.6-27.9 11.1z m-3.8-9.3l-1-2.6 27.9-11.1 1 2.6-27.9 11.1z" fill="#47473B" p-id="32175"></path><path d="M566.3 773.3h-90.1c-26.6 0-48.2-21.6-48.2-48.2V466.5c0-26.6 21.6-48.2 48.2-48.2h90.1c26.6 0 48.2 21.6 48.2 48.2v258.6c0.1 26.5-21.6 48.2-48.2 48.2z m-90-325c-10 0-18.2 8.2-18.2 18.2v258.6c0 10 8.2 18.2 18.2 18.2h90.1c10 0 18.2-8.2 18.2-18.2V466.5c0-10-8.2-18.2-18.2-18.2h-90.1z" fill="#47473B" p-id="32176"></path><path d="M460.6 763.6c-1.5 0-3-0.2-4.5-0.7-7.9-2.5-12.3-10.9-9.8-18.8l47-150.7c5.4-17.3-1.1-35.3-8.1-39.1l-44.5-23.8c-7.3-3.9-10.1-13-6.1-20.3 3.9-7.3 13-10.1 20.3-6.1l44.5 23.8c21.6 11.6 31.8 45 22.6 74.4L475 753c-2.1 6.5-8 10.6-14.4 10.6z" fill="#47473B" p-id="32177"></path><path d="M643.8 910.4c-1.7-1-40.6-25.3-40.6-111.7h20c0 73.9 30.7 94.4 31 94.6l-0.1-0.1-10.3 17.2z" fill="#47473B" p-id="32178"></path><path d="M650.9 798.7h-76.5l-7.7-25.5 1.9-242.9-179.5-66.5 0.6-84.4 57.3-43.7 7.3-31.4 9-2.3 0.6-5.4 34.5-9.3 2.4 4.7 10.9-2.9 25.4 21.1h98.2l55.9 47.6v124.8l-32.3 30.1v260.5z" fill="#FCD703" p-id="32179"></path><path d="M650.9 808.7h-76.5c-4.4 0-8.3-2.9-9.6-7.1l-7.8-25.5c-0.3-1-0.4-2-0.4-3l1.9-235.9-172.9-64.1c-3.9-1.5-6.6-5.2-6.5-9.4l0.6-84.4c0-3.1 1.5-6 3.9-7.9l54.5-41.5 6.5-27.9c0.8-3.6 3.6-6.5 7.2-7.4l2.4-0.6c0.9-3.4 3.6-6.1 7.1-7.1l34.5-9.3c3.6-1 7.4 0.2 9.9 2.8l3.5-0.9c3.1-0.8 6.4-0.1 8.9 2l22.6 18.7h94.5c2.4 0 4.7 0.8 6.5 2.4l55.9 47.6c2.2 1.9 3.5 4.7 3.5 7.6v124.7c0 2.8-1.2 5.4-3.2 7.3l-29 27.2v256.2c0 1-0.2 2-0.5 3l-8 25.5c-1.2 4.1-5.1 7-9.5 7z m-69.1-20h61.7l5.3-17v-259c0-2.8 1.2-5.4 3.2-7.3l29.1-27.1V362.4l-49.6-42.3h-94.4c-2.3 0-4.6-0.8-6.4-2.3L509.2 300l-6 1.6c-3.6 1-7.3-0.2-9.8-2.8l-20.6 5.6c-0.9 3.4-3.6 6.2-7.1 7.1l-3.1 0.8-5.9 25.5c-0.5 2.3-1.8 4.3-3.7 5.7l-53.5 40.7-0.5 72.5 172.9 64.1c3.9 1.5 6.6 5.2 6.5 9.5l-1.9 241.3 5.3 17.1z" fill="#47473B" p-id="32180"></path></svg>