<?xml version="1.0" standalone="no"?><!DOCTYPE svg PUBLIC "-//W3C//DTD SVG 1.1//EN" "http://www.w3.org/Graphics/SVG/1.1/DTD/svg11.dtd"><svg t="1650263688743" class="icon" viewBox="0 0 1024 1024" version="1.1" xmlns="http://www.w3.org/2000/svg" p-id="2399" xmlns:xlink="http://www.w3.org/1999/xlink" width="200" height="200"><defs><style type="text/css">@font-face { font-family: feedback-iconfont; src: url("//at.alicdn.com/t/font_1031158_u69w8yhxdu.woff2?t=1630033759944") format("woff2"), url("//at.alicdn.com/t/font_1031158_u69w8yhxdu.woff?t=1630033759944") format("woff"), url("//at.alicdn.com/t/font_1031158_u69w8yhxdu.ttf?t=1630033759944") format("truetype"); }
</style></defs><path d="M64 360.64h134.03v40.35H64z" fill="#28CCFF" p-id="2400"></path><path d="M100.17 324v377.97H64V740h108.52V324z" fill="#28CCFF" p-id="2401"></path><path d="M64 513.22h134.03v36.64H64zM223.07 324v36.64h178.09v92.29l71.42 28.75V324zM397.91 612v87.65H223.07V740h249.51V582.32z" fill="#28CCFF" p-id="2402"></path><path d="M223.07 513.22h249.51v36.64H223.07z" fill="#FEC049" p-id="2403"></path><path d="M550.96 324v184.11l50.08 19.02V360.64h40.35v341.8h-38.03l-1.85-170.21-50.55 21.34v182.72h140.98V324zM724.87 324v303.31h55.19V360.64h125.68v266.67H960V324z" fill="#28CCFF" p-id="2404"></path><path d="M809.74 400.98v300.53h-84.87V740h150.26V400.98zM905.74 673.22H960V740h-54.26z" fill="#28CCFF" p-id="2405"></path></svg>