<svg class="ldi-cbf4qf" width="200px"  height="200px"  xmlns="http://www.w3.org/2000/svg" xmlns:xlink="http://www.w3.org/1999/xlink" viewBox="0 0 100 100" preserveAspectRatio="xMidYMid" style="background: none;"><!--?xml version="1.0" encoding="utf-8"?--><!--Generator: Adobe Illustrator 21.0.0, SVG Export Plug-In . SVG Version: 6.00 Build 0)--><svg version="1.1" id="Layer_1" xmlns="http://www.w3.org/2000/svg" xmlns:xlink="http://www.w3.org/1999/xlink" x="0px" y="0px" viewBox="0 0 100 100" style="transform-origin: 50px 50px 0px;" xml:space="preserve"><g style="transform-origin: 50px 50px 0px;"><g fill="rgb(0, 0, 0)" style="fill: rgb(0, 0, 0); transform-origin: 50px 50px 0px; transform: scale(0.6);"><g style="transform-origin: 50px 50px 0px;"><g fill="rgb(0, 0, 0)" style="fill: rgb(0, 0, 0);"><g style="transform-origin: 50px 50px 0px;"><g fill="rgb(0, 0, 0)" style="fill: rgb(0, 0, 0);"><g class="ld ld-fade" style="transform-origin: 50px 50px 0px; animation-duration: 2s; animation-delay: -2s; animation-direction: normal;"><path style="fill:#849b87" d="M50,36.443c-11.369,0-21.077,7.089-24.962,17.085h11.346C38.503,43.532,43.799,36.443,50,36.443z" fill="rgb(132, 155, 135)"></path></g><g class="ld ld-fade" style="transform-origin: 50px 50px 0px; animation-duration: 2s; animation-delay: -1.92857s; animation-direction: normal;"><path style="fill:#acbd81" d="M35.394,63.222c0-3.42,0.353-6.686,0.991-9.693H25.038c-1.169,3.007-1.816,6.273-1.816,9.693 c0,3.235,0.574,6.336,1.625,9.206H36.28C35.707,69.557,35.394,66.457,35.394,63.222z" fill="rgb(172, 189, 129)"></path></g><g class="ld ld-fade" style="transform-origin: 50px 50px 0px; animation-duration: 2s; animation-delay: -1.85714s; animation-direction: normal;"><path style="fill:#e0e0e0" d="M36.28,72.428H24.846C28.6,82.682,38.446,90,50,90C43.698,90,38.327,82.682,36.28,72.428z" fill="rgb(224, 224, 224)"></path></g><g class="ld ld-fade" style="transform-origin: 50px 50px 0px; animation-duration: 2s; animation-delay: -1.78571s; animation-direction: normal;"><path style="fill: rgb(160, 200, 215);" d="M63.616,53.529h11.346C71.077,43.532,61.369,36.443,50,36.443 C56.201,36.443,61.497,43.532,63.616,53.529z" fill="#a0c8d7"></path></g><g class="ld ld-fade" style="transform-origin: 50px 50px 0px; animation-duration: 2s; animation-delay: -1.71429s; animation-direction: normal;"><path style="fill: rgb(50, 50, 50);" d="M50,90c11.554,0,21.4-7.318,25.154-17.572H63.72C61.673,82.682,56.302,90,50,90z" fill="#323232"></path></g><g class="ld ld-fade" style="transform-origin: 50px 50px 0px; animation-duration: 2s; animation-delay: -1.64286s; animation-direction: normal;"><path style="fill: rgb(118, 164, 189);" d="M74.962,53.529H63.616c0.637,3.007,0.991,6.273,0.991,9.693c0,3.235-0.313,6.336-0.886,9.206h11.433 c1.051-2.871,1.625-5.972,1.625-9.206C76.778,59.802,76.13,56.535,74.962,53.529z" fill="#76a4bd"></path></g><g class="ld ld-fade" style="transform-origin: 50px 50px 0px; animation-duration: 2s; animation-delay: -1.57143s; animation-direction: normal;"><path style="fill: rgb(160, 200, 215);" d="M36.28,72.428C38.327,82.682,43.698,90,50,90V72.428H36.28z" fill="#a0c8d7"></path></g><g class="ld ld-fade" style="transform-origin: 50px 50px 0px; animation-duration: 2s; animation-delay: -1.5s; animation-direction: normal;"><path style="fill:#e0e0e0" d="M36.384,53.529c-0.637,3.007-0.991,6.273-0.991,9.693c0,3.235,0.313,6.336,0.886,9.206H50v-18.9 H36.384z" fill="rgb(224, 224, 224)"></path></g><g class="ld ld-fade" style="transform-origin: 50px 50px 0px; animation-duration: 2s; animation-delay: -1.42857s; animation-direction: normal;"><path style="fill: rgb(160, 200, 215);" d="M50,72.428h13.72c0.573-2.871,0.886-5.972,0.886-9.206c0-3.42-0.353-6.686-0.991-9.693H50V72.428z" fill="#a0c8d7"></path></g><g class="ld ld-fade" style="transform-origin: 50px 50px 0px; animation-duration: 2s; animation-delay: -1.35714s; animation-direction: normal;"><path style="fill: rgb(118, 164, 189);" d="M63.72,72.428H50V90C56.302,90,61.673,82.682,63.72,72.428z" fill="#76a4bd"></path></g><g class="ld ld-fade" style="transform-origin: 50px 50px 0px; animation-duration: 2s; animation-delay: -1.28571s; animation-direction: normal;"><path style="fill:#acbd81" d="M36.384,53.529H50V36.443C43.799,36.443,38.503,43.532,36.384,53.529z" fill="rgb(172, 189, 129)"></path></g><g class="ld ld-fade" style="transform-origin: 50px 50px 0px; animation-duration: 2s; animation-delay: -1.21429s; animation-direction: normal;"><path style="fill:#e0e0e0" d="M63.616,53.529C61.497,43.532,56.201,36.443,50,36.443v17.085H63.616z" fill="rgb(224, 224, 224)"></path></g><g class="ld ld-fade" style="transform-origin: 50px 50px 0px; animation-duration: 2s; animation-delay: -1.14286s; animation-direction: normal;"><path style="opacity: 0.1; fill: rgb(0, 0, 0);" d="M67.991,43.388c0.074,0.991,0.121,1.991,0.121,3.003c0,20.187-14.954,36.551-33.4,36.551 c-1.007,0-2.001-0.057-2.985-0.153C36.513,87.259,42.935,90,50,90c14.789,0,26.778-11.989,26.778-26.778 C76.778,55.358,73.388,48.286,67.991,43.388z" fill="rgb(0, 0, 0)"></path></g></g></g><g style="transform-origin: 50px 50px 0px;"><g fill="rgb(0, 0, 0)" style="fill: rgb(0, 0, 0);"><g class="ld ld-fade" style="transform-origin: 50px 50px 0px; animation-duration: 2s; animation-delay: -1.07143s; animation-direction: normal;"><path style="fill: rgb(195, 55, 54);" d="M47.786,10.123c-9.043,1.001-16.27,8.371-17.113,17.431c-0.685,7.364,2.747,13.978,8.259,17.808 c5.542,3.851,9.434,9.64,10.434,16.314l0.083,0.555c0.057,0.377,0.381,0.656,0.762,0.656s0.706-0.279,0.762-0.656l0.183-1.219 c0.959-6.406,4.675-11.973,9.978-15.692c5.007-3.511,8.28-9.325,8.28-15.905C69.414,17.963,59.499,8.827,47.786,10.123z M50,37.001 c-4.19,0-7.587-3.397-7.587-7.587c0-4.19,3.397-7.587,7.587-7.587s7.587,3.397,7.587,7.587C57.587,33.605,54.19,37.001,50,37.001z" fill="#c33736"></path></g><g class="ld ld-fade" style="transform-origin: 50px 50px 0px; animation-duration: 2s; animation-delay: -1s; animation-direction: normal;"><path style="opacity: 0.1; fill: rgb(0, 0, 0);" d="M62.6,14.652c0.263,1.752,0.407,3.552,0.407,5.393c0,8.494-2.919,16.188-7.646,21.788 C51.816,46.033,50,51.425,50,56.922v5.927c0.068,0.02,0.137,0.038,0.211,0.038c0.381,0,0.706-0.279,0.762-0.656l0.183-1.219 c0.959-6.406,4.675-11.973,9.978-15.692c5.007-3.511,8.28-9.325,8.28-15.905C69.414,23.503,66.768,18.213,62.6,14.652z" fill="rgb(0, 0, 0)"></path></g><g class="ld ld-fade" style="transform-origin: 50px 50px 0px; animation-duration: 2s; animation-delay: -0.928571s; animation-direction: normal;"><path style="fill: none; stroke: rgb(255, 255, 255); stroke-width: 2; stroke-linecap: round; stroke-linejoin: round; stroke-miterlimit: 10;" d=" M35.893,19.973c1.423-2.133,3.282-3.831,5.643-5.095" stroke="#ffffff"></path></g><g class="ld ld-fade" style="transform-origin: 50px 50px 0px; animation-duration: 2s; animation-delay: -0.857143s; animation-direction: normal;"><path style="fill: none; stroke: rgb(255, 255, 255); stroke-width: 2; stroke-linecap: round; stroke-linejoin: round; stroke-miterlimit: 10;" d=" M33.88,24.025c0.159-0.441,0.33-0.869,0.512-1.286" stroke="#ffffff"></path></g></g></g><metadata xmlns:d="https://loading.io/stock/" class="ld ld-fade" style="transform-origin: 50px 50px 0px; animation-duration: 2s; animation-delay: -0.785714s; animation-direction: normal;">
<d:name class="ld ld-fade" style="transform-origin: 50px 50px 0px; animation-duration: 2s; animation-delay: -0.714286s; animation-direction: normal;">marker</d:name>
<d:tags class="ld ld-fade" style="transform-origin: 50px 50px 0px; animation-duration: 2s; animation-delay: -0.642857s; animation-direction: normal;">marker,location,localize,site,language,international,foreign,global,relocate</d:tags>
<d:license class="ld ld-fade" style="transform-origin: 50px 50px 0px; animation-duration: 2s; animation-delay: -0.571429s; animation-direction: normal;">cc-by</d:license>
<d:slug class="ld ld-fade" style="transform-origin: 50px 50px 0px; animation-duration: 2s; animation-delay: -0.5s; animation-direction: normal;">cbf4qf</d:slug>
</metadata></g></g></g></g><style type="text/css" class="ld ld-fade" style="transform-origin: 50px 50px 0px; animation-duration: 2s; animation-delay: -0.428571s; animation-direction: normal;">path,ellipse,circle,rect,polygon,polyline,line { stroke-width: 0; }@keyframes ld-fade {
  0% {
    opacity: 1;
  }
  100% {
    opacity: 0;
  }
}
@-webkit-keyframes ld-fade {
  0% {
    opacity: 1;
  }
  100% {
    opacity: 0;
  }
}
.ld.ld-fade {
  -webkit-animation: ld-fade 1s infinite linear;
  animation: ld-fade 1s infinite linear;
}
</style></svg></svg>