<?xml version="1.0" standalone="no"?><!DOCTYPE svg PUBLIC "-//W3C//DTD SVG 1.1//EN" "http://www.w3.org/Graphics/SVG/1.1/DTD/svg11.dtd"><svg t="1640672383655" class="icon" viewBox="0 0 1024 1024" version="1.1" xmlns="http://www.w3.org/2000/svg" p-id="20600" xmlns:xlink="http://www.w3.org/1999/xlink" width="200" height="200"><defs><style type="text/css"></style></defs><path d="M512 705.8c-43.5 0-78.9 35.4-78.9 78.9s35.4 78.9 78.9 78.9c43.5 0 78.9-35.4 78.9-78.9s-35.4-78.9-78.9-78.9zM616.9 374.4v-2.5c0-57.6-46.8-104.4-104.4-104.4s-104.4 46.8-104.4 104.4c0 7.9 0.9 15.7 2.7 23.5l39.9 224.9C454 641 471.5 656 492.5 656h39.9c20.9 0 38.4-14.9 41.8-35.5l39.9-213.8c2.8-14.2 2.8-22.6 2.8-32.3zM809.1 465.6v407.9h71.5V652.1h61.3L809.1 465.6z m41.5 156.5v221.4h-11.5v-284l44.6 62.7h-33.1zM717.6 761.6h-61.3l132.8 186.5V540.3h-71.5v221.3z m30-191.3h11.5v284l-44.6-62.7h33.1V570.3z" p-id="20601" fill="#515151"></path><path d="M641.1 889.7h-470c-12.8 0-24.1-6.3-30.8-17.2s-7.3-23.8-1.6-35.3l341.4-682.9c6.3-12.5 18.4-20 32.4-20s26.2 7.5 32.4 20l150.2 300.3c5.6 11.1 19.1 15.6 30.2 10.1 11.1-5.6 15.6-19.1 10.1-30.2L585.2 134.2c-13.9-27.7-41.7-44.9-72.7-44.9s-58.8 17.2-72.7 44.9L98.4 817.1C85.7 842.5 87 872 102 896.2c14.9 24.1 40.8 38.5 69.1 38.5h470c12.4 0 22.5-10.1 22.5-22.5s-10.1-22.5-22.5-22.5z" p-id="20602" fill="#515151"></path></svg>