<svg t="1689901714496" class="icon" viewBox="0 0 1024 1024" version="1.1" xmlns="http://www.w3.org/2000/svg" p-id="31980" width="200" height="200"><path d="M512 512m-512 0a512 512 0 1 0 1024 0 512 512 0 1 0-1024 0Z" fill="#EFEFF4" p-id="31981"></path><path d="M663.877818 696.308364a136.890182 136.890182 0 1 1-273.768727 0c0-75.636364 61.288727-44.311273 136.890182-44.311273s136.890182-31.278545 136.890182 44.311273" fill="#D2D2D8" opacity=".5" p-id="31982"></path><path d="M437.096727 430.650182a85.073455 85.073455 0 1 1-85.061818-85.073455 85.061818 85.061818 0 0 1 85.061818 85.073455" fill="#D2D2D8" opacity=".5" p-id="31983"></path><path d="M339.909818 642.490182a53.806545 53.806545 0 1 1-53.806545-53.806546 53.806545 53.806545 0 0 1 53.806545 53.806546" fill="#D2D2D8" opacity=".5" p-id="31984"></path><path d="M232.296727 551.563636a35.851636 35.851636 0 1 1-35.851636-35.851636 35.851636 35.851636 0 0 1 35.851636 35.851636" fill="#D2D2D8" opacity=".5" p-id="31985"></path><path d="M160.581818 646.027636a22.109091 22.109091 0 1 1-22.109091-22.109091 22.109091 22.109091 0 0 1 22.109091 22.109091" fill="#D2D2D8" opacity=".5" p-id="31986"></path><path d="M612.200727 753.885091a272.290909 272.290909 0 0 1-249.146182-162.234182l41.146182-24.436364a37.573818 37.573818 0 0 1 43.531637 3.712l47.383272 40.343273a52.898909 52.898909 0 0 0 68.817455-0.174545l147.700364-127.115637 46.033454 45.265455a2.676364 2.676364 0 0 0 2.874182 0.546909 2.618182 2.618182 0 0 0 1.629091-2.432v-130.816a2.594909 2.594909 0 0 0-0.791273-1.861818 2.629818 2.629818 0 0 0-1.873454-0.779637h-133.050182a2.618182 2.618182 0 0 0-2.466909 1.640728 2.641455 2.641455 0 0 0 0.581818 2.885818l55.703273 54.760727-126.254546 108.753455a37.585455 37.585455 0 0 1-48.872727 0.139636l-32.733091-27.927273a82.850909 82.850909 0 0 0-95.976727-8.145454l-29.940364 15.406545a273.908364 273.908364 0 0 1-6.586182-59.741091 272.221091 272.221091 0 0 1 464.721455-192.488727 272.209455 272.209455 0 0 1-192.430546 464.698182z" fill="#D2D2D8" p-id="31987"></path></svg>