<svg t="1646643297860" class="icon" viewBox="0 0 1024 1024" version="1.1" xmlns="http://www.w3.org/2000/svg" p-id="16160" width="200" height="200"><path d="M257.70666667 766.29333333H142.12778667v115.60277334l115.57888-0.01137778z" p-id="16161" fill="#ffffff"></path><path d="M303.92888889 535.09916445h-92.35000889v-69.34528h-69.39192889v69.34528h69.28611556v92.4922311H3.41333333V1020.58666667h392.99527112V627.57888h-92.47971556v-92.47971555z m23.13443556 161.84888888v254.29333334h-254.29333334v-254.29333334h254.29333334zM558.24611555 49.64693333h-92.51498666v92.46833778l92.51498666-0.01137778zM696.93667555 627.59139555v-161.8375111H558.22222222v-92.47971556h-92.45582222v92.47971556h-161.82613333v69.34528h300.54058666v92.47971555z" p-id="16162" fill="#ffffff"></path><path d="M72.79388445 465.75388445h69.33390222v-69.35665778h254.29333333V3.41333333H3.41333333v392.98389334h69.35665778v69.35665778H3.41333333v69.34528h69.38055112v-69.34528z m-0.02389334-392.99527112h254.29333334v254.28195556h-254.29333334v-254.28195556zM558.24611555 743.17027555V627.59139555h-92.51498666v115.56750223zM465.73112889 211.47306667h92.51498666v92.45696h-92.51498666z" p-id="16163" fill="#ffffff"></path><path d="M142.12778667 142.10389333H257.70666667V257.70666667H142.12778667zM696.99584 696.92416l69.39192889 0.01251555v-69.34528h-69.39192889zM766.40028445 465.75388445h138.74858666v69.34528H766.40028445zM951.17084445 465.75388445H1020.58666667v69.34528h-69.41582222zM627.59139555 3.41333333v392.97137778l392.99527112 0.01251556V3.41333333H627.59139555z m323.64999112 323.62723556h-254.29333334v-254.28195556h254.29333334v254.28195556z" p-id="16164" fill="#ffffff"></path><path d="M766.29333333 142.10389333h115.58001778V257.70666667H766.29333333zM835.54417778 696.92416l185.04248889 0.01251555v-69.34528H835.54417778zM604.49223111 951.21749333h-46.24611556V1020.58666667h69.38055112v-69.36917334h69.36917333V743.15889778h-92.50360889zM835.78083555 881.87221333h-69.3805511v69.36917334l69.23832888-0.02389334V1020.58666667H1020.58666667v-69.36917334H835.78083555zM465.73112889 812.52693333h92.51498666v138.69056h-92.51498666zM951.24138667 812.50304h-46.2336v69.39306667l92.45582222-0.02389334v-69.36917333H1020.58666667v-69.34414222h-69.34528zM835.78083555 743.15889778h-69.3805511v69.39192889l69.3805511-0.02389334z" p-id="16165" fill="#ffffff"></path></svg>