<svg t="1693212652007" class="icon" viewBox="0 0 1024 1024" version="1.1" xmlns="http://www.w3.org/2000/svg" p-id="11580" width="200" height="200"><path d="M399.524 0.404H0.056v398.664h399.468V0.404zM350.1 349.558H50.432V50.688H350.1v298.87z" fill="#666666" p-id="11581"></path><path d="M124.82 124.861h150.36v151.89H124.82z m424.628 474.522h75.279v-74.107h74.89V449.22h-75.28v74.89h-74.89zM25.298 474.179h74.665v74.67H25.298zM474.558 24.59h75.279v150.17h-75.28z m249.63 749.927h75.28v74.5h-75.28z m-249.63-549.166h75.279v74.475h-75.28z m324.52 273.792h75.28v74.5h-75.28zM124.82 748.913h150.36v151.89H124.82z m599.368-99.461H649.58v74.475h224.256v-74.475h-74.368v-75.418h-75.28z m199.71-0.528h75.28v74.501h-75.28z m0 274.57h-49.54v-74.086h-75.28v74.086h-74.941v76.058h274.96v-73.308h0.081V773.74h-75.28z m0-447.759h75.28v72.945h-75.28z m-174.99-350.874H899.24v151.89H748.908z" fill="#666666" p-id="11582"></path><path d="M624.532 0.404v398.664H1024V0.404H624.532z m349.266 349.154H674.125V50.688h299.673v298.87zM549.837 773.325h74.89v-72.92h-74.89V599.527h-75.28v398.219h74.89v1.054h75.28v-74.5h-74.89zM474.28 349.89h75.556v74.506H474.28zM175.078 474.179h249.964v75.53H175.078z" fill="#666666" p-id="11583"></path><path d="M624.338 848.63h75.274v74.506h-75.274zM0 1023.596h399.468V624.937H0v398.659z m50.37-348.401h299.674v298.89H50.371v-298.89z" fill="#666666" p-id="11584"></path></svg>