<svg t="1671517196289" class="icon" viewBox="0 0 1024 1024" version="1.1" xmlns="http://www.w3.org/2000/svg" p-id="6418" width="200" height="200"><path d="M534.826667 83.04A428.533333 428.533333 0 0 0 178.613333 247.466667a5.333333 5.333333 0 0 1-8.8-0.586667l-7.946666-13.706667a5.333333 5.333333 0 0 0-4.586667-2.666666H83.36a5.333333 5.333333 0 0 0-4.64 8l92.48 160a5.333333 5.333333 0 0 0 9.653333-0.853334 349.546667 349.546667 0 0 1 17.013334-41.28A354.56 354.56 0 1 1 161.973333 512c0-9.76 0.426667-19.413333 1.226667-29.013333a5.333333 5.333333 0 0 0-0.693333-3.04l-49.386667-85.333334a5.333333 5.333333 0 0 0-9.813333 1.28 429.386667 429.386667 0 1 0 431.52-312.586666z" p-id="6419" fill="#d81e06"></path><path d="M359.36 602.666667q-16.533333 12.48-33.066667 26.186666a5.333333 5.333333 0 0 0-1.706666 5.813334l19.52 59.893333a5.333333 5.333333 0 0 0 9.173333 1.813333 548.48 548.48 0 0 1 38.56-40.373333 5.333333 5.333333 0 0 1 7.946667 0.32q27.306667 33.546667 85.333333 34.986667l83.893333 3.146666h119.413334a5.333333 5.333333 0 0 0 5.333333-3.946666c5.066667-18.133333 10.08-33.973333 15.146667-47.413334a5.333333 5.333333 0 0 0-5.013334-7.2q-16.96 0-34.506666 0.906667a5.333333 5.333333 0 0 1-4.213334-8.96l28.053334-30.186667a5.333333 5.333333 0 0 0-1.28-8.266666c-1.44-0.8-3.093333-1.546667-4.96-2.346667a4.16 4.16 0 0 1-1.173334-0.64c-8.853333-6.666667-16-11.946667-21.866666-16a5.333333 5.333333 0 0 1 0-8.586667q18.56-13.6 39.093333-28.106666a5.333333 5.333333 0 0 0 0.533333-8.373334l-23.306666-20.853333a5.333333 5.333333 0 0 1-1.813334-4V343.786667a5.333333 5.333333 0 0 0-5.333333-5.333334H458.666667a5.333333 5.333333 0 0 0-5.333334 5.333334V560a55.093333 55.093333 0 0 1-11.626666 34.88 5.333333 5.333333 0 0 0 0 6.453333l17.76 25.386667a1.12 1.12 0 0 1-1.28 1.653333 70.4 70.4 0 0 1-32-29.013333 5.866667 5.866667 0 0 1-0.853334-2.933333V454.613333a5.333333 5.333333 0 0 0-5.333333-5.333333H330.346667a5.333333 5.333333 0 0 0-5.333334 5.333333v51.04a5.333333 5.333333 0 0 0 5.333334 5.333334h25.76a5.333333 5.333333 0 0 1 5.333333 5.333333v82.24a5.333333 5.333333 0 0 1-2.08 4.106667z m277.333333-79.306667a218.666667 218.666667 0 0 1-17.066666 13.76 5.333333 5.333333 0 0 1-6.24 0c-7.52-5.333333-24.64-16.426667-32-21.333333a1.066667 1.066667 0 0 1 0.64-1.973334h50.986666a5.333333 5.333333 0 0 1 3.52 9.706667zM512 389.706667a5.333333 5.333333 0 0 1 5.333333-5.333334h98.506667a5.333333 5.333333 0 0 1 5.333333 5.333334v11.466666a5.333333 5.333333 0 0 1-5.333333 5.333334H517.333333a5.333333 5.333333 0 0 1-5.333333-5.333334z m0 63.306666a5.333333 5.333333 0 0 1 5.333333-5.333333h98.506667a5.333333 5.333333 0 0 1 5.333333 5.333333v9.92a5.333333 5.333333 0 0 1-5.333333 5.333334H517.333333a5.333333 5.333333 0 0 1-5.333333-5.333334z m0 66.506667a5.333333 5.333333 0 0 1 5.333333-5.333333h29.706667a5.333333 5.333333 0 0 1 3.893333 9.013333l-15.68 16.533333a5.333333 5.333333 0 0 0 0.8 8.053334l5.973334 4.373333 3.573333 2.4a5.333333 5.333333 0 0 1-1.866667 9.706667q-13.226667 2.72-25.28 5.333333a5.333333 5.333333 0 0 1-6.506666-5.333333z m-22.453333 112h0.586666a52.213333 52.213333 0 0 1 12.373334-3.093333q19.04-4.746667 58.666666-11.04c6.08-0.746667 11.36-1.546667 16-2.293334a5.333333 5.333333 0 0 0 4.32-5.706666c-0.48-6.026667-0.8-11.946667-1.013333-17.653334a5.333333 5.333333 0 0 1 8.533333-4.48q24.8 18.08 53.813334 41.12a5.333333 5.333333 0 0 1-3.306667 9.6H500.746667A74.24 74.24 0 0 1 480 634.666667h-3.2a118.133333 118.133333 0 0 1 12.586667-3.253334z" p-id="6420" fill="#d81e06"></path><path d="M385.173333 429.28l48.746667-26.346667a5.333333 5.333333 0 0 0 1.973333-7.573333q-20.32-31.52-49.493333-70.613333a5.333333 5.333333 0 0 0-6.88-1.493334L336.48 346.666667a5.333333 5.333333 0 0 0-1.866667 7.626666 797.066667 797.066667 0 0 1 43.306667 72.746667 5.333333 5.333333 0 0 0 7.253333 2.24z" p-id="6421" fill="#d81e06"></path></svg>