<?xml version="1.0" standalone="no"?><!DOCTYPE svg PUBLIC "-//W3C//DTD SVG 1.1//EN" "http://www.w3.org/Graphics/SVG/1.1/DTD/svg11.dtd"><svg t="1639735585143" class="icon" viewBox="0 0 1024 1024" version="1.1" xmlns="http://www.w3.org/2000/svg" p-id="5105" data-spm-anchor-id="a313x.7781069.0.i4" xmlns:xlink="http://www.w3.org/1999/xlink" width="200" height="200"><defs><style type="text/css"></style></defs><path d="M892.798096 206.401528L582.399648 19.199904c-43.202344-25.599872-97.602072-25.599872-140.799296 0L131.201904 206.401528C89.602112 230.398848 64.00224 275.198624 64.00224 323.198384v379.200664c0 47.99976 25.599872 92.799536 67.199664 116.801976l310.398448 185.599072c22.399888 12.799936 46.402328 19.199904 70.399648 19.199904s49.602312-6.399968 70.399648-19.199904L895.99808 817.598472c11.202504-6.399968 15.99992-22.399888 8.00252-33.602392-6.399968-11.202504-22.399888-15.99992-33.602392-8.00252l-312.001 187.201624c-28.799856 17.602472-62.402248 17.602472-91.202104 0l-310.398448-185.599072a87.269964 87.269964 0 0 1-43.202344-75.202184V323.198384a87.269964 87.269964 0 0 1 43.202344-75.202184l310.398448-185.599072c28.799856-17.602472 62.402248-17.602472 91.202104 0l310.398448 185.599072a87.269964 87.269964 0 0 1 43.202344 75.202184v318.400968c0 12.799936 11.202504 24.00244 24.00244 24.00244s24.00244-11.202504 24.00244-24.00244V323.198384C959.99776 275.198624 934.397888 230.398848 892.798096 206.401528zM390.400608 801.598552c-1.602552 11.202504 1.602552 22.399888 8.00252 30.402408s17.602472 12.799936 28.799856 12.799936c12.799936 0 24.00244-6.399968 30.402408-15.99992l313.598432-335.99832 3.199984-4.802536c6.399968-11.202504 6.399968-24.00244 0-35.199824-6.399968-9.599952-15.99992-17.602472-27.202424-19.199904l-195.199024-47.99976 65.602232-166.399168v-4.802536c0-9.599952-3.199984-19.199904-9.599952-27.202424-14.402488-15.99992-43.202344-14.402488-56.00228 3.199984L278.401168 454.397728l-3.199984 4.802536c-6.399968 11.202504-8.00252 25.599872-1.602552 36.802376s17.602472 17.602472 28.799856 19.199904L480.00016 550.397248l-88.00212 248.00132-1.597432 3.199984z m143.99928-251.201304l1.602552-3.199984c1.602552-11.202504 0-20.802456-8.00252-30.402408-6.399968-8.00252-15.99992-12.799936-25.599872-12.799936l-168.00172-31.99984 211.198944-203.201544-47.99976 123.201944v4.802536c0 9.599952 3.199984 19.199904 9.599952 25.599872s14.402488 9.599952 22.399888 11.202504l188.799056 46.402328L460.800256 751.99624l73.599632-201.598992z" fill="#d81e06" p-id="5106" data-spm-anchor-id="a313x.7781069.0.i5" class="selected"></path><path d="M583.679642 225.278874l-56.319719 168.959155 225.278874 71.679641-317.438413 345.598272L491.520102 532.477338 307.201024 481.277594z" fill="#d81e06" p-id="5107"></path></svg>