<svg t="1680070431474" class="icon" viewBox="0 0 1024 1024" version="1.1" xmlns="http://www.w3.org/2000/svg" p-id="4778" width="200" height="200"><path d="M324.691475 724.281801l24.972764 0L349.66424 312.203558l-24.972764 0L324.691475 724.281801zM362.151645 724.281801l24.974811 0L387.126456 312.203558l-24.974811 0L362.151645 724.281801zM212.304825 724.281801l24.974811 0L237.279636 312.203558l-24.974811 0L212.304825 724.281801zM99.920222 724.281801l62.436004 0L162.356226 312.203558 99.920222 312.203558 99.920222 724.281801zM412.101267 724.281801l49.950645 0L462.051913 312.203558l-49.950645 0L412.101267 724.281801zM12.509407 262.253936l62.436004 0L74.945411 249.768577 0.020978 249.768577l0 74.921363 12.487406 0L12.508383 262.253936zM12.509407 699.311083 0.020978 699.311083l0 74.921363 74.92341 0 0-12.485359L12.509407 761.747087 12.509407 699.311083zM62.458005 724.281801 87.431793 724.281801 87.431793 312.203558 62.458005 312.203558 62.458005 724.281801zM611.897709 724.281801l24.972764 0L636.870474 312.203558l-24.972764 0L611.897709 724.281801zM961.543018 312.203558l-24.974811 0 0 412.078243 24.974811 0L961.543018 312.203558zM1011.491617 761.746064 949.055612 761.746064l0 12.485359 74.92341 0 0-74.92341-12.487406 0L1011.491617 761.746064zM949.055612 249.768577l0 12.485359 62.436004 0 0 62.436004 12.487406 0 0-74.922387L949.055612 249.768577 949.055612 249.768577zM861.644797 724.281801l24.972764 0L886.617561 312.203558 861.644797 312.203558 861.644797 724.281801zM512.000512 724.281801l24.974811 0L536.975323 312.203558l-24.974811 0L512.000512 724.281801zM661.846308 724.281801l49.951669 0L711.797977 312.203558l-49.951669 0L661.846308 724.281801zM761.744529 724.281801l24.974811 0L786.71934 312.203558l-24.974811 0L761.744529 724.281801z" p-id="4779" fill="#707070"></path><path d="M561.950134 724.281801c5.476735 0 10.960633 0 16.437367 0 0-137.332808 0-274.718829 0-412.078243-5.476735 0-10.960633 0-16.437367 0C561.950134 449.562972 561.950134 586.948993 561.950134 724.281801z" p-id="4780" fill="#707070"></path><path d="M810.135656 312.203558c0 137.358391 0 274.745435 0 412.078243 5.474688 0 10.962679 0 16.437367 0 0-137.332808 0-274.718829 0-412.078243C821.096289 312.203558 815.610344 312.203558 810.135656 312.203558z" p-id="4781" fill="#707070"></path></svg>