<?xml version="1.0" ?><!DOCTYPE svg  PUBLIC '-//W3C//DTD SVG 1.1//EN'  'http://www.w3.org/Graphics/SVG/1.1/DTD/svg11.dtd'><svg enable-background="new 0 0 512 512" height="512px" id="Calque_1" version="1.1" viewBox="0 0 512 512" width="512px" xml:space="preserve" xmlns="http://www.w3.org/2000/svg" xmlns:xlink="http://www.w3.org/1999/xlink"><g><path d="M470.209,256c0,1.9-0.021,3.79-0.079,5.67c-1.421,55.104-23.54,106.69-62.66,145.804   c-40.45,40.46-94.25,62.74-151.47,62.74c-57.224,0-111.021-22.28-151.474-62.74C65.41,368.361,43.29,316.77,41.87,261.67   c-0.063-1.88-0.08-3.77-0.08-5.67c0-57.22,22.276-111.01,62.736-151.47C144.98,64.07,198.78,41.79,256,41.79   c57.22,0,111.02,22.28,151.47,62.74C447.93,144.99,470.209,198.78,470.209,256z" fill="#F3B81A"/><g><g><path d="M407.47,104.53C367.02,64.07,313.22,41.79,256,41.79c-57.224,0-111.021,22.28-151.474,62.74     C64.07,144.99,41.79,198.78,41.79,256c0,1.9,0.02,3.79,0.08,5.67c1.42,55.104,23.54,106.69,62.656,145.804     c40.45,40.46,94.25,62.74,151.474,62.74c57.22,0,111.02-22.28,151.47-62.74c39.12-39.109,61.239-90.7,62.66-145.804     c0.061-1.88,0.079-3.77,0.079-5.67C470.209,198.78,447.93,144.99,407.47,104.53z M256,460.214     c-94.604,0-174.38-64.663-197.474-152.11C54.13,291.47,51.79,274,51.79,256C51.79,143.4,143.4,51.79,256,51.79     c112.6,0,204.209,91.61,204.209,204.21c0,18-2.343,35.474-6.739,52.104C430.38,395.551,350.6,460.214,256,460.214z" fill="#5E2B16"/></g><g><path d="M256,384.651c-40.753,0-78.529-19.065-98.586-49.755l8.371-5.475     c18.229,27.896,52.799,45.229,90.215,45.229s71.98-17.329,90.215-45.229l8.371,5.475     C334.529,365.586,296.754,384.651,256,384.651z" fill="#5E2B16"/></g></g><g><g><path d="M217.475,247.421l-26.925-14.153l-26.925,14.153l5.142-29.979l-21.782-21.233l30.104-4.374l13.462-27.275     l13.462,27.275l30.104,4.374l-21.782,21.233L217.475,247.421z M190.55,221.968l13.644,7.175l-2.604-15.193l11.038-10.759     l-15.254-2.217l-6.822-13.822l-6.822,13.822l-15.254,2.217l11.038,10.759l-2.604,15.193L190.55,221.968z" fill="#5E2B16"/></g><g><path d="M294.526,247.421l5.145-29.979l-21.783-21.233l30.104-4.374l13.462-27.275l13.464,27.275l30.104,4.374     l-21.783,21.233l5.146,29.979l-26.929-14.153L294.526,247.421z M321.448,221.968l13.646,7.175l-2.605-15.193l11.037-10.759     l-15.254-2.217l-6.822-13.822l-6.818,13.822l-15.256,2.217l11.036,10.759l-2.604,15.193L321.448,221.968z" fill="#5E2B16"/></g></g></g></svg>