<svg t="1657866402141" class="icon" viewBox="0 0 1024 1024" version="1.1" xmlns="http://www.w3.org/2000/svg" p-id="15721" width="200" height="200"><path d="M823.1 124.9H199c-62.6 0-113.7 51.2-113.7 113.7v377.7C85.3 678.9 136.5 730 199 730h92.9c8.2 0 14 7.9 11.6 15.8l-31.5 101c-2.9 9.2 7.2 17 15.4 11.9l202-126.7c1.9-1.2 4.2-1.9 6.5-1.9h327.2c62.6 0 113.7-51.2 113.7-113.7V238.6c0-62.5-51.2-113.7-113.7-113.7z" fill="#FFA300" p-id="15722"></path><path d="M281.9 880.3c-6.5 0-13-2.1-18.5-6.4-10.2-7.8-14.3-20.8-10.4-33.1l28.3-90.7H199c-73.7 0-133.7-60-133.7-133.7V238.6c0-73.7 60-133.7 133.7-133.7h624.1c73.7 0 133.7 60 133.7 133.7v377.7c0 73.7-60 133.7-133.7 133.7h-325L298 875.6c-5 3.1-10.6 4.7-16.1 4.7zM199 144.9c-51.7 0-93.7 42-93.7 93.7v377.7c0 51.7 42 93.7 93.7 93.7h92.9c10.2 0 19.9 4.9 25.9 13.1s7.8 18.9 4.8 28.6l-23.7 76L478.8 715c5.1-3.2 11-4.9 17.1-4.9h327.2c51.7 0 93.7-42 93.7-93.7V238.6c0-51.7-42-93.7-93.7-93.7H199z" fill="#BE7800" p-id="15723"></path><path d="M262.6 492.6m-53.8 0a53.8 53.8 0 1 0 107.6 0 53.8 53.8 0 1 0-107.6 0Z" fill="#FFFFFF" p-id="15724"></path><path d="M508.5 492.6m-53.8 0a53.8 53.8 0 1 0 107.6 0 53.8 53.8 0 1 0-107.6 0Z" fill="#FFFFFF" p-id="15725"></path><path d="M750.3 492.6m-53.8 0a53.8 53.8 0 1 0 107.6 0 53.8 53.8 0 1 0-107.6 0Z" fill="#FFFFFF" p-id="15726"></path></svg>