<?xml version="1.0" standalone="no"?><!DOCTYPE svg PUBLIC "-//W3C//DTD SVG 1.1//EN" "http://www.w3.org/Graphics/SVG/1.1/DTD/svg11.dtd"><svg t="1650264184560" class="icon" viewBox="0 0 1024 1024" version="1.1" xmlns="http://www.w3.org/2000/svg" p-id="2234" xmlns:xlink="http://www.w3.org/1999/xlink" width="200" height="200"><defs><style type="text/css">@font-face { font-family: feedback-iconfont; src: url("//at.alicdn.com/t/font_1031158_u69w8yhxdu.woff2?t=1630033759944") format("woff2"), url("//at.alicdn.com/t/font_1031158_u69w8yhxdu.woff?t=1630033759944") format("woff"), url("//at.alicdn.com/t/font_1031158_u69w8yhxdu.ttf?t=1630033759944") format("truetype"); }
</style></defs><path d="M1000.746667 853.973333c0 85.013333-69.418667 154.56-154.261334 154.56H163.904c-84.842667 0-154.261333-69.546667-154.261333-154.56V170.026667c0-85.013333 69.418667-154.56 154.24-154.56H846.506667c84.842667 0 154.24 69.546667 154.24 154.56v683.946666z" fill="#000500" p-id="2235"></path><path d="M859.989333 726.464v5.802667l-50.133333 104.32s-1.92 3.861333-3.861333 3.861333c-3.861333 1.92-7.722667-1.92-7.722667-1.92-23.125333-17.386667-73.258667-57.962667-138.816-131.392-32.789333 40.576-79.061333 85.013333-154.261333 131.392 0 0-3.861333 1.92-7.722667 1.92a23.872 23.872 0 0 1-5.76-3.84l-42.453333-94.698667s-1.92-1.92 0-5.781333c0-1.92 1.941333-3.861333 3.861333-5.802667 53.994667-23.189333 100.266667-59.904 138.837333-102.4a1447.594667 1447.594667 0 0 1-96.426666-144.896c-1.92-1.941333-1.92-1.941333-1.92-3.882666 0-3.84 1.92-5.781333 1.92-5.781334l38.592-34.773333s3.84-1.941333 5.76-1.941333c3.861333 0 5.802667 3.861333 5.802666 3.861333 15.424 17.386667 52.053333 63.765333 100.266667 115.925333 53.973333-81.152 84.842667-166.165333 92.544-202.88 0 0 1.92-7.722667-3.84-15.445333-5.802667-9.664-15.445333-9.664-15.445333-9.664h-131.114667s-1.92 0-3.84 1.92c-1.92 1.941333-1.92 3.882667-1.92 3.882667-7.722667 15.445333-27.008 52.16-36.650667 67.626666 0 0-1.92 1.92-5.781333 3.84-3.861333 0-5.781333-1.92-5.781333-1.92-17.365333-9.664-48.213333-38.634667-63.637334-50.218666 0 0-1.92-1.941333-1.92-3.882667 0-3.84 1.92-5.781333 1.92-5.781333 44.352-79.210667 53.973333-123.648 53.973334-146.837334 0 0 0-3.861333 1.941333-5.802666 3.84-1.92 5.781333-1.92 5.781333-1.92h80.981334s3.861333 0 5.781333 3.84c1.92 1.941333 1.92 5.802667 1.92 5.802666 0 27.050667-11.541333 69.546667-17.344 90.816 0 0-1.92 3.861333 1.92 7.722667 3.882667 3.861333 3.882667 1.92 3.882667 1.92h229.44s5.781333 0 11.584 5.802667c5.76 5.802667 3.84 13.525333 3.84 13.525333v17.386667h-30.848s-5.76 0-13.482667 5.802666c-5.802667 5.802667-5.802667 11.605333-5.802667 11.605334-3.84 30.912-28.906667 175.808-94.464 276.266666 44.330667 42.517333 92.544 79.232 136.896 96.618667 9.642667-3.861333 11.562667-1.92 13.504 0zM401.066667 189.333333l-80.981334 48.32s-3.84 1.92-5.781333 5.781334c-1.92 1.92 0 5.802667 0 5.802666 9.642667 57.962667 21.205333 299.477333 7.701333 392.213334 0 0 0 3.861333-1.92 3.861333-1.92 1.92-5.781333 1.92-5.781333 1.92h-53.994667s-3.84 0-5.781333-1.92c-1.92-1.92-1.92-5.802667-1.92-5.802667 11.562667-197.056 1.92-330.368-1.941333-359.36 0 0 0-3.861333-3.84-5.802666-3.882667-1.92-7.722667-1.92-7.722667-1.92L173.546667 307.2s-3.861333 0-5.802667 3.861333c-1.92 1.92 0 5.802667 0 5.802667 11.584 73.408 11.584 260.821333-7.701333 361.301333 0 0-1.92 3.84 1.92 7.722667 1.92 3.861333 5.781333 3.861333 5.781333 3.861333h131.136s7.701333 0 13.482667 7.722667c3.861333 5.802667 3.861333 11.605333 3.861333 11.605333-7.701333 59.882667-11.562667 96.597333-21.205333 123.648 0 0-1.92 3.861333 0 7.722667s5.781333 3.861333 5.781333 3.861333h100.266667s3.84 0 5.781333-1.92c1.92-1.92 1.92-5.802667 1.92-5.802666V198.997333s0-5.781333-1.92-7.722666c-1.92-3.861333-5.781333-1.92-5.781333-1.92z m512.896-25.109333c0-1.92-1.92-1.92-3.84-3.861333 1.92 0-34.709333-7.722667-40.512-9.664-5.76-1.92-9.621333-5.802667-11.562667-13.525334-1.92-7.722667-9.642667-42.496-9.642667-40.576 0-1.92-1.92-3.84-3.84-3.84s-1.92 1.92-3.861333 3.84c0-1.92-7.722667 32.853333-9.642667 40.576-1.92 7.722667-5.781333 11.605333-11.584 13.525334-7.701333 1.92-42.410667 9.664-40.490666 9.664-1.92 0-3.84 1.92-3.84 3.861333 0 1.92 1.92 1.92 3.84 3.861333-1.92 0 34.709333 7.744 40.490666 9.664 5.802667 1.92 9.642667 5.802667 11.584 13.525334 1.92 7.722667 9.642667 42.496 9.642667 40.576 0 1.92 1.92 3.861333 3.84 3.861333s1.92-1.92 3.861333-3.861333c0 1.92 7.722667-32.853333 9.642667-40.576 1.92-7.722667 5.781333-11.584 11.562667-13.525334 7.722667-1.92 42.432-9.664 40.512-9.664 1.92-1.92 3.84-1.92 3.84-3.84z" fill="#F5D446" p-id="2236"></path></svg>