<?xml version="1.0" standalone="no"?><!DOCTYPE svg PUBLIC "-//W3C//DTD SVG 1.1//EN" "http://www.w3.org/Graphics/SVG/1.1/DTD/svg11.dtd"><svg t="1655271083449" class="icon" viewBox="0 0 1024 1024" version="1.1" xmlns="http://www.w3.org/2000/svg" p-id="4781" xmlns:xlink="http://www.w3.org/1999/xlink" width="200" height="200"><defs><style type="text/css">@font-face { font-family: feedback-iconfont; src: url("//at.alicdn.com/t/font_1031158_u69w8yhxdu.woff2?t=1630033759944") format("woff2"), url("//at.alicdn.com/t/font_1031158_u69w8yhxdu.woff?t=1630033759944") format("woff"), url("//at.alicdn.com/t/font_1031158_u69w8yhxdu.ttf?t=1630033759944") format("truetype"); }
</style></defs><path d="M960 409.6v-61.76c0-1.28-0.96-2.24-2.24-2.24h-194.24c-1.28 0-2.24-0.96-2.24-2.24V261.44c0-1.28-0.96-2.24-2.24-2.24h-159.36c-106.24 0-193.92 83.84-199.68 188.8 0 0.96-0.96 1.92-1.92 1.92H273.92c-14.4 0-44.48 5.76-53.76 16.64-4.8 5.76-9.6 12.48-13.44 20.48-13.44 27.2-12.8 68.8-3.84 88.96 22.4 50.88 49.6 81.28 75.84 103.68 10.24 8.64 22.72 16.32 28.48 32.32 0.96 2.56 1.28 5.12 1.6 7.68 2.56 37.12-4.48 50.56-17.6 65.6-7.68 8.64-38.4 17.92-51.2 17.92H108.8c-1.28 0-2.24 0.96-2.24 2.24v59.84c0 1.28 0.96 2.24 2.24 2.24h150.4c26.24 0 61.76-16.96 84.8-42.88 31.04-34.88 32-79.04 29.44-106.56-1.6-16-6.08-32-14.08-46.08-9.92-17.6-22.08-26.88-38.72-40.96-21.12-18.24-35.84-33.6-52.48-64.96-4.8-8.96-8.32-27.2-7.68-37.44v-0.32c0.64-8.32 7.68-15.04 16-15.04 41.28-0.32 88.64 0.64 121.6 0.64 0.96 0 1.92 0.96 1.92 1.92 6.4 104.32 93.76 187.84 199.68 187.84h159.36c1.28 0 2.24-0.96 2.24-2.24v-82.24c0-1.28 0.96-2.24 2.24-2.24h194.24c1.28 0 2.24-0.96 2.24-2.24v-59.84c0-1.28-0.96-2.24-2.24-2.24h-194.24c-1.28 0-2.24-0.96-2.24-2.24v-139.84c0-1.28 0.96-2.24 2.24-2.24l196.48 1.28z" fill="#bfbfbf" p-id="4782"></path></svg>