<?xml version="1.0" standalone="no"?><!DOCTYPE svg PUBLIC "-//W3C//DTD SVG 1.1//EN" "http://www.w3.org/Graphics/SVG/1.1/DTD/svg11.dtd"><svg t="1637129857636" class="icon" viewBox="0 0 1024 1024" version="1.1" xmlns="http://www.w3.org/2000/svg" p-id="2050" xmlns:xlink="http://www.w3.org/1999/xlink" width="200" height="200"><defs><style type="text/css"></style></defs><path d="M511.474 891.901c-93.153-0.039-182.884-35.043-251.394-98.065 64.013-20.676 170.97-50.917 249.008-50.917 79.344 0 188.906 31.394 252.511 52.03-68.34 62.347-157.552 96.924-250.125 96.952z m-186.521-385.69V399.99c0.103-102.822 83.538-186.162 186.521-186.31 102.846 0 186.521 83.585 186.521 186.31v110.693c0 11.919-1.377 23.5-3.506 34.787l-1.081 5.325a185.252 185.252 0 0 1-26.264 62.016l-2.311 3.428a190.054 190.054 0 0 1-47.859 47.672l-2.352 1.602a185.699 185.699 0 0 1-103.148 31.212 185.79 185.79 0 0 1-103.369-31.287l-2.09-1.455a188.779 188.779 0 0 1-47.933-47.745l-2.391-3.541a185.161 185.161 0 0 1-26.149-61.903l-1.083-5.364a187.47 187.47 0 0 1-3.506-34.748v-4.471zM511.474 64.698c-246.84 0-447.649 200.496-447.649 446.951 0 246.457 200.809 446.951 447.649 446.951 246.842 0 447.649-200.494 447.649-446.951 0-246.455-200.808-446.951-447.649-446.951z m0 0" p-id="2051" fill="#dbdbdb"></path></svg>