<?xml version="1.0" standalone="no"?><!DOCTYPE svg PUBLIC "-//W3C//DTD SVG 1.1//EN" "http://www.w3.org/Graphics/SVG/1.1/DTD/svg11.dtd"><svg t="1640672969873" class="icon" viewBox="0 0 1024 1024" version="1.1" xmlns="http://www.w3.org/2000/svg" p-id="43896" xmlns:xlink="http://www.w3.org/1999/xlink" width="200" height="200"><defs><style type="text/css"></style></defs><path d="M873.411765 481.882353a60.235294 60.235294 0 0 1 120.470588 0v283.467294C993.882353 908.107294 878.953412 1024 736.858353 1024H287.141647C145.046588 1024 30.117647 908.107294 30.117647 765.349647V481.882353a60.235294 60.235294 0 1 1 120.470588 0v283.467294C150.588235 841.788235 211.847529 903.529412 287.141647 903.529412h449.716706C812.152471 903.529412 873.411765 841.788235 873.411765 765.349647V481.882353z" p-id="43897" fill="#707070"></path><path d="M451.764706 60.235294m60.235294 0l0 0q60.235294 0 60.235294 60.235294l0 602.352941q0 60.235294-60.235294 60.235295l0 0q-60.235294 0-60.235294-60.235295l0-602.352941q0-60.235294 60.235294-60.235294Z" p-id="43898" fill="#707070"></path><path d="M508.988235 170.345412L338.522353 340.751059a60.235294 60.235294 0 0 1-85.172706-85.172706L466.401882 42.586353a60.235294 60.235294 0 0 1 85.172706 0l212.931765 212.992a60.235294 60.235294 0 1 1-85.172706 85.172706L508.988235 170.345412z" p-id="43899" fill="#707070"></path></svg>