<?xml version="1.0" standalone="no"?><!DOCTYPE svg PUBLIC "-//W3C//DTD SVG 1.1//EN" "http://www.w3.org/Graphics/SVG/1.1/DTD/svg11.dtd"><svg t="1640671458435" class="icon" viewBox="0 0 1024 1024" version="1.1" xmlns="http://www.w3.org/2000/svg" p-id="6824" xmlns:xlink="http://www.w3.org/1999/xlink" width="200" height="200"><defs><style type="text/css"></style></defs><path d="M840.871012 682.73478H609.004445c-19.482868 0-36.629203-17.107413-36.629204-36.670558 0-19.643421 17.147551-36.7557 36.629204-36.7557h231.866567c19.563145 0 36.629203 17.111062 36.629203 36.7557 0 19.561929-17.066059 36.670558-36.629203 36.670558z" fill="#707070" p-id="6825"></path><path d="M744.340928 562.81747l-109.812199 110.17466c-9.822927 7.325841-19.563145 9.784005-26.808709 9.784005v-0.041355c-9.822927 0-19.565577-2.415593-24.478257-9.781572-14.650465-14.65533-14.650465-36.750834 0-51.406165l109.817064-110.094383c14.650465-14.73439 36.629203-14.73439 51.282101 0 14.651681 14.612759 14.651681 36.669342 0 51.36481z" fill="#707070" p-id="6826"></path><path d="M744.742311 783.048807c-7.323408 4.951602-17.066059 9.784005-26.888986 9.784005-9.658725 0-19.485301-2.374239-24.314055-9.784005l-109.893692-110.055461c-14.652898-14.694252-14.652898-36.711912 0-51.445087 14.65533-14.612759 36.629203-14.612759 51.204257 0l109.893692 110.135738c14.650465 14.731958 14.650465 36.750834-0.001216 51.36481z" fill="#707070" p-id="6827"></path><path d="M857.939503 531.057159c-1.448626 0.440305-3.057806 0-4.027206-1.250367-12.880733-16.986998-42.107468-54.785076-56.997546-69.799219-19.969393-20.328204-47.179484-31.821126-75.601021-31.821126a105.885947 105.885947 0 0 0-75.675217 31.821126l-109.836525 110.257369c-14.652898 14.652898-24.433254 34.256181-29.283901 53.819326-2.478842 7.324624-2.478842 14.652898-2.478842 21.979954 0 7.325841 0 14.611543 2.478842 22.020093 4.850648 19.563145 14.631004 39.12629 29.283901 53.818109l107.419716 110.135738c21.978738 22.020093 46.374286 31.801665 75.677649 31.801665 28.419105-0.121631 55.551352-11.553737 75.596156-31.801665 16.667109-14.812234 44.523061-52.131086 57.081471-69.357698a3.421483 3.421483 0 0 1 3.945713-1.247935c1.448626 0.442737 2.415593 1.811087 2.415593 3.381345 0 55.794614-45.487596 101.481685-101.200717 101.481685H339.26074c-55.65109 0-101.220178-45.687071-101.220179-101.481685V277.614453c0-55.852997 45.569089-101.481685 101.220179-101.481685h419.893639c55.629196 0 101.198285 45.627472 101.198285 101.481685v250.060146c0 1.488765-0.966967 2.896036-2.413161 3.38256z" fill="#707070" p-id="6828"></path><path d="M297.777239 132.444096c-56.114504 0-102.487574 46.514162-102.487574 102.80868v518.839317c0 7.406117 0 14.69182 2.454515 24.474608C166.003331 761.499426 146.499785 729.619917 146.499785 692.94571V196.068104c0-53.842435 43.916122-97.880189 97.616249-97.880189h424.706582c29.22187 0 56.114504 14.69182 73.180563 34.256181H297.777239z" fill="#707070" p-id="6829"></path></svg>