<svg t="1669604658796" class="icon" viewBox="0 0 1024 1024" version="1.1" xmlns="http://www.w3.org/2000/svg" p-id="7392" width="200" height="200"><path d="M512 128a42.666667 42.666667 0 0 1 42.368 37.674667L554.666667 170.666667v682.666666a42.666667 42.666667 0 0 1-85.034667 4.992L469.333333 853.333333V170.666667a42.666667 42.666667 0 0 1 42.666667-42.666667zM341.333333 256a42.666667 42.666667 0 0 1 42.368 37.674667L384 298.666667v426.666666a42.666667 42.666667 0 0 1-85.034667 4.992L298.666667 725.333333V298.666667a42.666667 42.666667 0 0 1 42.666666-42.666667z m341.333334 0a42.666667 42.666667 0 0 1 42.368 37.674667L725.333333 298.666667v426.666666a42.666667 42.666667 0 0 1-85.034666 4.992L640 725.333333V298.666667a42.666667 42.666667 0 0 1 42.666667-42.666667zM170.666667 384a42.666667 42.666667 0 0 1 42.368 37.674667L213.333333 426.666667v170.666666a42.666667 42.666667 0 0 1-85.034666 4.992L128 597.333333v-170.666666a42.666667 42.666667 0 0 1 42.666667-42.666667z m682.666666 0a42.666667 42.666667 0 0 1 42.368 37.674667L896 426.666667v170.666666a42.666667 42.666667 0 0 1-85.034667 4.992L810.666667 597.333333v-170.666666a42.666667 42.666667 0 0 1 42.666666-42.666667z" p-id="7393" fill="#515151"></path></svg>