<svg t="1642835618560" class="icon" viewBox="0 0 1024 1024" version="1.1" xmlns="http://www.w3.org/2000/svg" p-id="4408" width="200" height="200"><path d="M0 791.272727V930.909091h139.636364c0-79.127273-60.509091-139.636364-139.636364-139.636364z m0-186.181818v93.090909c130.327273 0 232.727273 102.4 232.727273 232.727273h93.090909c0-181.527273-144.290909-325.818182-325.818182-325.818182zM837.818182 279.272727H186.181818v74.472728C372.363636 414.254545 516.654545 558.545455 577.163636 744.727273H837.818182V279.272727zM0 418.909091v93.090909c232.727273 0 418.909091 186.181818 418.909091 418.909091h93.090909c0-283.927273-228.072727-512-512-512zM930.909091 93.090909H93.090909C41.890909 93.090909 0 134.981818 0 186.181818v139.636364h93.090909V186.181818h837.818182v651.636364H605.090909v93.090909H930.909091c51.2 0 93.090909-41.890909 93.090909-93.090909V186.181818c0-51.2-41.890909-93.090909-93.090909-93.090909z" p-id="4409" fill="#e98f36"></path></svg>