<?xml version="1.0" standalone="no"?><!DOCTYPE svg PUBLIC "-//W3C//DTD SVG 1.1//EN" "http://www.w3.org/Graphics/SVG/1.1/DTD/svg11.dtd">
<svg height="100%" width="100%" id="svg" viewBox="0 0 1440 700" xmlns="http://www.w3.org/2000/svg" class="transition duration-300 ease-in-out delay-150"><defs><linearGradient id="gradient"><stop offset="5%" stop-color="#cecece88"></stop><stop offset="95%" stop-color="#abb8c388"></stop></linearGradient></defs><path d="M 0,700 C 0,700 0,233 0,233 C 133.7333333333333,246.60000000000002 267.4666666666666,260.20000000000005 416,241 C 564.5333333333334,221.79999999999998 727.8666666666668,169.79999999999998 901,163 C 1074.1333333333332,156.20000000000002 1257.0666666666666,194.60000000000002 1440,233 C 1440,233 1440,700 1440,700 Z" stroke="none" stroke-width="0" fill="url(#gradient)" class="transition-all duration-300 ease-in-out delay-150"></path><defs><linearGradient id="gradient"><stop offset="5%" stop-color="#cececeff"></stop><stop offset="95%" stop-color="#abb8c3ff"></stop></linearGradient></defs><path d="M 0,700 C 0,700 0,466 0,466 C 105.60000000000002,449.06666666666666 211.20000000000005,432.1333333333333 397,452 C 582.8,471.8666666666667 848.8,528.5333333333334 1036,537 C 1223.2,545.4666666666666 1331.6,505.7333333333333 1440,466 C 1440,466 1440,700 1440,700 Z" stroke="none" stroke-width="0" fill="url(#gradient)" class="transition-all duration-300 ease-in-out delay-150"></path></svg>