<svg t="1642837218791" class="icon" viewBox="0 0 1024 1024" version="1.1" xmlns="http://www.w3.org/2000/svg" p-id="48907" width="200" height="200"><path d="M639.973334 1023.957335H0v-1023.957335h1023.957335v639.973334h-85.329778v-554.643556H85.329778v853.297779h554.643556z" p-id="48908" fill="#8a8a8a"></path><path d="M853.297779 213.36711H170.659556v85.329778h682.638223v-85.329778z" p-id="48909" fill="#8a8a8a"></path><path d="M298.654223 426.776884H170.659556v85.329778h127.994667v-85.329778z" p-id="48910" fill="#8a8a8a"></path><path d="M298.654223 639.994667H170.659556v85.329778h127.994667v-85.329778z" p-id="48911" fill="#8a8a8a"></path><path d="M598.3964 426.734219a164.046498 164.046498 0 0 1 110.56606 48.317987 166.115745 166.115745 0 0 1 42.664889 159.993334l-9.556935 35.625182 26.132244 26.132245 165.326445 165.326444-71.677014 71.677014-165.326444-165.326445-26.068247-26.068247-35.68918 9.492938a165.582434 165.582434 0 0 1-208.31132-153.593601l31.998666 31.998667a121.317612 121.317612 0 1 0 171.576851-171.576851l-31.700012-31.998667M591.932669 362.566226a229.281113 229.281113 0 0 0-105.104953 25.428274 9.642265 9.642265 0 0 0-2.410567 15.295363l100.262489 100.262489a57.341611 57.341611 0 1 1-81.063289 81.063289l-100.262489-100.262489a9.663597 9.663597 0 0 0-15.316695 2.346569A229.323778 229.323778 0 0 0 651.343527 813.448773l210.4019 210.380567 162.126578-162.126578-210.380567-210.380567a229.323778 229.323778 0 0 0-221.601433-288.713304z" p-id="48912" fill="#8a8a8a"></path></svg>