<svg t="1669604288601" class="icon" viewBox="0 0 1024 1024" version="1.1" xmlns="http://www.w3.org/2000/svg" p-id="54127" width="200" height="200"><path d="M288 64h64v160h-64z" p-id="54128" fill="#d81e06"></path><path d="M160 192h640v64H160z" p-id="54129" fill="#d81e06"></path><path d="M608 64h64v160h-64z" p-id="54130" fill="#d81e06"></path><path d="M450.26 832H160.11l-0.11-0.11V192.11l0.11-0.11h639.78l0.11 0.11v290.15a257.16 257.16 0 0 1 64 52.44V192a64.19 64.19 0 0 0-64-64H160a64.19 64.19 0 0 0-64 64v640a64.19 64.19 0 0 0 64 64h342.69a257.16 257.16 0 0 1-52.43-64z" p-id="54131" fill="#d81e06"></path><path d="M224 352h512v64H224zM224 480h224v64H224zM672 841.14a13.71 13.71 0 1 0 13.71 13.71A13.71 13.71 0 0 0 672 841.14zM672 448c-141.38 0-256 114.62-256 256s114.62 256 256 256 256-114.62 256-256-114.62-256-256-256z m41.14 264.94v155.63A27.51 27.51 0 0 1 685.71 896h-27.42a27.51 27.51 0 0 1-27.43-27.43V712.94a96 96 0 0 1 0-173.51V608a27.51 27.51 0 0 0 27.43 27.43h27.43A27.51 27.51 0 0 0 713.14 608v-68.57a96 96 0 0 1 0 173.51z" p-id="54132" fill="#d81e06"></path></svg>