<svg class="icon" viewBox="0 0 1024 1024" version="1.1" xmlns="http://www.w3.org/2000/svg" width="200" height="200">
    <path d="M0 0v1024h1024V0z m512 782.9504a431.7184 431.7184 0 0 1-98.9184-11.6736 52.224 52.224 0 0 0-37.2736 4.3008l-114.688 61.44s10.6496-52.4288 18.8416-94.208a40.96 40.96 0 0 0-14.7456-40.96 275.8656 275.8656 0 0 1-113.2544-216.6784c0-163.84 161.1776-297.5744 360.0384-297.5744a387.8912 387.8912 0 0 1 291.4304 122.88l-362.7008 170.3936a24.7808 24.7808 0 0 1-24.3712-2.048l-67.1744-46.2848A14.336 14.336 0 0 0 327.68 450.56l58.1632 127.3856a25.3952 25.3952 0 0 0 36.0448 11.0592l405.504-245.76a256.2048 256.2048 0 0 1 44.2368 143.36c0.4096 163.0208-160.768 296.3456-359.6288 296.3456z" fill="#22AC38"></path>
</svg>