<?xml version="1.0" standalone="no"?><!DOCTYPE svg PUBLIC "-//W3C//DTD SVG 1.1//EN" "http://www.w3.org/Graphics/SVG/1.1/DTD/svg11.dtd"><svg t="1650263876423" class="icon" viewBox="0 0 1024 1024" version="1.1" xmlns="http://www.w3.org/2000/svg" p-id="2133" xmlns:xlink="http://www.w3.org/1999/xlink" width="200" height="200"><defs><style type="text/css">@font-face { font-family: feedback-iconfont; src: url("//at.alicdn.com/t/font_1031158_u69w8yhxdu.woff2?t=1630033759944") format("woff2"), url("//at.alicdn.com/t/font_1031158_u69w8yhxdu.woff?t=1630033759944") format("woff"), url("//at.alicdn.com/t/font_1031158_u69w8yhxdu.ttf?t=1630033759944") format("truetype"); }
</style></defs><path d="M69.818182 69.818182h884.363636v884.363636H69.818182V69.818182z" fill="#D2D2D2" fill-opacity="0" opacity=".65" p-id="2134"></path><path d="M512 69.818182C267.636364 69.818182 69.818182 267.636364 69.818182 512s197.818182 442.181818 442.181818 442.181818 442.181818-197.818182 442.181818-442.181818S756.363636 69.818182 512 69.818182z m260.654545 402.618182c-20.945455 32.581818-53.527273 55.854545-90.763636 67.490909-2.327273 0-2.327273 0-2.327273 2.327272-4.654545 2.327273-11.636364 2.327273-18.618181 2.327273-27.927273 0-41.890909-18.618182-34.909091-39.563636 4.654545-16.290909 20.945455-30.254545 39.563636-37.236364 30.254545-11.636364 51.2-37.236364 51.2-65.163636 0-39.563636-37.236364-69.818182-83.781818-69.818182s-83.781818 32.581818-83.781818 69.818182v216.436363c0 51.2-30.254545 97.745455-74.472728 123.345455-25.6 13.963636-53.527273 20.945455-83.781818 20.945455-88.436364 0-158.254545-65.163636-158.254545-144.29091 0-25.6 6.981818-48.872727 20.945454-69.818181 20.945455-32.581818 53.527273-58.181818 90.763637-67.490909 6.981818-2.327273 13.963636-2.327273 20.945454-2.327273 27.927273 0 41.890909 18.618182 34.909091 39.563636-4.654545 16.290909-20.945455 27.927273-37.236364 37.236364-2.327273 0-4.654545 2.327273-4.654545 2.327273-27.927273 11.636364-46.545455 34.909091-46.545455 62.836363 0 39.563636 37.236364 69.818182 83.781819 69.818182s83.781818-32.581818 83.781818-69.818182v-216.436363c0-51.2 30.254545-97.745455 74.472727-123.345455 25.6-13.963636 53.527273-20.945455 83.781818-20.945455 88.436364 0 158.254545 65.163636 158.254546 144.29091-2.327273 23.272727-9.309091 48.872727-23.272728 67.490909z" fill="#00B22D" p-id="2135"></path></svg>