<svg t="1642837734994" class="icon" viewBox="0 0 1024 1024" version="1.1" xmlns="http://www.w3.org/2000/svg" p-id="67606" width="200" height="200"><path d="M513.495 934.688c-264.537 0-375.498-94.623-375.498-289.082 0-161.099 125.823-329.218 278.354-382.256l194.29 0c152.536 53.039 278.354 221.158 278.354 382.256 0 194.459-110.962 289.082-375.501 289.082L513.495 934.688zM617.561 615.146l0-0.065c17.556-0.091 31.756-14.354 31.756-31.924 0-17.588-14.199-31.834-31.756-31.944l0-0.076-64.407 0c0.125-0.718-0.085-1.356-0.021-2.076l75.481-77.16c12.312-13.871 6.048-25.344-6.396-37.918-12.522-12.642-32.988-15.292-43.107-4.277l-64.906 69.189-70.107-70.111c-8.873-8.863-26.131-5.975-38.55 6.445-12.432 12.438-15.31 29.711-6.445 38.573l71.703 71.688c-1.342 1.715-2.21 3.621-2.731 5.647L409.8 551.137l0 0.062c-0.055 0-0.11 0-0.165 0-17.647 0-31.958 14.294-31.958 31.957 0 17.632 14.311 31.957 31.958 31.957 0.054 0 0.109-0.032 0.165-0.032l0 0.064 63.875 0 0 31.83L409.8 646.975l0 0.095c-0.055 0-0.11 0-0.165 0-17.647 0-31.958 14.295-31.958 31.957 0 17.633 14.311 31.958 31.958 31.958 0.054 0 0.109-0.031 0.165-0.031l0 0.031 63.875 0 0 32.176 0.662 0c-0.5 2.495-0.786 5.102-0.786 7.771 0 22.063 17.882 39.946 39.943 39.946 22.066 0 39.949-17.883 39.949-39.946 0-2.669-0.291-5.275-0.789-7.771l0.374 0 0-32.176 64.533-0.031c17.556-0.11 31.756-14.356 31.756-31.929 0-17.584-14.2-31.831-31.756-31.939l0-0.11-64.533 0 0-31.832 64.532 0L617.56 615.146zM665.293 135.753l-6.717 8.395c-0.148 0.156-0.252 0.343-0.398 0.499l-56.799 70.999L409.635 215.646l-56.69-70.875c-0.421-0.406-0.693-0.904-1.084-1.342l-6.14-7.676 1.083-2.17c-0.521-1.967-1.217-3.886-1.217-6.008 0-10.174 6.397-18.77 15.354-22.267l0.757-1.515c0 0 78.545-15.713 143.809-15.978 68.301-0.281 143.81 15.978 143.81 15.978l0.775 1.53c8.899 3.528 15.242 12.11 15.242 22.251 0 2.091-0.687 3.948-1.185 5.866L665.293 135.753 665.293 135.753z" fill="#FF9800" p-id="67607"></path></svg>