<svg t="1636616251590" class="icon" viewBox="0 0 1024 1024" version="1.1" xmlns="http://www.w3.org/2000/svg" p-id="8558" width="64" height="64"><path d="M777.505 587.57c-87.09-109.042-148.979-4.984-148.979-4.984-82.545-102.203-152.76-6.705-152.76-6.705l-0.886-264.644c-0.071-23.266-9.64-46.542-28.656-59.953-22.42-15.806-44.239-9.324-61.094 1.987-20.453 13.727-31.693 37.655-31.806 62.297l-2.038 428.95s-22.42-59.209-85.144-87.335c-108.786-47.438-96.557 65.119-96.557 65.119L349.33 946.886a205.548 205.548 0 0 0 160.627 77.104l166.11-0.072A214.852 214.852 0 0 0 852.458 931.6a272.715 272.715 0 0 0 48.702-155.52V598.056c-62.041-130.83-123.655-10.486-123.655-10.486z" p-id="8559" fill="#ffffff"></path><path d="M552.636 377.08a21.696 21.696 0 0 0 28.992-10.039 182.303 182.303 0 0 0 18.425-80.405c0-101.673-82.698-184.372-184.381-184.372S231.32 184.963 231.32 286.636a184.25 184.25 0 0 0 25.712 94.01 21.696 21.696 0 1 0 37.298-22.165 140.765 140.765 0 0 1-19.648-71.845c0-77.756 63.265-141.01 140.99-141.01s141.02 63.254 141.02 141.01a139.114 139.114 0 0 1-14.125 61.45 21.717 21.717 0 0 0 10.069 28.993z" p-id="8560" fill="#ffffff"></path><path d="M244.314 530.338a21.696 21.696 0 1 0 25.426-35.158A250.357 250.357 0 0 1 166.2 292.842c0-137.575 111.926-249.44 249.47-249.44s249.47 111.895 249.47 249.44a249.46 249.46 0 0 1-60.043 162.34 21.686 21.686 0 0 0 32.916 28.228 292.791 292.791 0 0 0 70.49-190.568C708.504 131.4 577.144 0.041 415.672 0.041S122.84 131.359 122.84 292.8a293.83 293.83 0 0 0 121.474 237.537z" p-id="8561" fill="#ffffff"></path></svg>