<svg t="1682053797321" class="icon" viewBox="0 0 1024 1024" version="1.1" xmlns="http://www.w3.org/2000/svg" p-id="31700" width="64" height="64"><path d="M512 0C230.4 0 0 230.4 0 512s230.4 512 512 512 512-230.4 512-512S793.6 0 512 0z m-42.666667 738.133333c0 21.333333-12.8 34.133333-34.133333 34.133334H281.6c-17.066667 0-34.133333-12.8-34.133333-34.133334v-153.6c0-25.6 17.066667-34.133333 34.133333-34.133333h153.6c21.333333 0 34.133333 12.8 34.133333 34.133333v153.6z m0-298.666666c0 21.333333-12.8 34.133333-34.133333 34.133333H281.6c-17.066667 0-34.133333-12.8-34.133333-34.133333v-153.6c0-25.6 17.066667-34.133333 34.133333-34.133334h153.6c21.333333 0 34.133333 12.8 34.133333 34.133334v153.6z m302.933334 298.666666c0 21.333333-12.8 34.133333-34.133334 34.133334h-153.6c-17.066667 0-34.133333-12.8-34.133333-34.133334v-153.6c0-25.6 17.066667-34.133333 34.133333-34.133333h153.6c21.333333 0 34.133333 12.8 34.133334 34.133333v153.6zM742.4 443.733333c-42.666667 42.666667-115.2 42.666667-157.866667 0-21.333333-21.333333-34.133333-51.2-34.133333-76.8 0-29.866667 12.8-59.733333 34.133333-76.8 42.666667-42.666667 115.2-42.666667 157.866667 0 42.666667 38.4 42.666667 110.933333 0 153.6z" fill="#ffffff" p-id="31701"></path></svg>