<svg t="1677649202204" class="icon" viewBox="0 0 1024 1024" version="1.1" xmlns="http://www.w3.org/2000/svg" p-id="1326" width="48" height="48"><path d="M563.42755555 512l265.55733334-265.55733333c14.22222222-14.22222222 14.22222222-37.31911111 0-51.42755556s-37.31911111-14.22222222-51.42755556 0L512 460.57244445 246.44266667 195.01511111c-14.22222222-14.22222222-37.31911111-14.22222222-51.42755556 0s-14.22222222 37.31911111 0 51.42755556L460.57244445 512 195.01511111 777.55733333c-14.22222222 14.22222222-14.22222222 37.31911111 0 51.42755556 7.05422222 7.05422222 16.384 10.69511111 25.71377778 10.69511111s18.65955555-3.52711111 25.71377778-10.69511111L512 563.42755555l265.55733333 265.55733334c7.05422222 7.05422222 16.384 10.69511111 25.71377778 10.69511111s18.65955555-3.52711111 25.71377778-10.69511111c14.22222222-14.22222222 14.22222222-37.31911111 0-51.42755556L563.42755555 512z" p-id="1327" fill="#666666"></path></svg>