<svg t="1676883880142" class="icon" viewBox="0 0 1024 1024" version="1.1" xmlns="http://www.w3.org/2000/svg" p-id="1717" width="48" height="48"><path d="M914.79153778 471.04h-361.83153778V118.31068445q0-17.07576889-11.94211555-29.01788445T512 77.35068445q-17.07576889 0-29.01788445 11.94211555t-11.94211555 29.01788445v352.72931555h-354.98666667q-15.94709333 0-28.43534222 11.94211555T75.09333333 512q0 17.07576889 12.52465778 29.01788445t28.43534222 11.94211555h354.98666667v354.98666667q0 15.94709333 11.94211555 28.43534222T512 948.90666667q17.07576889 0 29.01788445-12.52465778t11.94211555-28.43534222v-354.98666667h361.83153778q17.07576889 0 29.01788444-11.94211555t11.94211556-29.01788445q0-17.07576889-11.94211556-29.01788445t-29.01788444-11.94211555z" fill="#A1A1A1" p-id="1718"></path></svg>