<svg t="1677480975153" class="icon" viewBox="0 0 1024 1024" version="1.1" xmlns="http://www.w3.org/2000/svg" p-id="1904" width="48" height="48"><path d="M675.48000031 111.99999969a109.99999969 109.99999969 0 0 0-77.80000031 32.22l-7.8 7.78000031h-114.40000031a109.99999969 109.99999969 0 0 0-77.79999938 32.22L64.20000031 517.7c-42.70000031 42.70000031-42.70000031 112.84000031 0 155.53999969l206.52 206.58c42.72 42.70000031 112.87999969 42.70000031 155.59999969 0l42.19999969-42.24 2.20000031 2.24000062c42.72 42.70000031 112.87999969 42.70000031 155.59999969 0L959.79999969 506.34000031a110.04 110.04 0 0 0 32.22-77.78000062V201.99999969C992 152.66 951.36000031 111.99999969 902 111.99999969H675.48000031z m0 60H902a29.59999969 29.59999969 0 0 1 30.04000031 30v226.56c0 13.24000031-5.29999969 25.98-14.68000031 35.36000062L583.92000031 797.36a49.56 49.56 0 0 1-70.70000062 0L306.63999969 590.79999969a49.56 49.56 0 0 1 0-70.69999969L640.11999969 186.63999969A49.90000031 49.90000031 0 0 1 675.48000031 171.99999969z m-200.00000062 40.00000031h54.40000031L264.24000031 477.69999969c-42.70000031 42.70000031-42.70000031 112.84000031 0 155.54000062l161.88 161.91999938-42.20000062 42.20000062a49.56 49.56 0 0 1-70.68 0L106.64 630.8a49.56 49.56 0 0 1 0-70.69999969L440.12 226.64A49.90000031 49.90000031 0 0 1 475.47999969 212zM812 231.99999969a60 60 0 0 0 0 120 60 60 0 0 0 0-120z" fill="#1c1c1c" p-id="1905"></path></svg>