<svg t="1641956009796" class="icon" viewBox="0 0 1024 1024" version="1.1" xmlns="http://www.w3.org/2000/svg" p-id="59576" width="200" height="200"><path d="M0 512c0 282.752 229.248 512 512 512s512-229.248 512-512S794.752 0 512 0 0 229.248 0 512z" fill="#57D089" p-id="59577"></path><path d="M692.138667 283.946667l-4.437334-4.437334c-96.810667-94.506667-250.88-94.976-348.842666-2.346666a41.941333 41.941333 0 0 0-4.906667 4.437333c-1.834667 1.877333-2.986667 2.986667-4.394667 4.906667-92.885333 98.176-92.416 252.032 2.304 348.842666l2.346667 2.304 2.304 2.346667 175.701333 175.701333 178.048-178.048c97.28-97.024 98.218667-255.061333 1.877334-353.706666z m-257.621334 98.645333a109.994667 109.994667 0 0 1 154.965334 0 109.994667 109.994667 0 0 1 0 155.008 109.994667 109.994667 0 0 1-154.965334 0 109.994667 109.994667 0 0 1 0-155.008z" fill="#FFFFFF" p-id="59578"></path></svg>