<svg t="1641449018699" class="icon" viewBox="0 0 1024 1024" version="1.1"
    xmlns="http://www.w3.org/2000/svg" p-id="8158" width="48" height="48">
    <path
        d="M511.333 64.223c-165.685 0-300 134.315-300 300 0 84.943 35.312 161.632 92.046 216.212l191.357 191.357a22.102 22.102 0 0 0 2.164 2.164 21.908 21.908 0 0 0 14.433 5.404 21.908 21.908 0 0 0 14.379-5.357 22.197 22.197 0 0 0 2.264-2.264l191.013-191.013c56.91-54.599 92.344-131.41 92.344-216.503 0-165.685-134.314-300-300-300z m-0.003 636.481l-39.003-39.003-88.276-88.276-45.27-42.412c-41.75-43.183-67.448-101.981-67.448-166.79 0-132.548 107.452-240 240-240s240 107.452 240 240c0 64.811-25.7 123.611-67.451 166.794l-45.273 42.408-88.278 88.278-39.001 39.001z"
        fill="#bbbbbb" p-id="8159"></path>
    <path
        d="M512.938 204.352c-64.617 0-117 52.383-117 117s52.383 117 117 117 117-52.383 117-117-52.383-117-117-117z m0 174c-31.48 0-57-25.52-57-57s25.52-57 57-57 57 25.52 57 57-25.52 57-57 57z"
        fill="#bbbbbb" p-id="8160"></path>
    <path
        d="M831.333 614.522c-11 0-18.474 8.87-16.609 19.71l36.886 214.417C853.474 859.49 846 868.36 835 868.36H196c-11 0-17.757-8.716-15.015-19.369l55.363-215.1c2.742-10.653-4.015-19.369-15.015-19.369h-20c-11 0-22.31 8.699-25.133 19.33L103.133 909.03C100.31 919.661 107 928.36 118 928.36h790c11 0 18.401-8.857 16.446-19.682l-49.56-274.474c-1.955-10.825-12.554-19.682-23.554-19.682h-19.999z"
        fill="#bbbbbb" p-id="8161"></path>
</svg>