<?xml version="1.0" standalone="no"?><!DOCTYPE svg PUBLIC "-//W3C//DTD SVG 1.1//EN" "http://www.w3.org/Graphics/SVG/1.1/DTD/svg11.dtd"><svg class="icon" width="64px" height="64.00px" viewBox="0 0 1024 1024" version="1.1" xmlns="http://www.w3.org/2000/svg"><path d="M436.5454944 443.4695936L525.321536 709.80972693 614.10085333 443.4695936Z" fill="#ffffff" /><path d="M284.8374848 443.4695936c69.57063147 103.24750187 148.03720533 212.65012267 200.57456427 277.76732587L392.82112107 443.4695936 284.8374848 443.4695936z" fill="#ffffff" /><path d="M381.17344107 395.41513387l39.30587306-117.90779627-55.25307733 0c-16.81605867 12.4575936-52.8735488 66.42921813-83.58910827 124.4711456l99.53631147 0C381.17344107 399.74958613 380.4639488 397.54470293 381.17344107 395.41513387z" fill="#ffffff" /><path d="M588.63226347 284.06959573c-0.7258656-2.18632747-0.80882133-4.37593067-0.80882134-6.56225813L462.81853973 277.5073376c0 2.18632747-0.07749867 4.372656-0.80773013 6.56225813L422.7082112 401.9784832l205.23101653 0L588.63226347 284.06959573z" fill="#ffffff" /><path d="M565.231024 721.23691947c52.51661973-65.0757248 131.005024-174.4979936 200.57565547-277.76732587L657.821952 443.4695936 565.231024 721.23691947z" fill="#ffffff" /><path d="M513.68149653 32.62334293c-264.78798293 0-479.45088107 214.65307413-479.45088106 479.4476064 0 264.78361707 214.66289813 479.4486976 479.45088106 479.4486976 264.78907413 0 479.445424-214.6650816 479.445424-479.4486976C993.12692053 247.27641707 778.47057173 32.62334293 513.68149653 32.62334293zM815.766944 443.4695936c0 0-248.9521152 373.43090133-290.445408 373.43090133-41.4922016 0-290.4464992-373.43090133-290.4464992-373.43090133L234.87503787 401.9784832c0 0 82.988768-165.9644384 124.47987733-165.9644384l331.93760853 0c41.494384 0 124.47442027 165.9644384 124.47442027 165.9666208L815.766944 443.4695936z" fill="#ffffff" /><path d="M685.41683627 277.5073376l-55.24871147 0 39.30587307 117.90779627c0.70840107 2.13066027 0 4.33554347 0 6.56334933l99.53522026 0C738.29475093 343.93655573 702.2339872 289.9649312 685.41683627 277.5073376z" fill="#ffffff" /></svg>