<?xml version="1.0" standalone="no"?><!DOCTYPE svg PUBLIC "-//W3C//DTD SVG 1.1//EN" "http://www.w3.org/Graphics/SVG/1.1/DTD/svg11.dtd"><svg class="icon" width="64px" height="48.15px" viewBox="0 0 1361 1024" version="1.1" xmlns="http://www.w3.org/2000/svg"><path d="M680.541634 202.276524a308.909987 308.909987 0 0 1 248.628794 125.244099l39.445914 10.625162a336.26978 336.26978 0 0 0-450.772503-120.86122l39.3131 10.492348a308.378729 308.378729 0 0 1 123.384695-25.500389z m203.073411-17.531518l21.582361 17.531518 6.640726-26.164462 24.172244-14.07834-24.172244-14.078339-6.640726-26.164462-21.582361 17.531517-28.223087-2.125032 10.757977 24.902724-10.757977 24.902723z m-374.536965-58.70402l-22.180026-15.406485-4.781322 27.359792-22.711285 17.00026 24.570688 11.621271L492.077821 192.581064l20.054994-20.054994 27.758236-0.929702-12.086122-24.172243 9.031387-26.430091z m207.987549-37.85214l-16.469001-21.582361L687.713619 91.309987l-26.828535 9.297017L680.674449 119.13463l-0.132815 27.226978L705.577173 133.345785l26.695719 7.570428-4.183657-26.69572 16.601816-22.445655z m300.824903 168.940077l-23.242542-16.203372-3.320364 26.961349-21.914396 15.937743 25.367574 12.484566 9.629053 26.031647 18.992478-19.258106 28.023865 0.132814-13.613489-24.305058 7.570428-26.031647z m302.81712 203.206226L151.807004 147.025681a53.75668 53.75668 0 0 0-65.876005 37.984955L2.390661 496.859144A53.75668 53.75668 0 0 0 40.375616 562.801556L1209.276265 875.911803a53.75668 53.75668 0 0 0 65.876005-37.984955L1358.692607 526.277562a53.640467 53.640467 0 0 0-37.984955-65.876006z m8.50013 71.852659l-76.501167 285.684047a40.375616 40.375616 0 0 1-49.407004 28.555123L60.297795 540.15668a40.375616 40.375616 0 0 1-28.555123-49.407004L108.243839 205.065629a40.375616 40.375616 0 0 1 49.473411-28.555123L1300.785473 482.780804a40.192996 40.192996 0 0 1 28.422309 49.407004zM680.541634 27.359792c224.124514 0 412.52192 152.205447 467.639948 358.864851l29.750454 7.968872C1124.93904 168.541634 922.396887 0.531258 680.541634 0.531258a509.576135 509.576135 0 0 0-372.013489 160.705577l29.750454 7.968872a482.28275 482.28275 0 0 1 342.263035-141.845915zM803.926329 795.226978a309.806485 309.806485 0 0 1-372.013489-99.942931l-39.445914-10.625162a336.170169 336.170169 0 0 0 450.772503 120.994033z m-288.473151 55.782101l-21.383139-17.46511-6.640726 26.164462-23.906615 14.078339 23.906615 14.07834 6.640726 26.164462 21.383139-17.398703 28.023865 2.125032-10.757977-24.902723 10.757977-24.902724z m164.955642 82.876265l16.336186 21.383138 12.88301-24.570687 26.562905-9.164202-19.65655-18.594034 0.132814-27.094163-24.902723 13.015823-26.562906-7.570428 4.250065 26.69572-16.469001 22.445655zM340.536446 764.746044l21.914397 17.664332 5.179767-26.562905 22.844098-14.343969-24.305058-14.211154-7.836057-26.562906-20.187808 17.797147-27.691829-1.992218 11.820493 25.23476-9.297017 25.367575z m340.005188 230.76524c-224.124514 0-412.389105-152.205447-467.639948-358.732036l-29.750454-7.968872c52.992996 225.519066 255.535149 393.463035 497.390402 393.463035A509.576135 509.576135 0 0 0 1052.555123 861.634241l-29.750454-7.968871a482.28275 482.28275 0 0 1-342.263035 141.845914zM874.915694 896.896498l22.047211 15.406485 4.781323-27.226978L924.389105 868.274968l-24.305058-11.621272-8.101686-25.898832-19.789365 19.922179-27.492607 0.996109 12.086122 24.172244-8.898573 26.43009z" fill="#ffffff" /><path d="M236.725292 261.196368l149.964202 40.176395 14.941634-15.323476 39.578729 37.204669-15.804928 13.879118-25.981842 96.971206-41.720363-11.173022 2.10843-7.902464-103.728145-27.79144-18.428015 68.781323q-4.233463 15.804929 11.621271 20.02179l95.842282 25.683009q20.486641 9.114397 41.006485-31.311025l19.922179 11.372244q-14.011933 25.251362 5.378989 34.066926-18.809857 38.483009-53.972504 25.367575l-138.674967-37.154864q-36.108949-9.69546-26.114656-46.883528l37.752529-140.949416 41.720363 11.189624-8.450324 31.54345L367.414786 386.822309l15.107652-56.446174-147.75616-39.578729zM501.159014 581.063554q76.700389-15.688716 101.603113-81.531518l-6.756939-1.826199-1.8262 6.77354-38.333592-10.276524 29.617639-110.501686 38.333593 10.276524-1.510765 5.644618 13.530479 3.619196q-4.200259-20.453437-17.016861-49.27419l12.052918-8.848768q25.749416 16.601816 39.362906 33.502465c3.137743 3.320363 2.789105 7.603632-1.079118 12.999221a69.461997 69.461997 0 0 1-15.273671 16.4524l34.863813 9.363424a372.262516 372.262516 0 0 0 40.209598-50.851362l34.863814 27.492607q-26.430091 21.914397-45.821012 31.228016l13.53048 3.619196 15.721919-9.081194L780.285344 455.155383 761.010636 468.171206l-20.237614 75.52166-38.350195-10.276524 1.8262-6.77354-9.031388-2.407264-15.406485 57.50869q-3.619196 13.513878 7.653437 16.601816l27.06096 7.238392q10.143709 2.706096 17.680934-7.338003a82.477821 82.477821 0 0 0 4.66511-8.41712 148.237613 148.237613 0 0 0 10.475746-16.601816l13.746304 7.304799q-14.128145 30.08249 4.465888 37.453696-21.017899 37.868742-46.036835 27.542413l-57.50869-15.406485q-32.423346-9.961089-24.155642-45.140338l19.025681-71.03917-15.788327-4.266666q-30.929183 88.404669-134.242283 86.097017z m114.46952-156.638132L602.645914 472.836316l108.24384 29.003373 12.999221-48.477302zM1036.683787 691.864073l15.771725 4.233463q15.157458 6.49131 31.311025-26.662517l16.834241 9.346823q-12.003113 22.163424 5.976654 31.809079-16.103761 33.203632-49.954864 24.072633L1012.710765 722.892866q-37.237873-9.961089-28.754345-41.504539l18.129183-67.6524-14.659403-3.918028q-27.492607 84.503243-131.619196 80.751232l-4.980545-21.897795q73.147601-6.956161 91.509209-70.939559l-63.0869-16.91725 3.038132-29.401816 207.522698 55.599481 15.506096-12.766796 28.306096 34.166537-17.714138 15.738521-74.409338-19.922179-12.999222 48.493904q-4.167056 15.82153 8.184695 19.141894zM946.137484 452.48249a28.223087 28.223087 0 0 0-0.464851 10.757977l76.667185 20.536446q-6.740337-19.922179-11.920103-32.190921l16.850843-8.78236A282.596109 282.596109 0 0 1 1061.901946 471.491569q5.843839 5.179767-1.361349 14.128146a184.329961 184.329961 0 0 1-7.753048 6.391699l63.0869 16.91725 14.941634-10.508949 30.165499 40.707652-20.835278 10.127108-1.427757 0.83009a356.075746 356.075746 0 0 1-32.141115 25.218159l-14.576394-8.732555-16.103762 14.941634-134.175875-35.959533 3.038132-29.401816 107.131518 28.721141 15.506096-12.766796 24.105836 31.842283q6.640726-11.488457 14.609598-27.509209l-165.752529-44.409857a34.564981 34.564981 0 0 0-0.979507 8.201297q-1.8262 6.773541-1.294942 9.313618c-1.809598 6.773541-5.461997 9.828275-10.907393 9.164203a148.038392 148.038392 0 0 1-26.562905-4.698314q-13.53048-3.602594-3.137743-15.340078 12.401556-14.792218 29.767055-52.445136z" fill="#ffffff" /></svg>