<?xml version="1.0" standalone="no"?><!DOCTYPE svg PUBLIC "-//W3C//DTD SVG 1.1//EN" "http://www.w3.org/Graphics/SVG/1.1/DTD/svg11.dtd"><svg class="icon" width="64px" height="64.00px" viewBox="0 0 1024 1024" version="1.1" xmlns="http://www.w3.org/2000/svg"><path d="M512 42.666667C252.8 42.666667 42.666667 252.8 42.666667 512.021333 42.666667 771.2 252.8 981.333333 512 981.333333 771.2 981.333333 981.333333 771.2 981.333333 512.021333 981.333333 252.8 771.2 42.666667 512 42.666667ZM500.970667 640.01062C483.285333 640.01062 468.970667 625.67462 468.970667 608.01062L468.970667 555.125286C468.970667 495.093286 512.234667 469.023953 543.829333 450.015953 575.573333 430.879953 593.685333 418.63462 596.778667 388.789286 599.296 364.789286 593.173333 344.565286 578.581333 328.71462 560.981333 309.599953 531.52 297.35462 501.632 298.69862 447.637333 299.78662 405.333333 340.81062 405.333333 392.095953 405.333333 409.759953 391.018667 424.095953 373.333333 424.095953 355.648 424.095953 341.333333 409.759953 341.333333 392.095953 341.333333 305.631953 411.178667 236.49062 500.330667 234.69862 549.077333 233.781286 595.584 252.661286 625.685333 285.38662 652.842667 314.911953 664.874667 352.949286 660.437333 395.40262 653.888 458.44262 609.365333 485.25862 576.853333 504.821286 544.341333 524.405286 532.970667 533.215953 532.970667 555.125286L532.970667 608.01062C532.970667 625.67462 518.656 640.01062 500.970667 640.01062ZM448 736C448 706.542223 471.875556 682.666667 501.333333 682.666667 530.79111 682.666667 554.666667 706.542223 554.666667 736 554.666667 765.457777 530.79111 789.333333 501.333333 789.333333 471.875556 789.333333 448 765.457777 448 736Z" fill="#bfbfbf" /></svg>