<?xml version="1.0" standalone="no"?><!DOCTYPE svg PUBLIC "-//W3C//DTD SVG 1.1//EN" "http://www.w3.org/Graphics/SVG/1.1/DTD/svg11.dtd"><svg class="icon" width="64px" height="64.00px" viewBox="0 0 1024 1024" version="1.1" xmlns="http://www.w3.org/2000/svg"><path d="M512.32768 891.099429L288.58368 1013.76a82.651429 82.651429 0 0 1-89.965714-6.875429 90.989714 90.989714 0 0 1-34.084572-87.113142l42.715429-259.730286L26.220251 476.086857a91.867429 91.867429 0 0 1-21.723428-91.428571c10.093714-32.329143 36.864-55.808 69.12-60.708572l250.148571-37.888L435.52768 49.737143C450.009966 19.236571 479.779109 0 512.32768 0c32.548571 0 62.317714 19.309714 76.8 49.737143l111.762286 236.397714 250.148571 37.814857c32.256 4.900571 59.026286 28.379429 69.12 60.708572 10.020571 32.329143 1.609143 67.730286-21.723428 91.428571l-181.028572 183.954286 42.788572 259.657143c5.485714 33.499429-7.68 67.291429-34.011429 87.259428a82.651429 82.651429 0 0 1-90.112 6.802286L512.32768 891.099429z" fill="#FFBC38" /><path d="M553.141394 391.314286c-14.262857 0.219429-25.965714-11.922286-26.258285-27.062857-0.219429-15.213714 11.117714-27.721143 25.380571-27.867429 97.499429-1.389714 153.746286 44.397714 156.818286 132.827429 0.512 15.140571-10.605714 27.794286-24.795429 28.379428-14.189714 0.438857-26.185143-11.410286-26.697143-26.550857-1.974857-55.588571-32.914286-80.822857-104.448-79.725714z" fill="#FFFFFF" /><path d="M288.510537 927.305143c6.363429 0.146286 11.410286 5.778286 11.264 12.580571-0.073143 6.802286-5.339429 12.214857-11.702857 12.068572-43.885714-0.877714-68.315429-22.308571-68.315429-62.025143 0-6.802286 5.12-12.288 11.556572-12.288 6.363429 0 11.556571 5.485714 11.556571 12.288 0 25.014857 13.458286 36.717714 45.641143 37.376z" fill="#FFFFFF" fill-opacity=".617" /></svg>