<?xml version="1.0" standalone="no"?><!DOCTYPE svg PUBLIC "-//W3C//DTD SVG 1.1//EN" "http://www.w3.org/Graphics/SVG/1.1/DTD/svg11.dtd"><svg class="icon" width="64px" height="64.00px" viewBox="0 0 1024 1024" version="1.1" xmlns="http://www.w3.org/2000/svg"><path d="M249.95813281 599.91391344s-92.03422594-103.78026469-88.2603975-210.15503625a351.107505 351.107505 0 0 1 343.93723219-310.53885656c57.0319725 0 171.14309156 0 312.70880813 167.13339937 7.54765594 9.15153281-456.39730125-116.28106969-568.38564282 353.79635813z" fill="#1FC372" /><path d="M543.98649313 320.50913656a401.77114406 401.77114406 0 0 1 220.15567968-5.37770437 331.20056344 331.20056344 0 0 1 206.145345 399.08229094c-16.13311406 54.62615719-48.72955125 163.8784725-249.214155 251.90300718-10.75540969 4.81163062 321.29426531-404.22413156-177.08686968-645.60759375z" fill="#1FC372" /><path d="M371.61690781 775.63277094a138.97120969 138.97120969 0 0 1-113.54504437 52.73924437l17.50112625-96.60999281C117.02504844 627.51002937 82.73038812 418.95887 80.13588125 425.70458656c-74.01419812 206.42838187-27.73763437 344.36178844 0.80193844 393.7045875 100.38382031 173.59608 362.75919844 222.561495 529.32652406 117.93211875 89.86427531-56.60741719 137.22581437-213.693 137.22581437-213.693-160.38768187 70.75927125-283.03708594 77.78802563-375.96759656 51.89013281z" fill="#1FC372" /></svg>