<?xml version="1.0" standalone="no"?><!DOCTYPE svg PUBLIC "-//W3C//DTD SVG 1.1//EN" "http://www.w3.org/Graphics/SVG/1.1/DTD/svg11.dtd"><svg class="icon" width="64px" height="64.00px" viewBox="0 0 1024 1024" version="1.1" xmlns="http://www.w3.org/2000/svg"><path d="M843.776 255.03999969c-12.73600031-12.12799969-25.536-24.31999969-38.016-36.79999969a2176.48000031 2176.48000031 0 0 1-36.92800031-38.14399969C699.392 107.29599969 627.64800031 32 512 32 247.328 32 32 247.328 32 512s215.328 480 480 480 480-215.328 480-480c0-115.84000031-75.32800031-187.584-148.224-256.96000031zM512 927.99999969C290.40000031 927.99999969 96.00000031 733.59999969 96.00000031 512S290.40000031 96.00000031 512 96.00000031c27.10399969 0 41.952 3.84 58.49599969 8.86399969a16.00000031 16.00000031 0 0 1 10.68800062 10.656c3.39199969 11.20000031 6.65599969 25.27999969 10.91199938 47.04 10.87999969 55.51999969 24.35200031 124.48000031 84.60800062 184.73599969 61.344 61.344 132.60799969 70.97599969 184.63999969 78.01600031 21.216 2.84800031 34.97599969 4.992 46.97599969 8.03200031a15.96799969 15.96799969 0 0 1 11.64800062 11.96799938c5.53600031 24.48 8.03200031 45.024 8.03199938 66.68800031 0 221.59999969-194.4 415.99999969-415.99999969 415.99999969z m345.05599969-470.94399938c-56.60800031-7.64800031-134.016-18.11200031-203.00799938-87.10400062-67.16800031-67.16800031-81.696-141.408-93.34400062-201.08799938a603.23200031 603.23200031 0 0 0-7.83999938-35.808A142.272 142.272 0 0 0 512 128C307.424 128 128 307.424 128 512s179.424 384 384 384 384-179.424 384-384c0-16.48000031-1.56799969-31.80799969-5.15200031-49.728a604.63999969 604.63999969 0 0 0-33.792-5.21599969z m-564.79999969-126.08000062l-45.15199969 45.24800062a15.936 15.936 0 0 1-22.656 0 16.00000031 16.00000031 0 0 1 0-22.62400031l113.11999969-113.15200031a16.00000031 16.00000031 0 0 1 22.62400031 0l67.90399969 67.90400062a16.00000031 16.00000031 0 0 1-22.62400031 22.62399938L348.86400031 274.4 314.912 308.35200031l33.95200031 33.95199938a16.00000031 16.00000031 0 0 1-22.656 22.62400031L292.256 330.97599969z m140.47999969 213.504a16.00000031 16.00000031 0 0 1-14.496 17.376l-1.47199969 0.06400031a16.00000031 16.00000031 0 0 1-15.90400031-14.56000031l-8.22399938-90.46399969-32.448 32.448a16.00000031 16.00000031 0 0 1-22.62400031-22.62400031l113.15200031-113.15199938a16.00000031 16.00000031 0 0 1 22.62399938 0l45.24800062 45.24799969c21.888 21.888 21.888 46.01599969 0 67.90399969-37.44 37.40800031-61.37599969 29.088-74.94400031 15.58400062l-18.24-18.27200062 7.32799969 80.448z m108.51200062 103.296a16.00000031 16.00000031 0 0 1-22.656 22.62400031l-67.872-67.872a16.00000031 16.00000031 0 0 1 0-22.62400031l56.544-56.544v-0.03199969l56.544-56.544a16.00000031 16.00000031 0 0 1 22.62399938 0l67.90400062 67.872a16.00000031 16.00000031 0 0 1-22.62400031 22.62400031l-56.60800031-56.57600062-33.91999969 33.95200031 33.91999969 33.91999969a16.00000031 16.00000031 0 0 1-22.656 22.62400031l-33.91999969-33.91999969-33.95200031 33.95199938 56.67200062 56.544z m226.272 22.62400031a16.00000031 16.00000031 0 0 1-22.62400031 0l-56.57599969-56.57599969-33.95200031 33.95199938 33.95200031 33.92000062a16.00000031 16.00000031 0 0 1-22.656 22.62399938l-33.95200031-33.91999969-33.95200031 33.91999969 56.60800031 56.57600062a16.00000031 16.00000031 0 0 1-22.656 22.62399938l-67.90399969-67.90399969a16.00000031 16.00000031 0 0 1 0-22.656l56.544-56.51200031 0.03199969-0.03199969 0.03199969-0.03199969 56.544-56.544a16.00000031 16.00000031 0 0 1 22.62400031 0l67.872 67.872a16.00000031 16.00000031 0 0 1 0.06400031 22.68799969zM495.99999969 444.128c9.504-9.504 9.504-13.12000031 0-22.656l-33.95199938-33.95200031-33.95200031 33.95200031 38.17600031 38.208c6.144 6.17599969 21.28000031-7.13599969 29.72799938-15.552z" fill="#ffffff" /></svg>