<svg t="1641448899489" class="icon" viewBox="0 0 1024 1024" version="1.1"
    xmlns="http://www.w3.org/2000/svg" p-id="3836" width="48" height="48">
    <path
        d="M830.57 862H193.43a40 40 0 0 1-39.79-44.11l64.07-619.94A39.9 39.9 0 0 1 257.5 162h512a39.86 39.86 0 0 1 39.81 36.08L870.38 818a40 40 0 0 1-39.81 44z m-19.9-38zM215.6 802h592.9l-57.15-580H275.54z"
        fill="#bbbbbb" p-id="3837"></path>
    <path
        d="M647 259.61a30 30 0 0 0-37.49 19.85c0 0.14-5.07 14.66-18.55 29.08-19.23 20.58-45.91 31.08-79.31 31.22-33.4-0.14-60.08-10.63-79.31-31.22-13.47-14.42-18.5-28.95-18.55-29.08a30 30 0 0 0-57.35 17.64c0.85 2.76 9 27.69 32 52.4 21.35 22.85 60 50.07 123.15 50.25 63.13-0.19 101.81-27.4 123.15-50.25 23.08-24.71 31.2-49.64 32-52.4A30 30 0 0 0 647 259.61z"
        fill="#bbbbbb" p-id="3838"></path>
</svg>