<?xml version="1.0" standalone="no"?><!DOCTYPE svg PUBLIC "-//W3C//DTD SVG 1.1//EN" "http://www.w3.org/Graphics/SVG/1.1/DTD/svg11.dtd"><svg class="icon" width="128px" height="128.00px" viewBox="0 0 1024 1024" version="1.1" xmlns="http://www.w3.org/2000/svg"><path d="M512 512m-458.443515 0a458.443515 458.443515 0 1 0 916.88703 0 458.443515 458.443515 0 1 0-916.88703 0Z" fill="#FFE147" /><path d="M507.715481 59.649071c-253.189356 0-458.443515 205.254159-458.443514 458.443515s205.254159 458.443515 458.443514 458.443514 458.443515-205.254159 458.443515-458.443514-205.254159-458.443515-458.443515-458.443515z m17.138075 895.464435c-231.895297 0-419.882845-187.987548-419.882845-419.882845s187.987548-419.882845 419.882845-419.882845 419.882845 187.987548 419.882846 419.882845-187.987548 419.882845-419.882846 419.882845z" fill="#FFFFFF" /><path d="M507.715481 70.694561c240.974192 0 437.020921 196.046728 437.020921 437.02092s-196.046728 437.020921-437.020921 437.020921-437.020921-196.046728-437.02092-437.020921 196.046728-437.020921 437.02092-437.02092z m-479.866109 437.02092c0 264.599029 215.267079 479.866109 479.866109 479.866109s479.866109-215.267079 479.866109-479.866109-215.267079-479.866109-479.866109-479.866109-479.866109 215.267079-479.866109 479.866109z" fill="#6E6E96" /><path d="M507.715481 49.271967c-253.189356 0-458.443515 205.254159-458.443514 458.443514s205.254159 458.443515 458.443514 458.443515 458.443515-205.254159 458.443515-458.443515-205.254159-458.443515-458.443515-458.443514z m-10.711297 852.619246c-233.077824 0-422.025105-188.951565-422.025105-422.025104 0-233.077824 188.94728-422.025105 422.025105-422.025105 233.07354 0 422.025105 188.94728 422.025105 422.025105 0 233.07354-188.951565 422.025105-422.025105 422.025104z" fill="#6E6E96" /><path d="M437.016636 278.493724l21.422594 282.653991h107.112971l21.422594-282.653991z" fill="#FF7F96" /><path d="M415.654025 280.113272l21.422594 282.653992a21.422594 21.422594 0 0 0 21.362611 19.803046h107.112971a21.41831 21.41831 0 0 0 21.358326-19.803046l21.422594-282.653992A21.422594 21.422594 0 0 0 586.974795 257.07113h-149.958159a21.41831 21.41831 0 0 0-21.362611 23.042142z m149.962444-3.239096l-21.422595 282.653991a21.41831 21.41831 0 0 1 21.358327-19.803046h-107.112971a21.422594 21.422594 0 0 1 21.362611 19.803046l-21.422594-282.653991A21.422594 21.422594 0 0 1 437.016636 299.916318h149.958159a21.41831 21.41831 0 0 1-21.358326-23.042142z" fill="#6E6E96" /><path d="M458.43923 648.423364h107.112971V754.075314h-107.112971z" fill="#FF7F96" /><path d="M437.016636 648.423364V754.075314a21.422594 21.422594 0 0 0 21.422594 21.422594h107.112971a21.422594 21.422594 0 0 0 21.422594-21.422594v-105.65195a21.422594 21.422594 0 0 0-21.422594-21.422594h-107.112971a21.422594 21.422594 0 0 0-21.422594 21.422594z m107.112971 0V754.075314a21.422594 21.422594 0 0 1 21.422594-21.422594h-107.112971a21.422594 21.422594 0 0 1 21.422594 21.422594v-105.65195a21.422594 21.422594 0 0 1-21.422594 21.422594h107.112971a21.422594 21.422594 0 0 1-21.422594-21.422594z" fill="#6E6E96" /></svg>