<?xml version="1.0" standalone="no"?><!DOCTYPE svg PUBLIC "-//W3C//DTD SVG 1.1//EN" "http://www.w3.org/Graphics/SVG/1.1/DTD/svg11.dtd"><svg class="icon" width="128px" height="128.00px" viewBox="0 0 1024 1024" version="1.1" xmlns="http://www.w3.org/2000/svg"><path d="M522.24 38.912c260.608 5.632 468.48 222.208 462.848 482.816-5.632 260.608-222.208 468.48-482.816 462.848-155.136-3.072-299.008-82.432-384.512-211.456-53.76-80.896-80.896-174.592-78.848-271.36 1.024-43.52 36.864-77.824 80.384-77.312 43.52 1.024 77.824 36.864 77.312 80.384-1.536 64.512 16.896 126.976 52.224 180.736 57.344 86.016 153.088 139.264 256.512 141.312 173.568 3.584 318.464-134.656 322.048-308.736 3.584-174.08-134.656-318.464-308.736-322.048-43.52-1.024-77.824-36.864-77.312-80.384 1.024-43.008 37.376-77.824 80.896-76.8" fill="#50B3FF" /><path d="M460.288 982.016c27.136-29.696 44.032-70.144 44.032-114.176 0-14.336-1.536-27.648-5.12-40.96-87.552-3.584-168.96-43.52-225.792-109.056-49.664 24.576-84.992 74.752-90.624 133.632 75.264 72.704 172.544 118.784 277.504 130.56z" fill="#61C7FF" /><path d="M266.24 867.84a79.36 76.8 90 1 0 153.6 0 79.36 76.8 90 1 0-153.6 0Z" fill="#6CE0FF" /></svg>