<svg t="1642121289369" class="icon" viewBox="0 0 1227 1024" version="1.1" xmlns="http://www.w3.org/2000/svg" p-id="2087" width="64" height="64"><path d="M1009.29212693 376.63070506L870.98612587 288.71150827c-19.9922848-12.66698667-30.90994667-34.37735787-30.90994668-56.35325227 0-1.9992288 0.249904-4.09217066 0.39047468-6.1694944l-519.0184576 0c-52.43289173 0-100.74237228 42.56170028-107.4585312 94.52602239L131.20910933 963.60731092c-6.638064 51.94870293 30.8006144 94.52602239 83.12417174 94.52602241l787.43050026 0c52.40165334 0 89.79347307-42.57731947 83.12417174-94.52602241L1009.29212693 376.63070506zM792.18840853 288.91455467c14.4787872 0 26.20863573 11.76108588 26.20863574 26.17739841 0 14.4787872-11.72984747 26.23987414-26.20863574 26.23987412-14.4475488 0-26.20863573-11.76108588-26.20863573-26.23987412C765.97977173 300.67564159 777.74085867 288.91455467 792.18840853 288.91455467zM437.37221013 288.91455467c14.49440641 0 26.20863573 11.76108588 26.20863574 26.17739841 0 14.4787872-11.71422932 26.23987414-26.20863574 26.23987412-14.4475488 0-26.14616-11.76108588-26.14615999-26.23987412C411.21043093 300.67564159 422.90904108 288.91455467 437.37221013 288.91455467zM816.02296106 633.00051947l-80.35961386 76.73601174c-2.014848 1.45256427-5.63844906 9.76185812-5.3104512 14.08831252 0 0.76533013 0.09371413 1.3588512 0.15618987 1.7337056l19.86733333 109.39528427c0.35923627 1.9992288 0.59352106 4.06093333 0.59352107 6.1851136 0 5.044928-1.28075627 10.9801376-5.544736 16.10316053-4.23274133 5.23235628-11.35499306 7.9500576-17.05591788 7.80948695-5.48225919-0.06247573-10.07423788-1.67122988-14.18202666-3.87350508l-97.82162453-52.68279467c-1.17142293-0.70285333-4.79502507-1.67122988-8.29367467-1.62437333-3.57674452-0.07809492-7.2472032 0.92151893-8.3561504 1.62437333l-97.85286293 52.68279467c-4.1546464 2.2022752-8.69976853 3.81102933-14.18202667 3.87350508-0.17180907 0-0.31237973 0-0.54666453 0-5.56035413 0-12.43270188-2.71770133-16.55611093-7.80948695-4.26397973-5.12302292-5.5291168-11.05823253-5.5291168-16.10316053 0-2.2022752 0.249904-4.24836054 0.60914026-6.24758933l19.85171414-109.31718934c0.06247573-0.32799893 0.12495146-0.98399573 0.12495146-1.73370559 0.32799893-4.32645547-3.23312747-12.68260481-5.3104512-14.08831254l-80.25028053-76.73601172c-4.74816747-4.57635947-9.09024214-10.6052832-9.2932896-19.46123947-0.17180907-6.65368213 3.60798293-13.55726827 8.3561504-17.13401281 4.68569173-3.7485536 9.74623893-5.23235628 14.7286912-5.9508288l110.0981376-14.9317376c1.343232-0.06247573 4.81064427-1.3588512 7.68453439-3.5611264 2.92074773-2.07732373 5.23235628-4.98245227 5.74778241-6.2007328l48.21576853-100.07075626c1.81180053-3.82664853 4.20150399-7.37215573 7.80948694-10.48033067 3.5455072-3.01446186 8.77786347-5.43540266 14.58812053-5.43540266 5.716544 0 10.9645184 2.38970241 14.49440639 5.43540266 3.60798293 3.108176 6.06016212 6.65368213 7.84072428 10.48033067l48.18453012 100.07075626c0.49980693 1.23389867 2.8738912 4.13902827 5.77901974 6.2007328 2.93636693 2.2022752 6.34130347 3.4986496 7.6845344 3.5611264l110.1137568 14.9317376c4.95121493 0.70285333 10.01176213 2.2022752 14.713072 5.9508288 4.71693012 3.57674452 8.49672107 10.46471253 8.30929387 17.13401281C825.03510826 622.41085652 820.64617707 628.42416107 816.02296106 633.00051947zM1162.67043733 255.94290453L969.72926934 133.30273173c-22.11646506-14.02583679-51.6988-7.45025066-65.72463681 14.65059627l-11.76108586 18.50848213c-19.85171414-13.5728864-38.1883872-18.80524267-53.9947872-18.80524266-13.8071712 0.06247573-25.09968852 3.79541013-33.87755094 8.32491305-7.57520213-46.07596907-26.55225388-87.57557867-53.77612161-120.09427945C714.90573227-6.78383253 664.31588054-34.19512961 608.025104-34.13265387c-56.25953919-0.06247573-106.84939093 27.34882133-142.56998081 70.01985386-35.7674464 42.79598507-57.43096213 100.97665707-57.43096212 164.90511148l38.07905493 0c-0.03123841-55.27554346 18.86771841-104.97511466 48.54376639-140.39894401 29.80100054-35.43944853 69.73871253-56.4313472 113.37812161-56.4313472 43.7018848 0 83.57712213 21.00751787 113.40935999 56.4313472 29.64481068 35.43944853 48.5593856 85.12340053 48.49690988 140.39894401l38.14153066 0c0-8.1374848-0.37485547-16.228112-1.0777088-24.17816961 7.0753952-4.8575008 17.60258133-9.9492864 31.23794559-9.8868096 11.74546667 0 26.3648256 3.87350507 43.77997975 15.83763841l-15.50963948 24.38121599c-14.02583679 22.11646506-7.4658688 51.71441813 14.6662144 65.74025601l192.90992961 122.64017173c22.11646506 14.02583679 51.73003734 7.45025066 65.75587413-14.6662144l37.45429547-58.94600213C1191.3781088 299.5666944 1184.77128321 270.03121708 1162.67043733 255.94290453zM927.4799488 184.11124907c9.18395627 0 16.61858667 7.481488 16.61858667 16.6654432 0 9.24643201-7.4658688 16.6810624-16.61858667 16.6810624-9.21519467 0-16.6810624-7.45025066-16.6810624-16.6810624C910.7988864 191.60835628 918.26475413 184.11124907 927.4799488 184.11124907z" fill="#bfbfbf" p-id="2088"></path></svg>