<svg t="1641956471547" class="icon" viewBox="0 0 1024 1024" version="1.1" xmlns="http://www.w3.org/2000/svg" p-id="79130" width="200" height="200"><path d="M0 512c0 282.752 229.248 512 512 512s512-229.248 512-512S794.752 0 512 0 0 229.248 0 512z" fill="#FF7859" p-id="79131"></path><path d="M328.192 748.288A44.288 44.288 0 0 1 284.032 704v-103.424c0-3.797333 1.450667-7.424 4.096-10.112a25.6 25.6 0 0 1 10.112-4.224c18.346667 8.448 38.314667 12.586667 58.496 12.16 22.784 0 51.2-25.6 80.768-25.6 24.576 0 51.2 24.576 76.8 24.448 25.6-0.128 55.296-25.6 80.896-25.6 30.208 0 57.6 27.136 78.848 29.824 25.6 3.2 42.496-18.048 45.312-18.048a14.336 14.336 0 0 1 14.208 14.336v106.24a44.416 44.416 0 0 1-44.16 44.544H328.32l-0.128-0.256z m23.296-190.08a100.736 100.736 0 0 1-44.288-9.472v-1.92h-3.712a101.12 101.12 0 0 1-52.224-88.704A102.485333 102.485333 0 0 1 256 426.496v-1.92l48.384-115.2c7.466667-20.906667 27.733333-34.389333 49.92-33.152h316.288a52.48 52.48 0 0 1 51.2 34.304L767.232 422.4a11.776 11.776 0 0 1 0.768 2.304v1.152a101.248 101.248 0 0 1-47.488 119.936 102.4 102.4 0 0 1-125.056-24.448l-3.84-4.608-3.84 4.608a98.688 98.688 0 0 1-152.32 0l-3.84-4.48-3.84 4.48a100.096 100.096 0 0 1-76.8 36.096l0.512 0.768z m3.584-119.296a14.336 14.336 0 0 1 0-28.544h307.2a14.336 14.336 0 0 1 0 28.544h-307.2z" fill="#FFFFFF" p-id="79132"></path></svg>