<svg t="1642063675378" class="icon" viewBox="0 0 1024 1024" version="1.1" xmlns="http://www.w3.org/2000/svg" p-id="57094" width="64" height="64"><path d="M512 511.2m-503.9 0a503.9 503.9 0 1 0 1007.8 0 503.9 503.9 0 1 0-1007.8 0Z" fill="#FEB31D" p-id="57095"></path><path d="M590.4 569.6c0.2 0.1 0.4 0.1 0.6 0.1l-0.3-0.3c-0.1 0.1-0.2 0.1-0.3 0.2z" fill="#FFFFFF" p-id="57096"></path><path d="M453.5 662.7c7.1 0 13.9 1.4 20.5 4 6.5 2.6 12.2 6.2 17 11.1 4.8 4.8 8.8 10.2 11.4 16.8s4 13.4 4 20.5-1.4 13.9-4 20.5c-2.6 6.5-6.5 11.9-11.4 16.8-4.8 4.8-10.5 8.5-17 11.4-6.5 2.8-13.4 4.3-20.5 4.3-7.7 0-14.5-1.4-20.7-4.3-6.2-2.8-11.9-6.5-16.8-11.4-4.8-4.8-8.8-10.2-11.4-16.8-2.6-6.5-4-13.4-4-20.5s1.4-13.9 4-20.5c2.6-6.5 6.5-11.9 11.4-16.8 4.8-4.8 10.5-8.5 16.8-11.1 6.2-2.6 13-4 20.7-4z m236.3 1.1c7.1 0 14.2 1.4 20.7 4s12.2 6.2 17 11.1c4.8 4.8 8.5 10.2 11.4 16.8 2.8 6.5 4.3 13.4 4.3 20.5s-1.4 13.9-4.3 20.5c-2.8 6.5-6.5 11.9-11.4 16.8-4.8 4.8-10.5 8.5-17 11.4-6.5 2.8-13.6 4.3-20.7 4.3s-13.9-1.4-20.5-4.3c-6.5-2.8-11.9-6.5-16.8-11.4-4.8-4.8-8.5-10.2-11.4-16.8-2.8-6.5-4.3-13.4-4.3-20.5s1.4-13.9 4.3-20.5c2.8-6.5 6.5-11.9 11.4-16.8 4.8-4.8 10.2-8.5 16.8-11.1 6.6-2.6 13.4-4 20.5-4zM445 596.2h286.4c18.2 0 27.3 7.7 27.3 23.3 0 7.7-1.7 14.2-5.4 19.6-3.7 5.4-10.8 8.2-21.3 8.2H434.3c-7.7 0-13.9-1.7-19-5.1s-9.4-8-12.8-13.4c-3.4-5.4-6.2-11.4-8.2-17.9-2-6.5-46.9-240.6-56-287.5h-42.6c-5.7 0-10.5-1.4-14.2-4.3-3.7-2.8-6.8-6.2-9.4-10.2-2.6-4-4.3-8.2-5.1-12.8-0.9-4.5-1.4-8.8-1.4-12.5 0-7.7 2.6-13.9 7.7-18.7 5.1-4.8 11.9-7.4 20.7-7.4H351.4c7.7 0 13.6 1.1 18.2 3.4 4.5 2.3 8.2 5.1 10.8 8.5s4.5 7.1 5.7 10.8c1.1 3.7 2 7.1 2.8 9.7 0.9 3.1 1.4 7.4 2.3 12.8S445 596.2 445 596.2z" fill="#FFFFFF" p-id="57097"></path><path d="M690.1 354.5h-44.3c-4.8 0-9.1-3.4-10.2-8-4.3-17-21.9-27.3-38.9-23-11.4 2.8-20.2 11.6-23 23-1.1 4.8-5.4 8-10.2 8h-44c-8.5-0.3-15.9 6.8-15.9 15.3v192.6c-0.3 8.8 6.8 15.9 15.3 15.9H690.2c8.8 0.3 15.9-6.8 15.9-15.3V370.4c0.3-8.8-6.8-15.9-15.3-15.9h-0.7z m-96 0h21.3c2.8-0.3 5.1 2 5.4 4.8v0.6c0.3 2.8-2 5.1-4.8 5.4H594.1c-2.8 0.3-5.1-2-5.4-4.8v-0.6c-0.3-2.8 2-5.1 4.8-5.4h0.6z m32.1 165.3h-85.5c-2.8 0-5.4-2.3-5.4-5.4 0-2.8 2.3-5.4 5.4-5.4h85.5c2.8 0 5.4 2.3 5.4 5.4 0 3.1-2.6 5.4-5.4 5.4z m21.3-48H540.7c-2.8 0-5.4-2.3-5.4-5.4 0-2.8 2.3-5.4 5.4-5.4h106.8c2.8 0 5.4 2.3 5.4 5.4 0 3.1-2.6 5.4-5.4 5.4z m21.3-48H540.7c-2.8 0-5.4-2.3-5.4-5.4 0-2.8 2.3-5.4 5.4-5.4h128.1c2.8 0 5.4 2.3 5.4 5.4 0 3.1-2.5 5.4-5.4 5.4z" fill="#FFFFFF" p-id="57098"></path></svg>