<?xml version="1.0" standalone="no"?><!DOCTYPE svg PUBLIC "-//W3C//DTD SVG 1.1//EN" "http://www.w3.org/Graphics/SVG/1.1/DTD/svg11.dtd"><svg class="icon" width="64px" height="64.00px" viewBox="0 0 1024 1024" version="1.1" xmlns="http://www.w3.org/2000/svg"><path d="M256.00204206 54.01560734c119.31838716 0 216.94252171 97.62413458 216.94252173 216.94252174v216.94251982h-216.94252173c-119.31838716 0-216.94252171-97.62413458-216.94252173-216.94251982s92.20057241-216.94252171 216.94252173-216.94252174z" fill="#bfbfbf" /><path d="M741.84481787 490.61243188h-184.40114287c-16.27068846 0-32.54137884-16.27068846-32.54137884-32.54137885v-184.40114288c0-119.31838716 97.62413458-216.94252171 216.94252171-216.9425217s216.94252171 97.62413458 216.94252173 216.9425217-97.62413458 216.94252171-216.94252173 216.94252173z m-162.70689034-54.23563138h162.70689034c92.20057241 0 162.70689034-70.50631984 162.70689225-162.70689035s-70.50631984-162.70689034-162.70689225-162.70689223-162.70689034 70.50631984-162.70689034 162.70689223v162.70689035z" fill="#bfbfbf" /><path d="M744.12271498 976.02132181c-119.31838716 0-216.94252171-97.62413458-216.94252171-216.94251983v-216.94252171h216.94252171c119.31838716 0 216.94252171 97.62413458 216.94252172 216.94252171 0 124.74194933-97.62413458 216.94252171-216.94252172 216.94251983zM39.05952033 759.07880198c0-119.31838716 97.62413458-216.94252171 216.94252173-216.94252171h216.94252173v216.94252171c0 119.31838716-97.62413458 216.94252171-216.94252173 216.94251983-124.74194933 0-216.94252171-92.20057241-216.94252173-216.94251983z" fill="#bfbfbf" /></svg>