<?xml version="1.0" standalone="no"?><!DOCTYPE svg PUBLIC "-//W3C//DTD SVG 1.1//EN" "http://www.w3.org/Graphics/SVG/1.1/DTD/svg11.dtd"><svg class="icon" width="64px" height="64.00px" viewBox="0 0 1024 1024" version="1.1" xmlns="http://www.w3.org/2000/svg"><path d="M514.9696 508.7744m-440.2688 0a440.2688 440.2688 0 1 0 880.5376 0 440.2688 440.2688 0 1 0-880.5376 0Z" fill="#FF4456" /><path d="M893.0816 357.4784c0-29.44-2.6112-58.3168-7.5776-86.3232-78.2848-121.8048-214.9376-202.5984-370.5344-202.5984-243.1488 0-440.2688 197.12-440.2688 440.2688 0 108.9536 39.68 208.5888 105.216 285.44C246.784 828.416 322.56 847.7184 402.8416 847.7184c270.7456 0 490.24-219.4944 490.24-490.24z" fill="#FF616C" /><path d="M74.7008 508.7744c0 24.4224 2.0992 48.3328 5.888 71.68 62.208 35.6864 134.2464 56.1664 211.0976 56.1664 234.7008 0 424.96-190.2592 424.96-424.96 0-34.56-4.2496-68.096-11.9808-100.2496-57.4464-27.4944-121.7536-42.9056-189.696-42.9056-243.1488 0-440.2688 197.12-440.2688 440.2688z" fill="#FF787D" /><path d="M86.9888 405.6576c31.488 9.8304 65.024 15.1552 99.7888 15.1552 184.4224 0 333.9776-149.504 333.9776-333.9776 0-6.0928-0.2048-12.1856-0.512-18.2272-1.7408 0-3.4816-0.1536-5.2736-0.1536-207.616 0.0512-381.5424 143.8208-427.9808 337.2032z" fill="#FF9391" /><path d="M680.8576 289.1264h-43.1616v-9.6256c0-10.496-4.096-20.3776-11.52-27.8016a39.09632 39.09632 0 0 0-27.6992-11.4688h-5.1712c-2.4576 0.2048-4.9152-1.0752-6.5536-2.9184l-13.9776-15.5136a49.8944 49.8944 0 0 0-36.9664-16.4864h-38.5536c-13.824 0-27.0848 5.7856-36.5056 15.9232l-15.0016 16.1792c-1.6384 1.792-3.9936 2.816-6.4512 2.816h-8.4992c-10.4448 0-20.2752 4.0448-27.6992 11.4688a39.08096 39.08096 0 0 0-11.52 27.8016v9.6256h-42.4448c-36.1472 0-65.536 29.3888-65.536 65.536v348.7744c0 36.1472 29.3888 65.536 65.536 65.536h331.7248c36.1472 0 65.536-29.3888 65.536-65.536V354.6624c0-36.1472-29.44-65.536-65.536-65.536z m-248.3712-7.8848h6.8096c13.824 0 27.0848-5.7856 36.5056-15.9232l15.0016-16.1792c1.6384-1.792 3.9936-2.816 6.4512-2.816h38.5536c2.5088 0 4.864 1.0752 6.5536 2.9184l13.9776 15.5136a49.92 49.92 0 0 0 37.0176 16.4864h3.4816v60.3136h-164.352V281.2416z m272.9472 422.1952c0 13.568-11.008 24.576-24.576 24.576h-331.776c-13.568 0-24.576-11.008-24.576-24.576V354.6624c0-13.568 11.008-24.576 24.576-24.576h42.4448v13.2096c0 21.6576 17.6128 39.2192 39.2192 39.2192h167.7312c21.6064 0 39.2192-17.6128 39.2192-39.2192v-13.2096h43.1616c13.568 0 24.576 11.008 24.576 24.576v348.7744z" fill="#FFFFFF" /><path d="M627.0976 634.4192H397.2608c-11.3152 0-20.48 9.1648-20.48 20.48s9.1648 20.48 20.48 20.48h229.8368c11.3152 0 20.48-9.1648 20.48-20.48s-9.1648-20.48-20.48-20.48zM627.0976 549.1712H397.2608c-11.3152 0-20.48 9.1648-20.48 20.48s9.1648 20.48 20.48 20.48h229.8368c11.3152 0 20.48-9.1648 20.48-20.48s-9.1648-20.48-20.48-20.48zM397.2608 494.9504h129.4336c11.3152 0 20.48-9.1648 20.48-20.48s-9.1648-20.48-20.48-20.48H397.2608c-11.3152 0-20.48 9.1648-20.48 20.48s9.1648 20.48 20.48 20.48z" fill="#FFFFFF" /></svg>