<?xml version="1.0" standalone="no"?><!DOCTYPE svg PUBLIC "-//W3C//DTD SVG 1.1//EN" "http://www.w3.org/Graphics/SVG/1.1/DTD/svg11.dtd"><svg class="icon" width="64px" height="63.81px" viewBox="0 0 1027 1024" version="1.1" xmlns="http://www.w3.org/2000/svg"><path d="M563.1998 750.92124a51.199982 51.199982 0 1 0-51.199982 51.199982 50.285696 50.285696 0 0 0 51.199982-51.199982z m0 0" fill="#06C1AE" /><path d="M511.999818 0.000366a511.999817 511.999817 0 1 0 511.999818 511.999817 511.30496 511.30496 0 0 0-511.999818-511.999817z m197.961073 781.640863a52.479981 52.479981 0 0 1-51.199982 51.199982H361.801015a52.479981 52.479981 0 0 1-51.199982-51.199982V238.921423a52.479981 52.479981 0 0 1 51.199982-51.199981h296.959894a52.479981 52.479981 0 0 1 51.199982 51.199981z m0 0" fill="#06C1AE" /><path d="M662.16205 221.879144h-296.959894a19.675422 19.675422 0 0 0-20.479992 20.479992v440.319843h334.518737V238.957995a16.127994 16.127994 0 0 0-17.078851-17.078851z m0 0" fill="#06C1AE" /></svg>