<?xml version="1.0" standalone="no"?><!DOCTYPE svg PUBLIC "-//W3C//DTD SVG 1.1//EN" "http://www.w3.org/Graphics/SVG/1.1/DTD/svg11.dtd"><svg class="icon" width="64px" height="64.00px" viewBox="0 0 1024 1024" version="1.1" xmlns="http://www.w3.org/2000/svg"><path d="M241.38476562 123.5234375h229.21875001C535.73046875 123.5234375 588.46484375 176.2578125 588.46484375 241.296875v200.12695313c0 30.234375-24.609375 54.84375-54.84375 54.84374999H241.38476562C176.2578125 496.1796875 123.5234375 443.4453125 123.5234375 378.40625V241.296875c0-65.0390625 52.734375-117.7734375 117.86132813-117.7734375M782.61523438 902.234375H553.39648438C488.26953125 902.234375 435.53515625 849.5 435.53515625 784.4609375V584.421875c0-30.234375 24.609375-54.84375 54.84375-54.84375h292.23632813C847.7421875 529.578125 900.4765625 582.3125 900.4765625 647.3515625v137.109375c0 65.0390625-52.734375 117.7734375-117.86132813 117.7734375" fill="#FF5D91" /><path d="M760.73046875 123.5234375c77.16796875 0 139.74609375 62.49023438 139.74609375 139.5703125v93.60351563c0 77.08007813-62.578125 139.5703125-139.74609375 139.57031249h-55.37109375c-46.58203125 0-84.375-37.70507813-84.375-84.19921874V263.09375C620.984375 186.01367187 683.5625 123.5234375 760.73046875 123.5234375" fill="#38A8FF" /><path d="M263.26953125 902.234375c-77.16796875 0-139.74609375-62.49023438-139.74609375-139.5703125V669.1484375C123.5234375 592.06835938 186.1015625 529.578125 263.26953125 529.578125h55.37109375c46.58203125 0 84.375 37.70507813 84.375 84.19921875v148.88671875c0 77.08007813-62.578125 139.5703125-139.74609375 139.5703125" fill="#FFBF0B" /></svg>