<?xml version="1.0" standalone="no"?><!DOCTYPE svg PUBLIC "-//W3C//DTD SVG 1.1//EN" "http://www.w3.org/Graphics/SVG/1.1/DTD/svg11.dtd"><svg class="icon" width="64px" height="64.00px" viewBox="0 0 1024 1024" version="1.1" xmlns="http://www.w3.org/2000/svg"><path d="M636.46115281 369.81443281a35.32896 35.32896 0 1 0-21.83317687 63.34020657C602.39179906 478.56045031 561.30463906 512.02999062 512.12000938 512.02999062s-90.27178969-33.46954031-102.56794782-78.81536999a35.32896 35.32896 0 0 0-21.77319562-63.34020657 35.50890375 35.50890375 0 0 0-13.79568844 68.25866906c14.81537062 62.68041281 71.07778781 109.40581031 138.25679437 109.40581125s123.38144344-46.72539844 138.25679438-109.40581125a35.50890375 35.50890375 0 0 0-14.03561344-68.31865031zM512.00004688 32.05998125a479.97000938 479.97000938 0 1 0 0.05998124 960A479.97000938 479.97000938 0 0 0 512.00004688 32.05998125z m231.16776 657.81443344a53.38331813 53.38331813 0 0 1-53.32333594 53.32333593H334.33556656a53.38331813 53.38331813 0 0 1-53.32333593-53.32333593V334.36551031c0-29.45079656 23.87253937-53.32333687 53.32333593-53.32333593h355.50890438a53.38331813 53.38331813 0 0 1 53.32333594 53.32333593v355.50890438z" fill="#ffffff" /></svg>