<svg t="1641449052515" class="icon" viewBox="0 0 1024 1024" version="1.1"
    xmlns="http://www.w3.org/2000/svg" p-id="10233" width="48" height="48">
    <path
        d="M873.83 301l-66.28-127.18c-16.46-31.13-56.93-56-92.07-56H309c-35.14 0-76.06 24.46-92.51 55.6l-65.87 124.49C136.39 325 125.27 370 125.27 400.21v431.88a72.51 72.51 0 0 0 72.5 72.5h628.46a72.51 72.51 0 0 0 72.5-72.5V403.33c0-30.24-10.67-75.17-24.91-102.3z m-680.07 19.6l65.83-124.54c8.45-15.57 32-29.8 49.81-29.8h406.53c17.79 0 40.92 14.23 49.37 29.8l66.27 127.21a154 154 0 0 1 8.9 22.24h-655.6c2.22-9.34 5.34-18.24 8.9-24.91zM850.7 832.09a23.92 23.92 0 0 1-24 24H198.21a23.92 23.92 0 0 1-24-24V400.21c0-1.78 0.44-4.45 0.44-6.67h675.16a72.73 72.73 0 0 1 0.89 9.79z"
        fill="#bbbbbb" p-id="10234"></path>
    <path
        d="M715.49 527L593.62 656.85l-48.93-48.93a24.22 24.22 0 0 0-34.25 34.25l66.27 66.27a23.23 23.23 0 0 0 16.9 7.12 24.24 24.24 0 0 0 9.79-2.22 31.56 31.56 0 0 0 9.79-5.78l137.43-147.23a24.07 24.07 0 0 0-2.22-34.25c-9.34-8.9-24-8-32.91 0.89z m-275.32 35.11h-145a24.25 24.25 0 0 0 0 48.48h145a23.92 23.92 0 0 0 24-24c0-13.34-10.67-24.46-24-24.46zM366.78 665.3h-72.5a23.94 23.94 0 0 0-23.13 24.91 24.18 24.18 0 0 0 23.13 23.13h72.5a24 24 0 1 0 0-48z"
        fill="#bbbbbb" p-id="10235"></path>
</svg>