<?xml version="1.0" standalone="no"?><!DOCTYPE svg PUBLIC "-//W3C//DTD SVG 1.1//EN" "http://www.w3.org/Graphics/SVG/1.1/DTD/svg11.dtd"><svg class="icon" width="64px" height="64.00px" viewBox="0 0 1024 1024" version="1.1" xmlns="http://www.w3.org/2000/svg"><path d="M372.736 321.28c-16.384 0-29.696-13.312-29.696-29.696V192.512c0-16.384 13.312-29.696 29.696-29.696s29.696 13.312 29.696 29.696v99.072c0 16.384-13.312 29.696-29.696 29.696zM660.1216 321.28c-16.384 0-29.696-13.312-29.696-29.696V192.512c0-16.384 13.312-29.696 29.696-29.696 16.384 0 29.696 13.312 29.696 29.696v99.072c0 16.384-13.2608 29.696-29.696 29.696z" fill="#FFC2D6" /><path d="M843.1104 219.136h-108.7488v72.448c0 41.0112-33.2288 74.24-74.24 74.24s-74.24-33.2288-74.24-74.24V219.136H446.976v72.448c0 41.0112-33.2288 74.24-74.24 74.24s-74.24-33.2288-74.24-74.24V219.136H184.1664c-43.7248 0-79.1552 35.4304-79.1552 79.1552V840.704c0 43.7248 35.4304 79.1552 79.1552 79.1552h658.944c43.7248 0 79.1552-35.4304 79.1552-79.1552V298.2912c0-43.7248-35.4304-79.1552-79.1552-79.1552z m-160.4608 302.848l-151.1936 198.4512a52.34176 52.34176 0 0 1-41.3696 20.5312c-12.6464 0-24.9856-4.608-34.5088-13.056L338.432 624.4352c-12.6976-11.2128-13.9264-30.6688-2.7136-43.3664 11.2128-12.7488 30.6688-13.9264 43.3664-2.7136l101.2224 89.3952c4.5056 3.9936 11.4176 3.2768 15.0528-1.4848l138.3424-181.5552a30.69952 30.69952 0 0 1 43.0592-5.8368c13.568 10.3424 16.1792 29.6448 5.888 43.1104z" fill="#FFC2D6" /><path d="M372.736 270.08c-16.384 0-29.696-13.312-29.696-29.696V141.312c0-16.384 13.312-29.696 29.696-29.696s29.696 13.312 29.696 29.696v99.072c0 16.384-13.312 29.696-29.696 29.696zM660.1216 270.08c-16.384 0-29.696-13.312-29.696-29.696V141.312c0-16.384 13.312-29.696 29.696-29.696 16.384 0 29.696 13.312 29.696 29.696v99.072c0 16.384-13.2608 29.696-29.696 29.696z" fill="#FF779F" /><path d="M843.1104 167.936h-108.7488v72.448c0 41.0112-33.2288 74.24-74.24 74.24s-74.24-33.2288-74.24-74.24V167.936H446.976v72.448c0 41.0112-33.2288 74.24-74.24 74.24s-74.24-33.2288-74.24-74.24V167.936H184.1664c-43.7248 0-79.1552 35.4304-79.1552 79.1552V789.504c0 43.7248 35.4304 79.1552 79.1552 79.1552h658.944c43.7248 0 79.1552-35.4304 79.1552-79.1552V247.0912c0-43.7248-35.4304-79.1552-79.1552-79.1552z m-160.4608 302.848l-151.1936 198.4512a52.34176 52.34176 0 0 1-41.3696 20.5312c-12.6464 0-24.9856-4.608-34.5088-13.056L338.432 573.2352c-12.6976-11.2128-13.9264-30.6688-2.7136-43.3664 11.2128-12.7488 30.6688-13.9264 43.3664-2.7136l104.704 92.4672c2.6112 2.304 6.656 1.8944 8.7552-0.8704l141.1584-185.2416a30.69952 30.69952 0 0 1 43.0592-5.8368c13.568 10.3424 16.1792 29.6448 5.888 43.1104z" fill="#FF779F" /></svg>