<?xml version="1.0" standalone="no"?><!DOCTYPE svg PUBLIC "-//W3C//DTD SVG 1.1//EN" "http://www.w3.org/Graphics/SVG/1.1/DTD/svg11.dtd"><svg class="icon" width="64px" height="64.00px" viewBox="0 0 1024 1024" version="1.1" xmlns="http://www.w3.org/2000/svg"><path d="M832 166.4c-12.8 6.4-25.6 12.8-38.4 6.4-25.6-19.2-51.2-32-76.8-51.2-25.6-12.8-57.6-25.6-96-38.4-32-6.4-64-6.4-102.4-12.8H441.6c-6.4 0-19.2 0-32 6.4-44.8 12.8-83.2 25.6-115.2 51.2-19.2 12.8-32 25.6-44.8 38.4-19.2 12.8-32 25.6-51.2 38.4-12.8 19.2-25.6 32-38.4 51.2-12.8 12.8-25.6 32-32 51.2-44.8 76.8-57.6 166.4-51.2 256-6.4 25.6 0 44.8 6.4 64 6.4 19.2 12.8 44.8 25.6 64 12.8 19.2 19.2 38.4 32 57.6 12.8 19.2 25.6 32 38.4 51.2 25.6 32 57.6 57.6 96 83.2 19.2 12.8 32 25.6 51.2 32 19.2 12.8 32 19.2 51.2 25.6 38.4 12.8 76.8 19.2 115.2 19.2h76.8c6.4 0 19.2 0 25.6-6.4 38.4-6.4 70.4-19.2 102.4-32 12.8-6.4 32-12.8 44.8-25.6 12.8-6.4 25.6-19.2 38.4-32 25.6-19.2 44.8-44.8 57.6-70.4 19.2-25.6 32-44.8 44.8-70.4 25.6-44.8 44.8-89.6 51.2-128 25.6-44.8 25.6-76.8 25.6-96v-25.6-6.4-6.4l-6.4-6.4c0-6.4 0-6.4-6.4-12.8-6.4-25.6 12.8-57.6 6.4-89.6 12.8 32 19.2 57.6 19.2 76.8v160c0 19.2-6.4 44.8-12.8 64 0 6.4 0 12.8-6.4 19.2 0 6.4-6.4 12.8-6.4 19.2-6.4 12.8-6.4 25.6-12.8 38.4-12.8 25.6-25.6 51.2-44.8 76.8-19.2 25.6-44.8 51.2-70.4 70.4-12.8 12.8-32 19.2-44.8 32-6.4 0-6.4 6.4-12.8 6.4s-6.4 6.4-12.8 6.4c-6.4 6.4-12.8 6.4-25.6 12.8-32 19.2-70.4 32-108.8 44.8-12.8 0-19.2 6.4-32 6.4H563.2 492.8c-19.2 0-25.6-12.8-44.8-12.8-6.4 0-64-19.2-64-19.2-12.8 0-57.6-6.4-83.2-12.8-19.2-6.4-38.4-19.2-57.6-32-19.2-12.8-38.4-25.6-51.2-44.8-19.2-12.8-32-32-44.8-51.2-25.6-38.4-44.8-76.8-64-121.6l-6.4-19.2c0-6.4 0-12.8-6.4-19.2 0-6.4-6.4-12.8-6.4-19.2v-25.6c6.4-12.8 0-25.6-12.8-44.8-12.8-89.6 6.4-185.6 44.8-268.8 19.2-38.4 44.8-76.8 76.8-115.2 6.4-6.4 19.2-12.8 25.6-19.2l12.8-12.8 12.8-12.8c19.2-12.8 38.4-25.6 57.6-32 19.2-6.4 38.4-19.2 57.6-25.6l57.6-19.2c12.8-6.4 19.2-6.4 32-6.4 6.4 0 12.8 0 12.8-6.4H512c38.4 0 76.8 6.4 115.2 12.8 38.4 12.8 70.4 25.6 102.4 38.4 32 19.2 57.6 38.4 83.2 57.6 6.4 0 12.8 6.4 19.2 12.8z m-582.4 563.2l19.2 19.2c6.4 6.4 19.2 19.2 32 25.6 12.8 12.8 25.6 19.2 44.8 25.6 0 0 6.4 0 6.4 6.4l19.2 12.8c6.4 0 6.4 6.4 12.8 6.4-6.4 6.4 0 6.4 6.4 6.4s12.8 6.4 12.8 6.4c6.4 0 12.8 6.4 12.8 6.4 6.4 0 12.8 6.4 19.2 6.4h134.4c12.8 0 32-6.4 44.8-6.4 25.6 0 32-19.2 57.6-32 12.8-6.4 19.2-12.8 32-19.2 12.8-6.4 6.4 19.2 6.4 19.2-6.4 6.4-12.8 6.4-19.2 6.4-6.4 0-12.8 6.4-19.2 6.4-12.8 6.4-25.6 6.4-38.4 12.8-6.4 0-12.8 6.4-19.2 6.4h-6.4-6.4-6.4c-12.8 0-25.6 6.4-38.4 6.4H460.8c-6.4 0-12.8 0-19.2-6.4-6.4 0-12.8 0-19.2-6.4-6.4 0-12.8 0-19.2-6.4-6.4 0-12.8 0-19.2-6.4-6.4 0-12.8-6.4-12.8-6.4-6.4 0-12.8-6.4-12.8-6.4-6.4 0-6.4-6.4-12.8-6.4-6.4-6.4-19.2-6.4-25.6-12.8-19.2-12.8-32-19.2-38.4-32-12.8-12.8-19.2-19.2-32-25.6l-19.2-19.2-6.4-6.4s19.2 19.2 25.6 19.2z m480 44.8c6.4-6.4 12.8-6.4 19.2-19.2l25.6-25.6c12.8-12.8 19.2-25.6 32-44.8 0 0 0-6.4 6.4-6.4 0 0 0-6.4 6.4-6.4 0-6.4 6.4-6.4 6.4-12.8s6.4-6.4 6.4-12.8 6.4-12.8 6.4-12.8c0-6.4 6.4-12.8 6.4-12.8 0-6.4 6.4-12.8 6.4-12.8 0-6.4 6.4-12.8 6.4-19.2v-19.2-19.2-19.2-32-19.2c0-6.4 6.4-6.4 12.8 0v76.8c0 6.4 0 12.8-6.4 19.2 0 6.4 0 12.8-6.4 19.2 0 6.4 0 12.8-6.4 19.2 0 6.4 0 12.8-6.4 19.2 0 6.4-6.4 12.8-6.4 12.8 0 6.4-6.4 12.8-6.4 12.8 0 6.4-6.4 6.4-6.4 12.8-6.4 6.4-6.4 19.2-12.8 25.6-12.8 19.2-19.2 32-32 38.4-12.8 12.8-19.2 19.2-25.6 32l-19.2 19.2-6.4 6.4s-6.4-12.8 0-19.2z m-32-569.6c-6.4 0-6.4-6.4-12.8-6.4s-6.4-6.4-12.8-6.4-6.4-6.4-12.8-6.4h-6.4-6.4c-6.4-6.4-19.2-12.8-25.6-19.2-12.8 0-19.2-6.4-32-12.8H486.4c-12.8 0-25.6 0-32 6.4-12.8 0-25.6 6.4-32 6.4-6.4 0-12.8 0-19.2 6.4-6.4 0-12.8 6.4-19.2 6.4-6.4 0-19.2 6.4-25.6 12.8-12.8 6.4-12.8 12.8-25.6 19.2-6.4 6.4-25.6 6.4-32 12.8-12.8 6.4-12.8 19.2-19.2 25.6-6.4 12.8-12.8 19.2-19.2 25.6-12.8 6.4-12.8 12.8-19.2 25.6l-19.2 19.2c-6.4 6.4-6.4 19.2-12.8 25.6 0 6.4-6.4 12.8-6.4 19.2-6.4 12.8-19.2 12.8-25.6 44.8-6.4 25.6-12.8 0-12.8 0s6.4-6.4 6.4-19.2c0-12.8 6.4-25.6 12.8-38.4 6.4 0 6.4-6.4 12.8-19.2 6.4-6.4 6.4-12.8 12.8-19.2 12.8-12.8 19.2-32 32-44.8l25.6-25.6c6.4-6.4 19.2-12.8 25.6-19.2 12.8-6.4 19.2-12.8 25.6-25.6 6.4 0 12.8 0 19.2-6.4 6.4 0 12.8-6.4 12.8-6.4 12.8-6.4 25.6-6.4 32-12.8 6.4 0 12.8 0 19.2-6.4 6.4 0 12.8 0 19.2-6.4 12.8 0 25.6-6.4 32-6.4 12.8 0 25.6-6.4 32-6.4h32c12.8 0 25.6 0 32 6.4 6.4 0 12.8 0 19.2 6.4H627.2c19.2 6.4 38.4 12.8 51.2 25.6 6.4 0 6.4 6.4 12.8 6.4s12.8 12.8 6.4 12.8z m0 0" fill="#ffffff" /><path d="M230.4 556.8l-12.8-19.2c25.6-32 38.4-70.4 44.8-102.4h19.2c0 6.4 0 19.2-6.4 25.6l70.4-19.2c0-6.4-6.4-12.8-19.2-19.2l19.2-6.4c6.4 6.4 12.8 19.2 19.2 25.6L448 422.4l6.4 19.2-83.2 12.8 6.4 19.2L448 460.8l6.4 19.2-76.8 12.8 6.4 19.2 76.8-19.2 6.4 19.2-76.8 19.2 6.4 19.2 89.6-25.6 6.4 19.2-211.2 57.6L256 518.4c-6.4 12.8-12.8 25.6-25.6 38.4z m121.6-96l-76.8 19.2v6.4l6.4 19.2 76.8-19.2-6.4-25.6z m6.4 38.4l-76.8 19.2 6.4 19.2 76.8-19.2-6.4-19.2z m140.8 160l-19.2 6.4-6.4-12.8-153.6 38.4 6.4 12.8-19.2 6.4-25.6-89.6 192-51.2 25.6 89.6z m-128-121.6l-83.2 19.2 6.4 19.2 76.8-19.2v-19.2z m102.4 96l-12.8-38.4-153.6 38.4 12.8 38.4 153.6-38.4z m89.6-256v-19.2l19.2-6.4 6.4 12.8 51.2-12.8v19.2l-51.2 12.8 6.4 12.8 38.4-12.8 6.4 19.2-108.8 25.6-6.4-12.8 51.2-12.8-6.4-12.8-57.6 12.8-6.4-12.8 57.6-12.8z m-12.8 140.8L531.2 512c12.8-12.8 12.8-32 6.4-51.2v-19.2l102.4-25.6 12.8 44.8-89.6 19.2c-6.4 12.8-6.4 25.6-12.8 38.4z m38.4 19.2l-19.2-6.4c19.2-19.2 25.6-38.4 32-57.6h19.2c0 6.4 0 12.8-6.4 19.2l134.4-32 6.4 19.2-70.4 19.2 6.4 25.6 108.8-25.6 6.4 12.8-108.8 25.6 6.4 38.4 64-19.2-6.4-25.6 19.2-6.4 12.8 51.2-19.2 6.4v-12.8l-153.6 44.8v12.8l-19.2 6.4-12.8-57.6h19.2l6.4 25.6 64-19.2-6.4-32-115.2 25.6-6.4-19.2 121.6-32-6.4-25.6-57.6 19.2-19.2 19.2zM556.8 448c0 6.4 0 12.8 6.4 19.2l32-6.4-12.8-19.2-25.6 6.4z m76.8 0l-6.4-19.2-25.6 6.4 6.4 19.2 25.6-6.4z m89.6-121.6l6.4 25.6c0 6.4 6.4 6.4 6.4 6.4l19.2-6.4 6.4 12.8-25.6 6.4c-12.8 0-19.2 0-19.2-12.8v-12.8l-38.4 6.4v19.2c0 6.4-6.4 12.8-12.8 19.2l-19.2-6.4c6.4-6.4 12.8-12.8 12.8-19.2v-25.6l64-12.8z m38.4 57.6c-6.4 12.8-12.8 25.6-25.6 38.4h51.2l-6.4 19.2c-25.6 0-44.8 0-64-6.4-12.8 12.8-25.6 25.6-44.8 32l-12.8-12.8c19.2-6.4 32-12.8 44.8-19.2-12.8-6.4-25.6-12.8-32-25.6h-12.8l-6.4-12.8 102.4-25.6 6.4 12.8z m-44.8 38.4c12.8-12.8 19.2-19.2 25.6-32l-57.6 12.8c6.4 12.8 19.2 19.2 32 19.2z m0 0" fill="#ffffff" /></svg>