<?xml version="1.0" standalone="no"?><!DOCTYPE svg PUBLIC "-//W3C//DTD SVG 1.1//EN" "http://www.w3.org/Graphics/SVG/1.1/DTD/svg11.dtd"><svg class="icon" width="64px" height="63.02px" viewBox="0 0 1040 1024" version="1.1" xmlns="http://www.w3.org/2000/svg"><path d="M6.4 512c0 282.768 229.216 512 512 512 282.768 0 512-229.232 512-512 0-282.768-229.232-512-512-512C235.632 0 6.4 229.232 6.4 512z" fill="#FFFFFF" /><path d="M518.4 0C235.632 0 6.4 229.232 6.4 512c0 282.768 229.216 512 512 512 282.768 0 512-229.232 512-512 0-282.768-229.232-512-512-512z m170.64 549.536a42.656 42.656 0 0 1-52.016-21.312c-9.424-20.48 0-35.008 18.736-46.944a127.168 127.168 0 0 1 22.224-11.936c34.096-19.648 62.256-45.248 45.216-85.344a77.616 77.616 0 0 0-91.296-45.216 72.544 72.544 0 0 0-70.864 74.24v212.48A170.656 170.656 0 0 1 390.4 773.12c-92.96-6.864-163.232-87.024-157.856-180.064 0-49.472 46.08-85.312 106.656-116.032 25.6-7.68 51.2-7.68 64.864 17.92 13.616 25.6-11.984 44.352-34.144 54.592-45.216 19.648-67.44 51.2-46.08 97.28a79.36 79.36 0 0 0 106.64 37.568 75.104 75.104 0 0 0 50.384-81.088V410.464a148.48 148.48 0 0 1 107.52-151.04 177.456 177.456 0 0 1 187.696 48.64c50.272 70.016 34.256 167.52-35.76 217.792a156.064 156.064 0 0 1-49.536 23.68h-1.744z" fill="#677DE0" /></svg>