<svg t="1657865486072" class="icon" viewBox="0 0 1024 1024" version="1.1" xmlns="http://www.w3.org/2000/svg" p-id="11264" width="48" height="48"><path d="M512 967.111111C260.664889 967.111111 56.888889 763.363556 56.888889 512S260.664889 56.888889 512 56.888889c251.363556 0 455.111111 203.747556 455.111111 455.111111s-203.747556 455.111111-455.111111 455.111111zM467.569778 256l13.312 312.888889H540.444444l16.014223-312.888889h-88.888889z m84.736 414.833778a56.035556 56.035556 0 0 0-40.675556-16.554667c-15.872 0-29.297778 5.546667-40.277333 16.554667a54.926222 54.926222 0 0 0-16.440889 40.163555c0 18.005333 5.717333 32.028444 17.208889 42.040889a59.164444 59.164444 0 0 0 40.277333 15.047111c15.132444 0 28.359111-5.091556 39.708445-15.217777 11.349333-10.154667 17.009778-24.120889 17.009777-41.870223 0-15.729778-5.603556-29.127111-16.810666-40.163555z" p-id="11265" fill="#ff0000"></path><path d="M512 967.111111C260.664889 967.111111 56.888889 763.363556 56.888889 512S260.664889 56.888889 512 56.888889c251.363556 0 455.111111 203.747556 455.111111 455.111111s-203.747556 455.111111-455.111111 455.111111zM467.569778 256l13.312 312.888889H540.444444l16.014223-312.888889h-88.888889z m84.736 414.833778a56.035556 56.035556 0 0 0-40.675556-16.554667c-15.872 0-29.297778 5.546667-40.277333 16.554667a54.926222 54.926222 0 0 0-16.440889 40.163555c0 18.005333 5.717333 32.028444 17.208889 42.040889a59.164444 59.164444 0 0 0 40.277333 15.047111c15.132444 0 28.359111-5.091556 39.708445-15.217777 11.349333-10.154667 17.009778-24.120889 17.009777-41.870223 0-15.729778-5.603556-29.127111-16.810666-40.163555z" p-id="11266" fill="#ff0000"></path></svg>